<?xml version="1.0" encoding="UTF-8"?><svg xmlns="http://www.w3.org/2000/svg" viewBox="0 0 28 19"><defs><style>.d{fill:#fff;}</style></defs><g id="a"/><g id="b"><g id="c"><g><g><path class="d" d="M0,0V19H28V0H0ZM26,17H2V2H26v15Z"/><path d="M0,0V19H28V0H0ZM26,17H2V2H26v15Z"/></g><g><circle cx="8" cy="6" r="2"/><circle cx="8" cy="6" r="2"/></g><g><rect class="d" x="14" y="6" width="10" height="2"/><rect x="14" y="6" width="10" height="2"/></g><g><rect class="d" x="14" y="10" width="10" height="2"/><rect x="14" y="10" width="10" height="2"/></g><path d="M11.16,9H5.16c-.33,1.67-.67,3.33-1,5H12.16c-.33-1.67-.67-3.33-1-5Zm-4.56,3l.02-.11,.18-.89h2.72l.18,.89,.02,.11h-3.12Z"/></g></g></g></svg>