<svg width="32" height="32" viewBox="0 0 32 32" fill="none" xmlns="http://www.w3.org/2000/svg">
<path d="M15.9867 18.5332V13.5732H28.4667C28.6533 14.4132 28.8 15.1998 28.8 16.3065C28.8 23.9198 23.6933 29.3332 16 29.3332C8.63999 29.3332 2.66666 23.3598 2.66666 15.9998C2.66666 8.63984 8.63999 2.6665 16 2.6665C19.6 2.6665 22.6133 3.9865 24.92 6.1465L21.1333 9.8265C20.1733 8.91984 18.4933 7.85317 16 7.85317C11.5867 7.85317 7.98666 11.5198 7.98666 16.0132C7.98666 20.5065 11.5867 24.1732 16 24.1732C21.1067 24.1732 22.9867 20.6398 23.3333 18.5465H15.9867V18.5332Z" fill="black"/>
</svg>
