<svg width="88" height="88" viewBox="0 0 140 140" fill="none" xmlns="http://www.w3.org/2000/svg"><path d="M107.778 0H32.2221V140H107.778V0ZM45.5555 13.3333V11.1112H94.4443V62.2222H92.2222H45.5555V13.3333ZM94.4443 131.111H92.2222H45.5555V82.222V79.9999H94.4443V131.111ZM98.611 76.3888C95.5489 76.3888 93.0555 73.8955 93.0555 70.8333C93.0555 67.7712 95.5489 65.2779 98.611 65.2779C101.673 65.2779 104.167 67.7712 104.167 70.8333C104.167 73.8953 101.673 76.3888 98.611 76.3888Z" fill="black"/><path d="M54.4443 91.111V89.6532L47.7778 83.6157V127.318L54.4443 120.651V91.111Z" fill="black"/><path d="M83.3333 122.222H56.0155L49.3488 128.889H90.651L83.9845 122.222H83.3333Z" fill="black"/><path d="M83.9845 88.8888L90.651 82.222H49.5488L56.9088 88.8888H83.9845Z" fill="black"/><path d="M85.5554 120.651L92.2222 127.318V83.7932L85.5554 90.46V120.651Z" fill="black"/><path d="M54.4443 22.2222V20.7644L47.7778 14.7267V58.4288L54.4443 51.7621V22.2222Z" fill="black"/><path d="M83.3333 53.3333H56.0155L49.3488 60H90.651L83.9845 53.3333H83.3333Z" fill="black"/><path d="M83.9845 19.9999L90.651 13.3334H49.5488L56.9088 19.9999H83.9845Z" fill="black"/><path d="M85.5554 51.7621L92.2222 58.4289V14.9045L85.5554 21.5711V51.7621Z" fill="black"/><path d="M83.3333 22.2222H56.6667V51.1109H83.3333V22.2222Z" fill="black"/><path d="M83.3333 91.111H56.6667V120H83.3333V91.111Z" fill="black"/><path d="M98.611 74.1668C100.452 74.1668 101.944 72.6744 101.944 70.8334C101.944 68.9924 100.452 67.5 98.611 67.5C96.7701 67.5 95.2776 68.9924 95.2776 70.8334C95.2776 72.6744 96.7701 74.1668 98.611 74.1668Z" fill="black"/></svg>
