<svg width="181" height="180" viewBox="0 0 181 180" fill="none" xmlns="http://www.w3.org/2000/svg">
<path d="M178.298 83.3006L102.048 18.5889C100.494 17.4478 98.9763 16.6748 97.0515 16.6748H44.6763C40.4566 16.6748 36.9773 20.1349 36.9773 24.3312C36.9773 28.5276 40.4566 31.9877 44.6763 31.9877H80.099V45.7914H51.2278C49.3031 45.7914 47.3783 46.5644 45.8237 48.0736L1.92474 95.9263C0.777301 97.0674 0 98.9816 0 100.896V133.067C0 137.264 3.47935 140.724 7.69898 140.724H18.3221C21.7274 153.607 33.498 163.325 47.7485 163.325C61.8509 163.325 73.9546 153.607 77.2859 140.356H102.567C105.861 153.423 117.706 163.325 132.104 163.325C146.503 163.325 158.421 153.607 161.642 140.356H173.301C177.521 140.356 181 137.301 181 132.699V89.0429C181 86.7607 179.853 84.8466 178.298 83.3006ZM15.0278 103.583L54.7072 60.6993H80.136V125.043H77.0638C73.4364 112.38 61.5548 102.847 47.7855 102.847C33.8311 102.847 21.8014 112.38 18.3591 125.448H15.0648V103.583H15.0278ZM47.7485 148.417C39.2722 148.417 32.3505 141.534 32.3505 133.104C32.3505 124.675 39.2722 117.791 47.7485 117.791C56.2247 117.791 63.1464 124.675 63.1464 133.104C63.1464 141.497 56.2247 148.417 47.7485 148.417ZM132.104 148.417C123.628 148.417 116.706 141.534 116.706 133.104C116.706 124.675 123.628 117.791 132.104 117.791C140.58 117.791 147.502 124.675 147.502 133.067C147.502 141.497 140.543 148.417 132.104 148.417ZM161.382 125.043C157.829 112.38 146.17 102.847 132.067 102.847C118.261 102.847 106.305 112.196 102.752 125.043L132.067 102.847L161.382 125.043Z" fill="black"/>
</svg>
