<svg width="140" height="140" viewBox="0 0 140 140" fill="none" xmlns="http://www.w3.org/2000/svg">
<path d="M50.1457 76.7573C50.477 76.923 50.8317 77 51.1817 77C52.0403 77 52.8663 76.5263 53.2723 75.705C56.4503 69.307 62.86 65.3333 70 65.3333C71.288 65.3333 72.3333 64.2903 72.3333 63C72.3333 61.7096 71.288 60.6666 70 60.6666C61.0773 60.6666 53.067 65.6343 49.0933 73.6283C48.5193 74.7833 48.9907 76.181 50.1457 76.7573Z" fill="black"/>
<path d="M49 84C50.2887 84 51.3333 82.9554 51.3333 81.6667C51.3333 80.378 50.2887 79.3334 49 79.3334C47.7113 79.3334 46.6667 80.378 46.6667 81.6667C46.6667 82.9554 47.7113 84 49 84Z" fill="black"/>
<path d="M42.8073 102.067C43.6637 103.35 44.625 104.552 45.6493 105.698L45.5863 105.786L46.9887 107.182C50.7477 110.913 55.2603 113.605 60.1743 115.152C60.221 115.166 60.263 115.185 60.3097 115.201C61.1917 115.474 62.09 115.696 62.9953 115.894C63.154 115.929 63.3057 115.978 63.4643 116.011C64.3043 116.181 65.156 116.298 66.0123 116.401C66.2457 116.429 66.4697 116.48 66.7053 116.503C67.7927 116.608 68.8917 116.667 70 116.667C70.63 116.667 71.2437 116.608 71.8643 116.571C72.0207 116.606 72.1677 116.667 72.3333 116.667C72.611 116.667 72.8677 116.597 73.115 116.508C89.67 114.935 102.667 100.961 102.667 84C102.667 65.9867 88.0133 51.3334 70 51.3334C51.9867 51.3334 37.3333 65.9867 37.3333 84C37.3333 90.2067 39.1043 95.9934 42.1237 100.94C42.245 101.383 42.4713 101.771 42.8073 102.067ZM56.2893 101.4C56.679 102.142 57.435 102.667 58.3333 102.667C59.6213 102.667 60.6667 101.621 60.6667 100.333C60.6667 99.9694 60.5663 99.6334 60.417 99.3254C62.7153 98.476 65.1607 98 67.6667 98H72.3333H74.6667C80.5373 98 86.142 96.425 91.0467 93.5667C91.1703 94.7404 92.127 95.6667 93.3333 95.6667C94.6213 95.6667 95.6667 94.6214 95.6667 93.3334C95.6667 92.4467 95.1533 91.7024 94.4253 91.3057C95.5267 90.4634 96.5953 89.5744 97.5917 88.585C97.5613 88.7717 97.5403 88.963 97.5053 89.1474C97.4377 89.5114 97.3583 89.8754 97.2767 90.2347C97.1623 90.7387 97.034 91.238 96.8917 91.7327C96.789 92.0897 96.6817 92.442 96.5673 92.792C96.4063 93.2774 96.2267 93.758 96.04 94.2317C95.907 94.5677 95.7763 94.906 95.6317 95.235C95.4217 95.7157 95.1883 96.1824 94.9503 96.6467C94.794 96.9524 94.647 97.2604 94.4813 97.559C94.206 98.0537 93.905 98.5297 93.6017 99.0034C93.443 99.2507 93.296 99.5097 93.1303 99.7524C92.68 100.41 92.204 101.045 91.7023 101.661C91.6603 101.712 91.6207 101.768 91.5787 101.822C91.042 102.471 90.4727 103.094 89.8777 103.691C89.6723 103.899 89.4483 104.088 89.2383 104.291C88.83 104.678 88.4217 105.063 87.9923 105.425C87.731 105.644 87.4533 105.849 87.185 106.059C86.779 106.374 86.373 106.689 85.9507 106.983C85.6543 107.189 85.3487 107.382 85.0453 107.576C84.6253 107.844 84.2007 108.108 83.7643 108.353C83.4447 108.535 83.118 108.708 82.789 108.878C82.348 109.107 81.8977 109.321 81.4427 109.527C81.1043 109.678 80.766 109.825 80.4207 109.965C79.9517 110.154 79.4733 110.325 78.9903 110.49C78.645 110.609 78.2997 110.728 77.9473 110.833C77.4387 110.985 76.9207 111.109 76.4003 111.232C76.0597 111.312 75.7237 111.4 75.3783 111.468C74.7973 111.582 74.207 111.662 73.6143 111.739C73.318 111.778 73.0263 111.832 72.7277 111.86C71.827 111.949 70.9193 112 70 112C69.0853 112 68.1823 111.949 67.2887 111.862C67.032 111.839 66.78 111.792 66.5233 111.76C65.8793 111.68 65.24 111.589 64.61 111.468C64.344 111.417 64.085 111.349 63.8213 111.291C63.2007 111.151 62.5847 110.999 61.9803 110.817C61.7447 110.747 61.5113 110.668 61.278 110.593C60.648 110.385 60.0273 110.161 59.4183 109.912C59.2223 109.832 59.0263 109.748 58.8327 109.664C58.1957 109.387 57.5727 109.083 56.9613 108.761C56.8003 108.677 56.6393 108.593 56.4783 108.505C55.8483 108.155 55.237 107.779 54.6373 107.385C54.502 107.296 54.3643 107.212 54.2313 107.121C53.984 106.951 53.753 106.759 53.5127 106.584C53.263 105.861 52.6797 105.329 51.9353 105.124C53.2187 103.672 54.691 102.433 56.2893 101.4ZM70 56C84.623 56 96.6467 67.2747 97.8787 81.585C97.44 81.8324 97.0363 82.1544 96.7167 82.565C91.3663 89.4064 83.3303 93.3334 74.6667 93.3334H67.6667C60.3307 93.3334 53.3727 96.5114 48.5287 101.939C44.4593 97.076 42 90.8227 42 84C42 68.5604 54.5603 56 70 56Z" fill="black"/>
<path d="M65.3333 109.667C66.622 109.667 67.6667 108.622 67.6667 107.333C67.6667 106.045 66.622 105 65.3333 105C64.0447 105 63 106.045 63 107.333C63 108.622 64.0447 109.667 65.3333 109.667Z" fill="black"/>
<path d="M72.3333 102.667C73.622 102.667 74.6667 101.622 74.6667 100.333C74.6667 99.0447 73.622 98 72.3333 98C71.0447 98 70 99.0447 70 100.333C70 101.622 71.0447 102.667 72.3333 102.667Z" fill="black"/>
<path d="M86.3333 102.667C87.622 102.667 88.6667 101.622 88.6667 100.333C88.6667 99.0447 87.622 98 86.3333 98C85.0447 98 84 99.0447 84 100.333C84 101.622 85.0447 102.667 86.3333 102.667Z" fill="black"/>
<path d="M79.3333 109.667C80.622 109.667 81.6667 108.622 81.6667 107.333C81.6667 106.045 80.622 105 79.3333 105C78.0447 105 77 106.045 77 107.333C77 108.622 78.0447 109.667 79.3333 109.667Z" fill="black"/>
<path d="M51.3333 0H24.8967C20.174 0 16.3333 3.84067 16.3333 8.56333V28H51.3333V0ZM37.3333 25.6667C32.186 25.6667 28 21.4807 28 16.3333C28 11.186 32.186 7 37.3333 7C42.4807 7 46.6667 11.186 46.6667 16.3333C46.6667 21.4807 42.4807 25.6667 37.3333 25.6667Z" fill="black"/>
<path d="M115.103 0H88.6667V28H123.667V8.56333C123.667 3.84067 119.826 0 115.103 0ZM102.667 25.6667C97.5193 25.6667 93.3333 21.4807 93.3333 16.3333C93.3333 11.186 97.5193 7 102.667 7C107.814 7 112 11.186 112 16.3333C112 21.4807 107.814 25.6667 102.667 25.6667Z" fill="black"/>
<path d="M84 0H56V28H84V0Z" fill="black"/>
<path d="M16.3333 131.437C16.3333 136.159 20.174 140 24.8967 140H115.103C119.824 140 123.667 136.159 123.667 131.437V32.6666H16.3333V131.437ZM70 42C93.1583 42 112 60.8416 112 84C112 107.158 93.1583 126 70 126C46.8417 126 28 107.158 28 84C28 60.8416 46.8417 42 70 42Z" fill="black"/>
</svg>
