<svg width="177" height="177" viewBox="0 0 177 177" fill="none" xmlns="http://www.w3.org/2000/svg">
<path d="M92.0011 26.2583H0V83.8319H92.0011V26.2583Z" fill="black"/>
<path d="M0 129.346H13.6679C16.347 117.127 27.2502 107.951 40.2626 107.951C53.2751 107.951 64.1779 117.127 66.8574 129.346H92.0011V95.5022H0V129.346Z" fill="black"/>
<path d="M40.2626 119.621C31.6826 119.621 24.7022 126.601 24.7022 135.181C24.7022 143.761 31.6826 150.742 40.2626 150.742C48.8427 150.742 55.8231 143.761 55.8231 135.181C55.8231 126.601 48.8427 119.621 40.2626 119.621Z" fill="black"/>
<path d="M136.737 119.621C128.157 119.621 121.177 126.601 121.177 135.181C121.177 143.761 128.157 150.742 136.737 150.742C145.317 150.742 152.298 143.761 152.298 135.181C152.298 126.601 145.317 119.621 136.737 119.621Z" fill="black"/>
<path d="M138.099 26.2583H103.671V129.346H110.143C112.822 117.127 123.725 107.951 136.737 107.951C149.75 107.951 160.653 117.127 163.332 129.346H177V75.2737L138.099 26.2583Z" fill="black"/>
</svg>
