<svg width="163" height="163" viewBox="0 0 163 163" fill="none" xmlns="http://www.w3.org/2000/svg">
<path d="M68.7655 155.359H43.2968V163H68.7655V155.359Z" fill="black"/>
<path d="M119.703 155.359H94.2343V163H119.703V155.359Z" fill="black"/>
<path d="M43.2968 50.9375H119.703C125.329 50.9375 129.891 46.3762 129.891 40.75V10.1875C129.891 4.56134 125.329 0 119.703 0H43.2968C37.6706 0 33.1093 4.56134 33.1093 10.1875V40.75C33.1093 46.3762 37.6709 50.9375 43.2968 50.9375ZM43.2968 15.2812C43.2968 13.8755 44.4378 12.7345 45.8435 12.7345C47.2492 12.7345 48.3902 13.8755 48.3902 15.2812V33.1095C48.3902 34.5153 47.2492 35.6562 45.8435 35.6562C44.4378 35.6562 43.2968 34.5153 43.2968 33.1095V15.2812Z" fill="black"/>
<path d="M43.2968 150.266H119.703C125.329 150.266 129.891 145.704 129.891 140.078V68.7657C129.891 63.1396 125.329 58.5782 119.703 58.5782H43.2968C37.6706 58.5782 33.1093 63.1396 33.1093 68.7657V140.078C33.1093 145.704 37.6709 150.266 43.2968 150.266ZM43.2968 68.7657C43.2968 67.36 44.4378 66.219 45.8435 66.219C47.2492 66.219 48.3902 67.36 48.3902 68.7657V86.594C48.3902 87.9997 47.2492 89.1407 45.8435 89.1407C44.4378 89.1407 43.2968 87.9997 43.2968 86.594V68.7657Z" fill="black"/>
</svg>
