<svg width="88" height="88" viewBox="0 0 140 140" fill="none" xmlns="http://www.w3.org/2000/svg"><path d="M140 52.7933C140 49.6284 137.942 47.0596 135.402 47.0596C132.861 47.0596 130.803 44.2574 130.803 40.8022V38.1944C130.803 34.7393 128.874 29.9073 126.492 27.401L113.807 14.0517C111.427 11.5478 106.697 9.51807 103.241 9.51807H37.0207C33.5655 9.51807 28.7002 11.4129 26.1572 13.7486L11.5192 27.1861C8.97387 29.5241 6.91031 34.2184 6.91031 37.6735V40.8022C6.91031 44.2574 5.36288 47.0596 3.45515 47.0596C1.54743 47.0596 0 49.6284 0 52.7933C0 55.9611 1.54743 58.5298 3.45515 58.5298C5.36574 58.5298 6.91031 61.332 6.91031 64.7872V112.757C6.91031 116.212 5.36288 119.011 3.45515 119.011C1.54743 119.011 0 121.58 0 124.745C0 127.913 2.80225 130.482 6.2574 130.482H133.74C137.195 130.482 139.998 127.913 139.998 124.745C139.998 121.578 137.984 119.012 135.5 119.012C133.017 119.012 131.003 116.212 131.003 112.757V64.7872C131.003 61.332 133.017 58.5298 135.5 58.5298C137.983 58.5298 140 55.9611 140 52.7933ZM81.9934 64.7872V112.757C81.9934 116.212 79.1912 119.011 75.736 119.011H62.1794C58.7243 119.011 55.922 116.212 55.922 112.757V64.7872C55.922 61.332 58.7243 58.5298 62.1794 58.5298H75.7389C79.1917 58.5298 81.9934 61.332 81.9934 64.7872ZM24.6379 58.5298H38.1973C41.6525 58.5298 44.4547 61.332 44.4547 64.7872L44.4495 112.757C44.4495 116.212 41.6472 119.011 38.1921 119.011H24.6355C21.1803 119.011 18.3781 116.212 18.3781 112.757V64.7872C18.3805 61.332 21.1827 58.5298 24.6379 58.5298ZM113.275 119.012H99.7186C96.2635 119.012 93.4612 116.212 93.4612 112.757V64.7872C93.4612 61.332 96.2635 58.5298 99.7186 58.5298H113.278C116.733 58.5298 119.535 61.332 119.535 64.7872V112.757C119.533 116.212 116.73 119.012 113.275 119.012Z" fill="#010002"/></svg>
