<svg width="128" height="128" viewBox="0 0 128 128" fill="none" xmlns="http://www.w3.org/2000/svg">
<path d="M114.087 8.34778H101.565V33.3913H114.087C116.393 33.3913 118.261 31.523 118.261 29.2173V12.5218C118.261 10.216 116.392 8.34778 114.087 8.34778Z" fill="black"/>
<path d="M13.913 0C7.00825 0 1.39125 5.617 1.39125 12.5218V107.131C1.39125 114.035 7.00825 119.652 13.913 119.652C20.8178 119.652 26.4347 114.035 26.4347 107.131V12.5218C26.4347 5.617 20.8178 0 13.913 0Z" fill="black"/>
<path d="M47.3042 0C40.3995 0 34.7825 5.617 34.7825 12.5218V107.131C34.7825 114.035 40.3995 119.652 47.3042 119.652C54.209 119.652 59.826 114.035 59.826 107.131V12.5218C59.826 5.617 54.209 0 47.3042 0Z" fill="black"/>
<path d="M80.6957 0C73.791 0 68.174 5.617 68.174 12.5218V107.131C68.174 114.035 73.791 119.652 80.6957 119.652C87.6005 119.652 93.2175 114.035 93.2175 107.131V12.5218C93.2175 5.617 87.6005 0 80.6957 0Z" fill="black"/>
<path d="M114.087 86.2607H101.565V111.304V115.478C101.565 122.383 107.182 128 114.087 128C120.992 128 126.609 122.383 126.609 115.478V98.7825C126.609 91.8777 120.992 86.2607 114.087 86.2607Z" fill="black"/>
</svg>
