<svg width="88" height="88" viewBox="0 0 165 165" fill="none" xmlns="http://www.w3.org/2000/svg"><path d="M154.688 64.4673H126.741L110.786 36.5198L134.412 21.5853C139.229 18.5438 140.666 12.1678 137.625 7.35408C134.585 2.54007 128.214 1.125 123.4 4.16397L27.954 64.4673H10.3125C4.61742 64.4673 0 69.0331 0 74.7289V105.666C0 111.362 4.61742 116.03 10.3125 116.03H20.625V152.073C20.625 157.768 25.2424 162.385 30.9375 162.385C36.6326 162.385 41.25 157.768 41.25 152.073V116.03H72.1875V143.191C69.1186 144.977 67.0312 148.291 67.0312 152.098C67.0312 157.793 71.6487 162.436 77.3438 162.436H87.6562C93.3513 162.436 97.9688 157.793 97.9688 152.098C97.9688 148.291 95.8814 144.977 92.8125 143.191V116.03H123.75V152.073C123.75 157.768 128.367 162.385 134.062 162.385C139.758 162.385 144.375 157.768 144.375 152.073V116.03H154.688C160.383 116.03 165 111.362 165 105.666V74.7289C165 69.0331 160.383 64.4673 154.688 64.4673ZM102.06 42.0573L114.865 64.4673H66.5769L102.06 42.0573ZM144.375 95.4048H20.625V85.0923H30.9275C30.9349 85.0923 30.9401 85.0923 30.9478 85.0923C30.9543 85.0923 30.9604 85.0923 30.9655 85.0923H144.375V95.4048Z" fill="black"/></svg>
