<svg width="88" height="88" viewBox="0 0 192 192" fill="none" xmlns="http://www.w3.org/2000/svg"><path d="M160.805 143.142C160.805 149.181 155.912 154.073 149.874 154.073C143.837 154.073 138.942 149.181 138.942 143.142C138.942 137.105 143.837 132.208 149.874 132.208C155.912 132.208 160.805 137.105 160.805 143.142Z" fill="black"/><path d="M55.3477 143.142C55.3477 149.181 50.4552 154.073 44.4159 154.073C38.3773 154.073 33.4832 149.181 33.4832 143.142C33.4832 137.105 38.3773 132.208 44.4159 132.208C50.4552 132.208 55.3477 137.105 55.3477 143.142Z" fill="black"/><path d="M99.4991 105.683C99.4991 107.008 98.4259 108.083 97.0995 108.083C95.7731 108.083 94.6999 107.008 94.6999 105.683V98.4819C94.6999 97.1567 95.7731 96.0815 97.0995 96.0815C98.4259 96.0815 99.4991 97.1567 99.4991 98.4819V105.683Z" fill="black"/><path d="M191.954 139.982L187.509 109.905C187.287 108.397 186.265 107.12 184.843 106.574L163.084 98.194L150.212 72.7015H173.756C176.091 72.7015 178.052 70.803 177.991 68.4685C177.914 65.4936 171.289 40.9502 171.289 40.9502C170.758 39.1712 169.09 37.9268 167.232 37.9268H110.359C109.697 37.9268 109.035 38.0847 108.446 38.3844L94.0212 45.6898H4.2338C1.9008 45.6898 0 47.5887 0 49.9221V140.601C0 142.935 1.9008 144.834 4.2338 144.834H28.4454C28.6781 144.834 28.9019 144.741 29.061 144.57C29.2204 144.402 29.3035 144.175 29.2914 143.944L29.2741 143.662C29.262 143.489 29.2506 143.318 29.2506 143.142C29.2506 134.779 36.0537 127.976 44.4163 127.976C52.7792 127.976 59.5835 134.779 59.5835 143.142C59.5835 143.318 59.5698 143.489 59.5588 143.662L59.5412 143.944C59.5282 144.175 59.6121 144.402 59.7708 144.57C59.9314 144.741 60.1559 144.834 60.3856 144.834H133.904C134.138 144.834 134.36 144.741 134.52 144.57C134.679 144.402 134.762 144.175 134.75 143.944L134.732 143.662C134.72 143.489 134.708 143.318 134.708 143.142C134.708 134.779 141.513 127.976 149.873 127.976C158.236 127.976 165.04 134.779 165.04 143.142C165.04 143.318 165.028 143.489 165.015 143.662L164.999 143.944C164.986 144.175 165.07 144.402 165.23 144.57C165.389 144.741 165.611 144.834 165.845 144.834H187.766C188.998 144.834 190.167 144.3 190.973 143.367C191.776 142.436 192.135 141.202 191.954 139.982ZM65.4144 92.1295C65.4144 95.5561 62.6339 98.3339 59.2046 98.3339H16.9528C13.5262 98.3339 10.7481 95.5561 10.7481 92.1295L10.7512 78.8933C10.7512 75.4675 13.5297 72.6889 16.9567 72.6889H59.2046C62.6343 72.6889 65.4144 75.4675 65.4144 78.8933V92.1295ZM104.972 125.313C104.972 128.329 102.526 130.773 99.5101 130.773H81.4915C78.4747 130.773 76.0289 128.33 76.0289 125.313V78.1394C76.0289 75.123 78.4747 72.6788 81.4915 72.6788H99.5101C102.526 72.6788 104.972 75.1226 104.972 78.1394V125.313ZM149.073 96.2712C148.251 97.558 146.831 98.3358 145.306 98.3358H120.297C117.828 98.3358 115.827 96.3332 115.827 93.8646V77.159C115.827 74.6869 117.828 72.6889 120.297 72.6889H137.583C139.326 72.6889 140.91 73.7011 141.642 75.2817L149.364 91.9912C150.003 93.3724 149.893 94.9899 149.073 96.2712ZM181.188 119.706C180.952 119.975 180.611 120.127 180.252 120.127H173.599C172.909 120.127 172.35 119.569 172.35 118.879V115.554C172.35 110.848 177.289 110.056 179.966 111.112C180.354 111.261 180.596 111.658 180.648 112.071L181.49 118.723C181.535 119.08 181.424 119.438 181.188 119.706Z" fill="black"/></svg>