<svg width="160" height="160" viewBox="0 0 160 160" fill="none" xmlns="http://www.w3.org/2000/svg">
<path d="M140 66.6666H46.6666V47.42C46.6666 40.7733 51.1866 34.6 57.74 33.52C59.6542 33.1942 61.6163 33.2899 63.4898 33.8002C65.3632 34.3106 67.1028 35.2234 68.5873 36.4749C70.0718 37.7265 71.2655 39.2868 72.0851 41.047C72.9048 42.8072 73.3308 44.7249 73.3333 46.6666H86.6666C86.6634 42.942 85.8805 39.2592 84.3684 35.8553C82.8562 32.4514 80.6483 29.4017 77.8865 26.9025C75.1248 24.4033 71.8706 22.5099 68.333 21.344C64.7955 20.1782 61.0531 19.7658 57.3466 20.1333C43.4866 21.48 33.3333 33.9266 33.3333 47.8533V66.6666H20C18.2319 66.6666 16.5362 67.369 15.2859 68.6193C14.0357 69.8695 13.3333 71.5652 13.3333 73.3333V86.6666C13.3333 104.04 24.4933 118.82 40 124.333V146.667H53.3333V126.667H106.667V146.667H120V124.333C135.507 118.82 146.667 104.04 146.667 86.6666V73.3333C146.667 71.5652 145.964 69.8695 144.714 68.6193C143.464 67.369 141.768 66.6666 140 66.6666Z" fill="black"/>
</svg>
