<svg width="152" height="144" viewBox="0 0 152 144" fill="none" xmlns="http://www.w3.org/2000/svg">
<path d="M64.3192 18.2488C71.0469 18.2488 76.5005 23.7142 76.5005 30.4566C76.5005 37.199 71.0463 42.6645 64.3192 42.6645C57.592 42.6645 52.1372 37.199 52.1372 30.4566C52.1372 23.7142 57.5914 18.2488 64.3192 18.2488ZM19.6347 92.2279L19.5225 92.1154C19.0172 91.778 18.5683 91.4966 18.1753 91.0467L19.5225 106.518L2.56916 130.596C0.155561 134.084 0.997499 138.81 4.36525 141.229C7.84581 143.648 12.5614 142.804 14.975 139.429L33.2755 112.988C34.2297 111.638 34.8472 109.837 34.6227 108.037L34.0052 100.555L19.6347 92.2279ZM69.9889 142.579H142.629L129.044 100.104C129.044 100.104 121.353 102.017 106.141 118.219C105.804 118.557 105.411 118.951 105.074 119.288L68.3614 98.0224C68.9789 96.8412 69.0911 95.4905 68.8667 94.0279L55.8422 45.6462C54.7758 40.9204 50.5655 37.3198 45.6255 37.3198H21.3186C19.5225 37.3198 17.7258 38.2761 16.7152 39.8517L4.59028 60.9483C3.01862 63.4802 3.97278 66.7428 6.49919 68.2055L20.0842 76.0255L18.2875 79.0632C16.0983 82.6638 17.3333 87.2771 21.0383 89.302L51.5197 106.911V134.815C51.5197 139.034 54.888 142.41 59.0983 142.41C63.3086 142.41 66.6769 139.034 66.6769 134.815V102.973L100.414 122.551C93.4533 126.546 85.4822 127.277 79.8125 130.652C72.8513 134.815 69.9889 142.579 69.9889 142.579ZM22.6658 71.5811L13.74 66.4054L24.3497 48.0651H36.2508L22.6658 71.5811ZM42.2578 82.9452L50.6783 68.2055L56.9656 91.3835L42.2578 82.9452ZM150.812 31.9145C150.812 33.8418 149.253 35.4568 147.278 35.4568C146.238 35.4568 145.251 34.9879 144.627 34.2583L140.468 30.4031V63.4838H125.586H112.774H97.6867V30.1436L92.9041 34.4678C92.28 35.0932 91.3965 35.4574 90.4608 35.4574C88.5376 35.4574 86.9262 33.8948 86.9262 31.9151C86.9262 30.8208 87.4457 29.7789 88.2259 29.1541L119.207 1.38647L128.512 9.87831V2.68902H136.465V17.1717L149.928 29.5182C150.501 30.1436 150.812 30.9767 150.812 31.9145Z" fill="black"/>
</svg>
