<svg width="88" height="88" viewBox="0 0 181 181" fill="none" xmlns="http://www.w3.org/2000/svg"><g clip-path="url(#clip0_113_479)"><path d="M180.023 78.1436L152.228 30.7215C150.951 28.5433 148.616 27.2053 146.09 27.2053H7.11369C3.18494 27.2047 0 30.39 0 34.3187V125.371C0 129.3 3.18494 132.484 7.11369 132.484H21.2704C23.0561 144.525 33.4589 153.795 45.9883 153.795C58.5181 153.795 68.9214 144.526 70.7072 132.484H110.293C112.079 144.525 122.482 153.795 135.011 153.795C147.541 153.795 157.944 144.526 159.73 132.484H173.887C177.816 132.484 181 129.299 181 125.371V81.7409C180.999 80.4765 180.662 79.2347 180.023 78.1436ZM22.6719 75.1021V44.6401H51.88V75.1021H22.6719ZM45.9877 141.75C38.8492 141.75 33.0413 135.942 33.0413 128.803C33.0413 121.664 38.8492 115.856 45.9877 115.856C53.1269 115.856 58.9354 121.664 58.9354 128.803C58.9354 135.942 53.1272 141.75 45.9877 141.75ZM96.365 75.1021H65.3899V44.6401H96.365V75.1021ZM135.011 141.75C127.872 141.75 122.064 135.942 122.064 128.803C122.064 121.664 127.872 115.856 135.011 115.856C142.15 115.856 147.958 121.664 147.958 128.803C147.958 135.942 142.15 141.75 135.011 141.75ZM109.874 75.1021V44.6401H138.061L158.327 75.1021H109.874Z" fill="black"/></g><defs><clipPath id="clip0_113_479"><rect width="181" height="181" fill="white"/></clipPath></defs></svg>