<svg width="172" height="172" viewBox="0 0 172 172" fill="none" xmlns="http://www.w3.org/2000/svg">
<g clip-path="url(#clip0_113_428)">
<path d="M36.8571 24.5715C24.5714 24.5715 12.2857 36.8572 12.2857 49.143C36.8571 49.143 49.1429 68.5058 49.1429 86.0001H122.857C122.857 67.3484 135.143 49.143 159.714 49.143C159.714 36.8572 147.429 24.5715 135.143 24.5715H36.8571ZM12.2857 61.4287C0 61.4287 0 73.7144 0 73.7144C0 80.0804 5.91967 86.0001 12.2857 86.0001V122.857C12.2857 130.785 17.4869 135.143 24.5714 135.143H30.7143C30.7143 135.143 30.7143 147.429 43 147.429C55.2857 147.429 55.2857 135.143 55.2857 135.143H116.714C116.714 135.143 116.714 147.429 129 147.429C141.286 147.429 141.286 135.143 141.286 135.143H147.429C153.688 135.143 159.714 129.194 159.714 122.857V86.0001C165.791 86.0001 172 81.2379 172 73.7144C172 73.7144 172 61.4287 159.714 61.4287C147.429 61.4287 135.143 73.7144 135.143 98.2858H36.8571C36.8571 73.7144 24.5714 61.4287 12.2857 61.4287Z" fill="black"/>
</g>
<defs>
<clipPath id="clip0_113_428">
<rect width="172" height="172" fill="white"/>
</clipPath>
</defs>
</svg>
