<?xml version="1.0" encoding="UTF-8"?><svg xmlns="http://www.w3.org/2000/svg" viewBox="0 0 337.29 255.59"><defs><style>.d{fill:#b7b7b7;}.e{fill:#9d9d9d;}.f{fill:#a7a7a7;}.g{fill:#ddd;}.h{fill:#e9e9e9;}.i{fill:#343434;}.j{fill:#f0f0f0;}.k{fill:#555;}.l{fill:#fff;}.m{fill:#c5c5c5;}.n{fill:#cbcbcb;}.o{fill:#575757;}.p{fill:#4c4c4c;}.q{fill:#d1d1d1;}.r{fill:#fafafa;}.s{fill:#3f3f3f;}.t{fill:#a5a5a5;}.u{fill:#cacaca;}.v{fill:#d8d8d8;}.w{fill:#f6f6f6;}.x{fill:#bfbfbf;}.y{fill:#9c9c9c;}.a`{fill:#aeaeae;}.aa{fill:#565656;}.ab{fill:silver;}.ac{fill:#989898;}.ad{fill:#e2e2e2;}.ae{fill:#5c5c5c;}.af{fill:#4b4b4b;}.ag{fill:#5f5f5f;}.ah{fill:#a9a9a9;}.ai{fill:#a0a0a0;}.aj{fill:#4a4a4a;}.ak{fill:#a6a6a6;}.al{fill:#bababa;}.am{fill:#3e3e3e;}.an{fill:#323232;}.ao{fill:#959595;}.ap{fill:#868686;}.aq{fill:#d6d6d6;}.ar{fill:#909090;}.as{fill:#c9c9c9;}.at{fill:#393939;}.au{fill:#4e4e4e;}.av{fill:#e0e0e0;}.aw{fill:#c7c7c7;}.ax{fill:#dedede;}.ay{fill:#6b6b6b;}.b`{fill:#cfcfcf;}.ba{fill:#d7d7d7;}.bb{fill:#bdbdbd;}.bc{fill:#e1e1e1;}.bd{fill:#e6e6e6;}.be{fill:#e7e7e7;}.bf{fill:#2a2a2a;}.bg{fill:#b0b0b0;}.bh{fill:#444;}.bi{fill:#5a5a5a;}.bj{fill:#d4d4d4;}.bk{fill:#505050;}.bl{fill:#767676;}.bm{fill:#dadada;}.bn{fill:#b8b8b8;}.bo{fill:#7d7d7d;}.bp{fill:#eaeaea;}.bq{fill:#a1a1a1;}.br{fill:#424242;}.bs{fill:#414141;}.bt{fill:#2b2b2b;}.bu{fill:#676767;}.bv{fill:#3a3a3a;}.bw{fill:#c8c8c8;}.bx{fill:#fdfdfd;}.by{fill:#e4e4e4;}.c`{fill:#737373;}.ca{fill:#fbfbfb;}.cb{fill:#a3a3a3;}.cc{fill:#f9f9f9;}.cd{fill:#e5e5e5;}.ce{fill:#3b3b3b;}.cf{fill:#464646;}.cg{fill:#b6b6b6;}.ch{fill:#5d5d5d;}.ci{fill:#878787;}.cj{fill:#494949;}.ck{fill:#858585;}.cl{fill:#2c2c2c;}.cm{fill:#d3d3d3;}.cn{fill:#ebebeb;}.co{fill:#bebebe;}.cp{fill:#adadad;}.cq{fill:#d5d5d5;}.cr{fill:#4f4f4f;}.cs{fill:#2e2e2e;}.ct{fill:#373737;}.cu{fill:#dcdcdc;}.cv{fill:#636363;}.cw{fill:#c1c1c1;}.cx{fill:#535353;}.cy{fill:#bcbcbc;}.d`{fill:#e8e8e8;}.da{fill:#515151;}.db{fill:#ccc;}.dc{fill:#ababab;}.dd{fill:#bbb;}.de{fill:#f7f7f7;}.df{fill:#b3b3b3;}.dg{fill:#efefef;}.dh{fill:#434343;}.di{fill:#9a9a9a;}.dj{fill:#c2c2c2;}.dk{fill:#f1f1f1;}.dl{fill:#7b7b7b;}.dm{fill:#525252;}.dn{fill:#454545;}.do{fill:#a8a8a8;}.dp{fill:#cecece;}.dq{fill:#f3f3f3;}.dr{fill:#acacac;}.ds{fill:#b5b5b5;}.dt{fill:#484848;}.du{fill:#d9d9d9;}.dv{fill:#6d6d6d;}.dw{fill:#595959;}.dx{fill:#cdcdcd;}.dy{fill:#d2d2d2;}.e`{fill:#9e9e9e;}.ea{fill:#eee;}.eb{fill:#686868;}.ec{fill:#d0d0d0;}.ed{fill:#ececec;}.ee{fill:#f2f2f2;}.ef{fill:#c4c4c4;}.eg{fill:#a2a2a2;}.eh{fill:#b9b9b9;}.ei{fill:#060606;}.ej{fill:#e3e3e3;}.ek{fill:#fcfcfc;}.el{fill:#ededed;}.em{fill:#dfdfdf;}</style></defs><g id="a"/><g id="b"><g id="c"><g><path class="l" d="M168.61,255.59c-55.21,0-110.41,.02-165.62-.12-1.01,0-2.89-1.86-2.89-2.85C-.03,169.43-.04,86.25,.11,3.07,.11,2.04,2.16,.1,3.25,.1c110.29-.14,220.57-.14,330.86,0,1.07,0,3.07,1.98,3.07,3.03,.14,83.05,.15,166.11-.01,249.16,0,1.1-2.16,3.15-3.32,3.15-55.08,.16-110.16,.14-165.24,.14Zm22.52-32.99l3.02,1.49c1.46,1.03,2.92,2.07,4.38,3.1,3.32-4.26,6.64-8.52,9.96-12.78,2.95,0,5.9,0,8.85-.01,2.97,1.8,5.94,3.59,8.9,5.39,3.79-3.56,7.58-7.12,11.37-10.67,3-.01,6.01-.03,9.01-.04,2.99,1.3,5.98,2.61,8.96,3.91,1.77,.5,3.54,1,5.31,1.5,1.48-3.54,2.95-7.09,4.43-10.63,.25-.47,.5-.93,.74-1.4l1.53-.18c5.48,2.01,10.97,4.03,16.45,6.04,1.51-.26,3.01-.52,4.52-.78,1.26-2.46,2.51-4.92,3.77-7.38,1.24-3.02,2.48-6.03,3.71-9.05,.19-.59,.54-1.17,.55-1.77,.59-48.67,1.23-97.34,1.65-146.01,.06-6.96-.93-13.93-1.43-20.9-1.51-2.24-3.02-4.47-4.53-6.71-18,.23-36,.46-54,.69l-1.44,.02c-10,.26-19.99,.51-29.99,.77l-9.02-1.48c-6.75,.24-13.49,.48-20.24,.72l-1.5,2.22-2.98,1.53c-1.45,.84-3.29,1.38-4.23,2.61-.79,1.02,.01,3.5-.83,4.2-2.1,1.75-4.74,2.85-7.16,4.22,1.72-3.93,3.36-7.91,5.23-11.77,.47-.98,1.7-1.59,4.14-3.76h-24.15c-4.44,.36-8.87,.72-13.31,1.07-8.31,.65-16.63,1.28-24.95,1.92l-16.48-2.95c-6.5,.24-13,.47-19.49,.71-3.51,1.5-7.01,3-10.52,4.5l-6.52,20.24c2.37,2.28,4.74,4.56,7.11,6.84l1.03,3.62c.91,43.88,2.29,87.76,2.44,131.64,.04,11.84-3.66,23.69-5.65,35.53l.07,15.85c7.52,1.97,15.03,3.94,22.55,5.91,.71,.53,1.42,1.06,2.12,1.59,2.03,1.26,4.06,2.53,6.09,3.79,2.76-.04,5.52-.08,8.28-.12,2.01-3.75,4.02-7.49,6.03-11.24,.05-.18,.04-.36-.01-.54,5.68,.48,11.36,.97,17.04,1.45,1.23,.75,2.47,1.5,3.7,2.25l3.93,2.13c2.05-.23,4.09-.47,6.14-.7l14.98-12.71,2.16-.17c3.5,2.27,6.99,4.54,10.49,6.81,.78,.39,1.56,.79,2.33,1.18l5.2-2.56c2.23-3.79,4.47-7.58,6.7-11.37,4.5,.75,9,1.5,13.5,2.25Z"/><path class="em" d="M236.87,16.45c.48,0,.96-.01,1.44-.02,7.77,.51,15.53,1.03,23.3,1.54,0,.25,0,.5,0,.75-1.25,1.74-2.51,3.49-3.76,5.23-.24,8.5-.49,17-.73,25.49-.25,3.5-.51,7-.76,10.5-.5,1.17-1.36,2.32-1.43,3.51-1.32,22.07-2.54,44.14-3.78,66.21,0,13.49-.02,26.98-.03,40.47l-1.56,11.93c.99-44.26,1.99-88.52,2.87-132.78,.02-1-1.31-2.03-2.02-3.04-.5,1.27-1.42,2.53-1.45,3.81-.56,22.56-1.01,45.13-1.49,67.69-.06-6.58-.12-13.15-.18-19.73,.06-15.19,.11-30.39,.17-45.58,.48-2.62,.95-5.24,1.43-7.85,1.48-2.1,2.96-4.19,4.44-6.29v-5.66c-2.29,.7-4.12,1.26-5.95,1.82,1.94-4.07,3.88-8.15,5.83-12.22l-5.83-1.26-3.74,.02-7.54-1.52c.01-.49,.02-.99,.03-1.48l.76-1.54Z"/><path class="em" d="M107.9,18.69c8.32-.64,16.63-1.28,24.95-1.92,4.44-.35,8.87-.71,13.31-1.07,.25,0,.5,.02,.75,.03-.93,1.22-1.85,2.43-6.28,8.25,8.74-4.31,12.76-6.28,16.77-8.26,2.65,.9,7.66,2.05,7.59,2.67-1.16,11.14-2.94,22.22-4.58,33.31,0,6.49,0,12.99,0,19.48,0,1.75,0,3.5-.01,5.25-.37-6.54-.75-13.07-1.5-26.18v63.65c-.25,2.75-.5,5.5-.74,8.24-.25,1.25-.5,2.5-.75,3.74-.22-1.76-.45-3.52-.67-5.28,0-22.21,0-44.42,0-66.62,.34,4.01,.68,8.02,.67,7.91v-27.45l-1.5-4.49c-2.68-3-4.85-7.14-8.2-8.63-2.79-1.24-6.97,.64-10.53,1.14h-3.01l-1.5-2.23-5.25,.7c-2,2.76-3.99,5.52-5.99,8.28-.72,4.75-1.44,9.51-2.17,14.26-.04-2.23-.08-4.47-.12-6.7l-2.19-2.31c-.5-4.75-1.01-9.5-1.51-14.25,.54-.98,1.09-1.96,2.36-4.24-3.43,.7-5.5,1.09-7.52,1.62-.17,.05-.2,1.56-.1,1.58,1.74,.42,3.51,.72,5.27,1.04l-7.52-1.52Z"/><path class="a`" d="M59.81,218.81c1.99-11.84,5.69-23.69,5.65-35.53-.14-43.88-1.52-87.76-2.44-131.64,.22,.01,.44,.05,.66,.1l3.77,89.91c.24,14,.49,28,.73,42,0,6.61-.42,13.25,.18,19.8,.36,3.95,2.31,7.75,3.55,11.62l.81,.07c-1.99,1.26-3.98,2.52-5.97,3.78-.96,.73-1.92,1.46-2.89,2.18-1.03-.73-2.06-1.47-3.09-2.2l-.96-.1Z"/><path class="j" d="M146.91,15.73c-.25,0-.5-.02-.75-.03,7.45,0,14.9,0,24.15,0-2.44,2.17-3.66,2.78-4.14,3.76-1.87,3.86-3.51,7.84-5.23,11.77,2.42-1.36,5.06-2.47,7.16-4.22,.84-.7,.05-3.17,.83-4.2,.94-1.23,2.78-1.77,4.23-2.61-1,9.25-2,18.49-3,27.74,0,2.25,0,4.49-.01,6.74-1.06,2.86-2.12,5.71-3.8,10.21-2.33-5.18-4.13-9.19-5.93-13.2,1.64-11.09,3.42-22.17,4.58-33.31,.06-.62-4.95-1.77-7.59-2.67-3.5,0-7,0-10.49,.01Z"/><path class="ed" d="M115.42,20.22l1.51,14.25h0c-5.9-.74-11.8-1.49-18.82-2.37v24.54l-2.61-.06V28.15l-1.82,.09v6.96c-.75-5.25-1.5-10.5-2.25-15.75-2.23,1.51-4.47,3.02-6.7,4.52,2.23-2.5,4.46-5,6.69-7.5,0-.25,0-.49,0-.74,5.49,.98,10.99,1.97,16.48,2.95,2.51,.51,5.02,1.01,7.52,1.52h0Zm-10.91,1.06c-3.1,2.33-3.97,2.99-4.84,3.64,4.31,2.93,8.48,6.15,13.12,8.42,.58,.28,3.62-4.44,5.51-6.84l-13.79-5.22Z"/><path class="ac" d="M61.99,48.02c-2.37-2.28-4.74-4.56-7.11-6.84,1.02-6.05,2.04-12.11,3.06-18.16,1.41,2.07,2.82,4.14,4.23,6.22,2.64,4.03,4.82,8.48,8.06,11.93,2.32,2.47,6.05,3.62,9.16,5.35-1.25-.49-2.46-1.17-3.76-1.45-3.5-.74-7.04-1.63-10.57-1.71-.83-.02-1.73,2.89-2.59,4.46-.16,.08-.31,.14-.48,.2Z"/><path class="di" d="M217.35,214.4c-2.95,0-5.9,0-8.85,.01-.8-.02-1.6-.04-2.39-.05,2.82-2.21,5.81-4.24,8.39-6.71,1.77-1.69,2.94-4,4.38-6.04h0c-1.75-2.99-3.49-5.99-5.24-8.98-2.01-1.26-4.01-2.51-6.02-3.77,0-3,0-5.99,0-8.99l.71-30.03c.03-6.73,.06-13.45,.08-20.18,.25,0,.5,0,.75,0-.02,17.09-.54,34.21,.48,51.24,.16,2.61,7.44,4.8,11.43,7.18,.02,2.51,.04,5.03,.06,7.54,0,4.25,0,8.5-.01,12.75-4.42,.86-8.83,1.72-14.42,2.81,4.76,1.11,7.36,1.72,9.96,2.33l.7,.9Z"/><path class="dc" d="M292.36,200.17c-1.26,2.46-2.51,4.92-3.77,7.38-.02-.75-.03-1.5-.05-2.25,.27-3.48,.53-6.95,.8-10.43,.5-10.74,1.01-21.49,1.51-32.23,.6-5.82,1.2-11.64,1.8-17.46l1.18,.05v40.66c-.57-.28-1.14-.56-1.7-.85,.32,2.77,.64,5.53,.96,8.3l-.71,6.83Z"/><path class="ds" d="M293.82,185.89v-40.66l-1.18-.05c-.6,5.82-1.2,11.64-1.8,17.46,0-2.25,0-4.5,0-6.75,.26-9.25,.51-18.5,.77-27.75,.77-4.43,1.53-8.87,2.3-13.3l1.46,.18v13.94c.24,20.72,.47,41.44,.71,62.16-1.24,3.02-2.48,6.03-3.71,9.05,.24-2.28,.48-4.55,.71-6.83,.25-2.48,.5-4.97,.75-7.45Z"/><path class="dv" d="M60.77,218.9c1.03,.73,2.06,1.47,3.09,2.2,.99,2.24,1.98,4.48,2.97,6.72,.68,3.25,1.35,6.49,2.03,9.74,2.28,.49,4.57,.97,6.85,1.46l6.72,1.54c-7.52-1.97-15.03-3.94-22.55-5.91,.29-5.25,.59-10.5,.88-15.76Z"/><path class="by" d="M296.07,191.12c-.24-20.72-.47-41.44-.71-62.16,.5-16,1.01-32.01,1.51-48.01,.47-14.76,.94-29.52,1.42-44.29l.77-6.69-2.98-6.73v-.78l.76-.03c.5,6.97,1.49,13.94,1.43,20.9-.42,48.67-1.06,97.34-1.65,146.01,0,.59-.36,1.18-.55,1.77Z"/><path class="ah" d="M246.63,209.08l-9.01,.04c-1.17,2.36-2.33,4.72-4.11,8.33-.23-2.5-.32-3.55-.42-4.61,.01-1.74,.02-3.48,.03-5.22,.85,.12,1.69,.24,2.05,.3,.83-8.81,1.63-17.3,2.43-25.79,.68,2.23,1.02,4.65,2.13,6.64,2.32,4.15,5.05,8.08,7.62,12.09-.24-2.75-.49-5.49-.73-8.24h0c-.84-1.12-1.68-2.24-2.52-3.36-1.28,1.82-4.01,4.66-3.57,5.28,1.74,2.48,4.47,4.28,6.83,6.32l-9.02,2.25c2.26,1.51,4.51,3.01,6.77,4.52l1.54,1.45Z"/><path class="bq" d="M98.93,245.83c-2.76,.04-5.52,.08-8.28,.12-.16-1.39,.05-3.81-.53-4.02-5.98-2.16-12.1-3.96-18.18-5.85-.36-1.42-.73-2.83-1.18-4.58-.46,1.09-.74,1.77-1.03,2.44l-.11-4.71-2.23-9c.76,.3,1.52,.61,2.28,.91l1.49,5.21,.84,4.38c1.21,1.17,2.42,2.35,3.63,3.52,2.52-3.89,5.04-7.77,7.55-11.66,0,.74,.01,1.49,.02,2.23,1.49,3,2.98,6.01,4.48,9.01,2.99,2.99,5.97,5.99,8.96,8.98,.76-.39,1.52-.77,2.28-1.16v4.16Z"/><path class="ej" d="M236.87,16.45c-.25,.51-.51,1.03-.76,1.54-.75,.24-1.5,.48-2.25,.72-3.75,4-7.5,8-11.24,12.01-.25-.75-.5-1.5-.74-2.25-2.75-2.5-5.5-4.99-8.25-7.49-.25,0-.51-.02-.76-.02,5.17-.89,10.35-1.78,15.52-2.68l-.36-2.42-21.13,2.12c0-.25-.01-.5-.02-.75l29.99-.77Z"/><path class="by" d="M61.41,20.95c3.51-1.5,7.01-3,10.52-4.5l.06,.07c-.38,1.26-.77,2.52-1.15,3.78l4.51-2.49c1.62,3.31,3.24,6.61,4.86,9.92-.25,0-.51,0-.76,0-.2-1.84-.27-5.23-.64-5.27-3.35-.3-6.91-.53-10.06,.4-.98,.29-.91,4.16-1.32,6.39-.5,2.99-1,5.97-1.5,8.96l-1.68,1.57c-.48-3.48-.96-6.95-1.44-10.43l2.05,.77c-1.15-3.05-2.29-6.1-3.44-9.15Z"/><path class="eg" d="M266.08,202.47c-.25,.47-.5,.93-.74,1.4l-2.23-4.5c.24-1,.49-2,.73-3,.75-4.25,1.5-8.49,2.25-12.74,2.74,.02,5.49,.03,8.23,.05-2.13,2.05-5.24,3.8-6.02,6.27-.44,1.41,2.91,4.02,4.56,6.09l2.24-4.16h0c.24-1,.48-2,.72-3l2.28-.76,.66,7.56c-3.98,.56-8.01,.95-11.9,1.89-.54,.13-.44,2.97-.63,4.55,0,.14-.05,.26-.16,.35Z"/><path class="cu" d="M176.13,18.68c.5-.74,1-1.48,1.5-2.22,6.75,0,13.5,.01,20.25,.02,.65,.46,1.3,.93,1.95,1.39l-1.94,1.6c-5.5,.5-11,1-16.5,1.49l-2.22,.03-3.04-2.31Z"/><path class="de" d="M296.84,22.45c-.25,0-.51,.02-.76,.03-.75,.49-1.5,.99-2.25,1.48-1.25,2-2.49,4-3.74,6.01-1.75-.75-3.5-1.5-5.25-2.25,2.49-3.74,4.99-7.49,7.48-11.23,0-.25,0-.49,0-.74,1.51,2.24,3.02,4.47,4.53,6.71Z"/><path class="ar" d="M165.73,234.28l-2.33-1.18c-1.99-3.25-3.97-6.51-5.96-9.76l-17.27,.79c-.01-.76-.02-1.52-.04-2.28,4.75-.76,9.49-1.52,14.24-2.28,.75-.98,1.5-1.96,2.24-2.93,3.75,5.24,7.5,10.48,11.25,15.73-.71,.64-1.43,1.27-2.14,1.91Z"/><path class="bd" d="M176.13,18.68c1.01,.77,2.03,1.54,3.04,2.31,0,.25,0,.49-.01,.74-1.01,2.25-2.02,4.5-3.02,6.75v1.49c-1.99,6-3.98,11.99-5.98,17.99,1-9.25,2-18.49,3-27.74,.99-.51,1.99-1.02,2.98-1.53Z"/><path class="eg" d="M206.1,214.36c.8,.02,1.6,.04,2.39,.05-3.32,4.26-6.64,8.52-9.96,12.78-2.71-4.28-5.43-8.56-8.14-12.85v-1.5c1.75,1.75,3.5,3.5,5.25,5.25,1.87,1.28,3.74,2.56,5.62,3.84,.62-2.02,1.25-4.05,1.87-6.07l2.97-1.51Z"/><path class="cp" d="M177.64,220.35c-2.23,3.79-4.47,7.58-6.7,11.37,.68-2.06,1.36-4.13,2.3-7l-3.09,1.63-.73-1.5c1.74-9.25,3.49-18.49,5.23-27.74,.24,0,.48,0,.72,0,.01,.75,.02,1.49,.03,2.24,.5,.75,1,1.51,1.5,2.26l-.76,2.25c-.5,3-.99,6.01-1.49,9.01v3.76l2.98,3.72Z"/><path class="ah" d="M140.14,221.85c.01,.76,.02,1.52,.04,2.28,3.52,.78,7.04,1.56,10.57,2.33-4.99,4.24-9.99,8.48-14.98,12.71-.79-1.52-1.57-3.05-2.36-4.57,.25-.27,.49-.53,.74-.8,.26-1.98,.53-3.96,.79-5.94,.24,0,.48,0,.72,0l1,3.53c1.21-4.19,1.98-6.86,2.75-9.53,.24,0,.49,0,.73,0Z"/><path class="cx" d="M121.99,235.5c-5.68-.48-11.36-.97-17.04-1.45,.02-1.28,.04-2.56,.07-3.84,5.21-.27,10.42-.54,15.62-.81,1.44,1.76,2.88,3.53,4.86,5.94-1.74,.08-2.62,.12-3.5,.17Z"/><path class="do" d="M260.91,214.49c-1.77-.5-3.54-1-5.31-1.5-1.75-3.04-3.49-6.09-5.24-9.13,0-1,.01-2,.02-3l7.47,8.27c1.02,1.79,2.04,3.58,3.06,5.37Z"/><path class="bg" d="M233.09,212.84l.42,4.61c1.78-3.61,2.95-5.97,4.11-8.33-3.79,3.56-7.58,7.12-11.37,10.67,.83-.03,1.65-.07,2.48-.1-1.28-3.03-2.56-6.06-3.84-9.09,2.73,.75,5.46,1.5,8.19,2.24Z"/><path class="w" d="M61.41,20.95c1.15,3.05,2.29,6.1,3.44,9.15-.68-.26-1.37-.51-2.05-.77-.21-.04-.41-.07-.62-.09l-4.23-6.22c-1.02,6.05-2.04,12.11-3.06,18.16,2.17-6.75,4.35-13.49,6.52-20.24Z"/><path class="ag" d="M150.74,226.46c-3.52-.78-7.04-1.56-10.57-2.33,5.76-.26,11.51-.53,17.27-.79-1.51,.98-3.02,1.97-4.53,2.95l-2.16,.17Z"/><path class="ay" d="M63.68,51.74c-.22-.05-.44-.08-.66-.1-.34-1.21-.69-2.41-1.03-3.62,.16-.06,.32-.13,.47-.2,5.61,2.49,11.22,4.98,16.83,7.47-.45,1.3-.91,2.61-1.36,3.91-4.75-2.49-9.5-4.97-14.26-7.46Z"/><path class="bh" d="M284.07,208.32c-5.48-2.01-10.97-4.03-16.45-6.04,3.27-.88,6.54-1.75,7.39-1.98,3.79,2.77,6.4,4.68,9.02,6.6l.05,1.42Z"/><path class="c`" d="M71.94,236.07c6.08,1.9,12.19,3.7,18.18,5.85,.59,.21,.38,2.63,.53,4.02-2.03-1.26-4.06-2.53-6.09-3.79l2.31-1.31c-2.22-1.33-4.45-2.65-6.67-3.98-2.75-.26-5.5-.53-8.26-.79Z"/><path class="o" d="M152.91,226.29c1.51-.98,3.02-1.97,4.53-2.95,1.99,3.25,3.97,6.51,5.96,9.76-3.5-2.27-6.99-4.54-10.49-6.81Z"/><path class="eg" d="M129.62,239.88c-1.31-.71-2.62-1.42-3.93-2.13,.85-.09,1.69-.19,4.01-.44-3.58-3.79-6.28-6.65-8.98-9.51l.02-1.48c1.72,.77,3.44,1.54,5.16,2.31,1.52,1.99,3.03,3.97,4.55,5.96-.27,1.76-.55,3.53-.82,5.29Z"/><path class="dm" d="M250.36,203.86c1.75,3.04,3.49,6.09,5.24,9.13-2.99-1.3-5.98-2.61-8.96-3.91-.51-.48-1.02-.96-1.54-1.45,1.24-1.29,2.47-2.57,3.71-3.86l1.56,.09Z"/><path class="ej" d="M292.31,15.74c0,.25,0,.49,0,.74-6.74,0-13.48,0-20.22,0-2.99,.49-5.99,.99-8.98,1.48h-1.51c-7.77-.5-15.53-1.01-23.3-1.53,18-.23,36-.46,54-.69Z"/><path class="dw" d="M228.74,219.69c-.83,.03-1.65,.07-2.48,.1-2.97-1.8-5.94-3.59-8.9-5.39-.23-.3-.47-.6-.7-.9,1.5-.96,3.01-1.93,4.51-2.89,2.53,3.03,5.05,6.05,7.58,9.08Z"/><path class="dc" d="M260.91,214.49c-1.02-1.79-2.04-3.58-3.06-5.37,1.26-2,2.51-4,3.77-6,.5-1.25,.99-2.5,1.49-3.76l2.23,4.5c-1.48,3.54-2.95,7.09-4.43,10.63Z"/><path class="cb" d="M105.02,230.21c-.02,1.28-.04,2.56-.07,3.84,.06,.18,.06,.36,.01,.54-.78,0-1.56,.01-2.34,.02,.27-2.5,.53-5,.8-7.5,1-1.25,1.99-2.5,2.99-3.74,.75,0,1.5,.01,2.25,.02l.76,2.9c-1.47,1.31-2.94,2.62-4.42,3.93Z"/><path class="t" d="M102.63,234.61c.78,0,1.56-.01,2.34-.02-2.01,3.75-4.02,7.49-6.03,11.24,0-1.39,0-2.77-.01-4.16-.76,.39-1.52,.77-2.28,1.16,2-2.74,3.99-5.48,5.99-8.22Z"/><path class="ch" d="M284.02,206.9c-2.61-1.91-5.23-3.83-9.02-6.6-.85,.23-4.12,1.1-7.39,1.98-.51,.06-1.02,.12-1.53,.18,.11-.09,.16-.2,.15-.35,4.17-1.65,8.35-3.29,12.52-4.94l.11-.07c1.72,3.26,3.44,6.52,5.16,9.79Z"/><path class="dk" d="M197.88,19.46l1.94-1.6c-.65-.46-1.3-.93-1.95-1.39,0-.24,0-.49,0-.73,3.01,.49,6.01,.99,9.02,1.48,0,.25,.02,.5,.02,.75-.76,1.25-1.51,2.5-2.27,3.75-.25,.5-.49,1.01-.74,1.51-2-1-4.01-2-6.01-3v-.75Z"/><path class="ck" d="M190.4,214.35c2.71,4.28,5.43,8.56,8.14,12.85-1.46-1.03-2.92-2.07-4.38-3.1-.52-1.5-1.03-2.99-1.55-4.49-1.25-1.51-2.49-3.02-3.74-4.53l1.53-.73Z"/><path class="bi" d="M80.19,236.86c2.22,1.33,4.45,2.65,6.67,3.98-.77,.44-1.54,.88-2.31,1.31-.71-.53-1.42-1.06-2.12-1.59-2.24-.51-4.48-1.03-6.72-1.54,1.49-.72,2.99-1.44,4.48-2.16Z"/><path class="ap" d="M120.72,227.8c2.7,2.86,5.4,5.72,8.98,9.51-2.32,.26-3.16,.35-4.01,.44-1.23-.75-2.47-1.5-3.7-2.25,.88-.04,1.76-.08,3.5-.17-1.97-2.41-3.41-4.18-4.86-5.94,.03-.53,.06-1.06,.08-1.6Z"/><path class="ac" d="M284.02,206.9c-1.72-3.26-3.44-6.52-5.16-9.79,3.23,2.73,6.45,5.46,9.68,8.19,.02,.75,.03,1.5,.05,2.25-1.51,.26-3.01,.52-4.52,.78l-.05-1.42Z"/><path class="ch" d="M192.61,219.61c.52,1.5,1.03,2.99,1.55,4.49l-3.02-1.49c-1.73-1.02-3.46-2.04-5.19-3.06,2.22,.02,4.45,.04,6.67,.06Z"/><path class="eh" d="M129.62,239.88c.27-1.76,.55-3.53,.82-5.29,.99,0,1.97,.01,2.96,.02,.79,1.52,1.57,3.05,2.36,4.57-2.05,.24-4.09,.47-6.14,.7Z"/><path class="dr" d="M170.14,226.36l3.09-1.63c-.95,2.87-1.62,4.94-2.3,7-1.73,.85-3.47,1.71-5.2,2.56,.71-.64,1.43-1.27,2.14-1.91,.5-.76,1.01-1.52,1.51-2.29,.25-1.24,.51-2.48,.76-3.73Z"/><path class="ar" d="M185.94,219.55c1.73,1.02,3.46,2.04,5.19,3.06-4.5-.75-9-1.5-13.5-2.25-.99-1.24-1.98-2.48-2.97-3.72,.23-.02,.47-.04,.7-.06l.14,.11,10.44,2.86Z"/><path class="cb" d="M60.77,218.9c-.29,5.25-.59,10.5-.88,15.76-.02-5.28-.05-10.57-.07-15.85,.32,.03,.64,.07,.96,.1Z"/><path class="bd" d="M197.86,15.74c0,.24,0,.49,0,.73-6.75,0-13.5-.01-20.25-.02,6.75-.24,13.49-.48,20.24-.72Z"/><path class="by" d="M91.42,15.74c0,.25,0,.49,0,.74-6.48,.01-12.96,.02-19.44,.03l-.06-.07c6.5-.24,13-.47,19.49-.71Z"/><path class="ca" d="M247.46,117.74c.48-22.56,.93-45.13,1.49-67.69,.03-1.28,.95-2.54,1.45-3.81,.7,1.01,2.04,2.04,2.02,3.04-.88,44.26-1.88,88.52-2.87,132.79-.98-2.04-2.81-4.07-2.81-6.11,.06-19.41,.43-38.81,.72-58.22Z"/><path class="el" d="M222.62,30.72c3.75-4,7.5-8,11.24-12.01-2.42,3.28-4.89,6.52-7.16,9.9-.19,.28,1.44,2.19,1.49,2.15,2.11-1.31,4.69-2.36,6.02-4.28,1.3-1.87,1.3-4.64,1.87-7.02,2.51,.51,5.03,1.01,7.54,1.52,.5,3.24,1,6.48,1.49,9.72,.5,.5,1,1,1.5,1.51-3.25-3.06-6.49-6.13-10.48-9.89v20.39l-.03,5.22c-.42,2.81-.25,5.88-1.39,8.36-2.13,4.64-5.01,8.94-7.58,13.38V34.11l-1.1,.05c-.83,8.83-1.66,17.65-2.49,26.48-.31-7.22-.62-14.45-.93-21.67h0c.01-.99,.03-1.99,.04-2.99-.26-1.01-.52-2.02-.78-3.04,0-.25,.01-.49,.02-.74,.24-.5,.49-.99,.73-1.49Z"/><path class="ej" d="M256.35,59.95c.25-3.5,.51-7,.76-10.5,.42,4.44,.84,8.87,1.29,13.7,2.53-4.19,4.74-7.82,6.94-11.46l.02,.77c0,6.5,0,12.99,0,19.49-.25,7.25-.5,14.49-.75,21.74l-8.24,7.49V59.95Z"/><path class="aa" d="M247.44,52.43c-.06,15.19-.11,30.39-.17,45.58-.5,26.99-1.03,53.98-1.4,80.98-.02,1.31,1.42,2.64,2.18,3.97-1.09,1.05-2.18,2.1-3.27,3.15-1.97-2.73-5.63-5.45-5.65-8.19-.15-21.83,.39-43.67,.73-65.5,.02-2.95,.05-5.91,.07-8.86,.22-10.54,.45-21.08,.67-31.62-.27-1.74-.54-3.48-.81-5.23,.33-4.26,.66-8.53,.99-12.79,.69,6.02,1.38,12.04,2.06,18.05,0,.23,0,.46,0,.69-.48,1.66-1.34,3.31-1.37,4.97-.59,32.05-1.12,64.09-1.53,96.14-.03,2.02,1.06,4.06,1.63,6.09,1.15-2.17,3.25-4.32,3.31-6.52,.51-19.31,.66-38.64,.91-57.96,.01-5.74,.03-11.48,.04-17.22v-1.49l.7-32.28c0-3.49,.02-6.98,.03-10.47l.87-1.49Z"/><path class="ed" d="M265.34,51.69c-2.2,3.64-4.4,7.28-6.94,11.46-.46-4.83-.87-9.27-1.29-13.7,.24-8.5,.49-17,.73-25.49,.45,2.37,.9,4.73,1.34,7.1,1.87-1.48,5.18-2.87,5.28-4.46,.16-2.55-1.8-5.24-2.86-7.87,0-.25,0-.5,0-.75,.5,0,1.01,0,1.51-.01,.99,.75,1.99,1.51,2.98,2.26l-.76,31.47Z"/><path class="dy" d="M256.35,59.95c0,13.74,0,27.48,0,41.22-.25,8.75-.51,17.49-.76,26.24-.38-4.9-.76-9.81-.98-12.71-.88,3.79-2.18,9.38-3.48,14.97,1.24-22.07,2.46-44.14,3.78-66.21,.07-1.19,.94-2.34,1.43-3.51Z"/><path class="dx" d="M251.13,129.66c1.3-5.59,2.6-11.18,3.48-14.97,.22,2.9,.6,7.81,.98,12.71,0,.5,0,1,.01,1.49,0,1,0,2,0,3-.25,9-.5,17.99-.76,26.99-.46-.86-.93-1.73-1.42-2.64-.81,4.85-1.57,9.36-2.32,13.88,0-13.49,.02-26.98,.03-40.47Z"/><path class="s" d="M242.85,71.98c-.69-6.02-1.38-12.04-2.06-18.06-.11-2.74-.22-5.49-.33-8.23,0-1.5-.02-3.01-.03-4.51l12.07,1.78-3.63,1.61c-.48,2.62-.95,5.24-1.43,7.85-.29,.5-.58,1-.87,1.49-.98,3.76-1.97,7.52-2.95,11.28-.26,2.26-.51,4.52-.77,6.78Z"/><path class="ef" d="M251.11,170.13c.76-4.51,1.51-9.03,2.32-13.88,.49,.91,.95,1.78,1.42,2.64,0,.75,0,1.49,.01,2.24-.25,6.75-.5,13.49-.76,20.24v.76l-3.79,.75c-.76,.03-1.51,.05-2.27,.08-.76-1.32-2.19-2.66-2.18-3.97,.37-26.99,.9-53.99,1.4-80.98,.06,6.57,.12,13.15,.18,19.72-.28,19.41-.66,38.81-.72,58.22,0,2.03,1.83,4.07,2.81,6.11,.52-3.98,1.04-7.95,1.56-11.93Z"/><path class="ca" d="M245.11,30.71c-.5-3.24-1-6.48-1.49-9.72,1.25,0,2.49-.01,3.74-.02,1.34,2.13,2.67,4.27,4.01,6.4-2.08,1.11-4.17,2.23-6.25,3.34Z"/><path class="r" d="M236.07,19.46c-.57,2.38-.57,5.14-1.87,7.02-1.33,1.92-3.91,2.98-6.02,4.28-.05,.03-1.67-1.87-1.49-2.15,2.27-3.38,4.74-6.62,7.16-9.9,.75-.24,1.5-.48,2.25-.72-.01,.49-.02,.99-.03,1.48Z"/><path class="ba" d="M240.43,41.18l.03,4.51h-2.1c4.42-2.6-10.04-20.31,9-11.24h0c1.83-.56,3.66-1.12,5.95-1.82,0,1.04,0,3.35,0,5.65-3.76-1.1-7.51-2.25-11.32-3.13-.14-.03-.86,2.46-1.31,3.78l-.24,2.25Z"/><path class="ca" d="M261.6,18.72c1.06,2.63,3.03,5.32,2.86,7.87-.1,1.59-3.41,2.98-5.28,4.46-.45-2.37-.9-4.73-1.34-7.1,1.25-1.74,2.51-3.49,3.76-5.23Z"/><path class="dg" d="M245.11,30.71c2.08-1.11,4.17-2.23,6.25-3.34-1.34-2.13-2.67-4.27-4.01-6.4,1.94,.42,3.89,.84,5.83,1.26-1.94,4.07-3.88,8.15-5.83,12.22h0c-.25-.74-.5-1.49-.76-2.24-.5-.5-1-1-1.5-1.51Z"/><path class="ak" d="M240.67,38.93c.45-1.32,1.18-3.81,1.31-3.78,3.81,.89,7.56,2.03,11.32,3.13-1.48,2.1-2.96,4.19-4.44,6.29,1.21-.54,2.42-1.08,3.63-1.61-2.66-2.13-5.21-4.46-8.09-6.23-.58-.35-2.45,1.41-3.73,2.2Z"/><path class="ax" d="M155.9,29.96c.5,1.5,1,2.99,1.5,4.49-.27,3.28-.53,6.56-.8,9.83-.37-2.77-.74-5.53-1.93-14.52-6.77,8.41-10.69,13.29-14.61,18.16-.47,3.34-1.06,6.67-1.38,10.02-1.3,13.4-2.52,26.82-3.76,40.22,0-.25,0-.5,0-.74-.5-10.24-.99-20.48-1.49-30.72l-.02-.77v-17.98c0-3.5,0-6.99,0-10.49,0-2.5,0-5,0-7.5,.12-.47,.24-.94,.36-1.41,.37,.79,1.04,1.57,1.06,2.36,.09,5.32,.05,10.64,.05,15.73,1.81-5.73,3.55-11.2,5.28-16.67,3.75,1.82,7.44,3.79,11.32,5.26,.44,.17,1.93-2.44,2.94-3.77h0l1.48-1.51Z"/><path class="eg" d="M156.62,216.64c-.75,.98-1.5,1.96-2.24,2.93-1.24-4.99-2.48-9.97-3.72-14.96h0c-3.75,.5-7.5,1-11.24,1.5,.24-19.49,.48-38.98,.72-58.47,.02-5.24,.05-10.48,.07-15.72,.25,0,.49-.02,.74-.02,.22,20.92,.09,41.86,1.05,62.75,.13,2.85,5.7,5.44,8.76,8.16,1.72-2.9,3.44-5.8,5.16-8.69-.05-47.73-.09-95.46-.14-143.19,.06-1.49,.13-2.99,.19-4.48,.19,.01,.38,.02,.57,.04l.2,7.52c0,22.21,0,44.42,0,66.62-.02,31.49-.03,62.98-.05,94.47l-.06,1.56Z"/><path class="bp" d="M160.41,51.7c1.8,4.01,3.6,8.02,5.93,13.2,1.67-4.49,2.73-7.35,3.8-10.21,0,7,.01,14,.02,20.99v7.49c-.67,1.03-1.39,2.03-1.99,3.09-1.41,2.5-2.76,5.02-4.14,7.54-.72-2.59-1.72-5.15-2.1-7.79-.7-4.92-1.03-9.88-1.52-14.83,0-6.49,0-12.99,0-19.48Z"/><path class="by" d="M160.41,71.18c.49,4.95,.82,9.92,1.52,14.83,.38,2.64,1.38,5.19,2.1,7.79,1.38-2.51,2.73-5.04,4.14-7.54,.6-1.06,1.31-2.06,1.98-3.09,0,7.25,0,14.5,.01,21.75,0,4.75,0,9.49-.01,14.24-1.1,1.28-2.21,2.57-4.38,5.09-1.9-8.44-3.63-16.13-5.36-23.83,0-7.99,0-15.99-.01-23.98,0-1.75,0-3.5,.01-5.26Z"/><path class="dq" d="M133.41,29.96c0,2.5,0,5,0,7.5-1.32,3.74-2.65,7.48-3.97,11.22-1.08-3.07-2.05-6.18-3.32-9.17-.37-.88-1.6-1.39-2.44-2.07-.75-2.75-1.51-5.5-2.26-8.24,2-2.76,3.99-5.52,5.99-8.28-.81,1.39-2.49,2.98-2.24,4.13,.56,2.51,2.12,4.8,3.27,7.17l4.22-12c.5,.75,1,1.49,1.5,2.24-.25,2.5-.5,4.99-.74,7.49Z"/><path class="n" d="M158.16,122.16l.74-8.24v-11c.77,6.45,1.13,9.48,1.49,12.51l.02,29.22c0,3,0,6.01-.01,9.01-.5,13.74-1,27.48-1.49,41.22l-1.5,20.98c0-.25,0-.49,0-.74,0-15.25,0-30.5,.01-45.75,.25-15.73,.5-31.47,.74-47.2Z"/><path class="h" d="M121.41,29.21c.75,2.75,1.51,5.5,2.26,8.24,.25,8,.5,15.99,.75,23.99,0,2.25,0,4.5,0,6.75-.25,0-.5,0-.74,0,0-8.48,0-16.96,0-25.43h-2.99v53.15c-.25-6.24-.49-12.47-.74-18.71l-.09-9.69c-.17-7-.34-14-.51-21l-.31-2.31c.07-.24,.14-.48,.21-.71,.72-4.75,1.44-9.51,2.17-14.26Z"/><path class="ee" d="M155.9,29.96c-.49,.5-.99,1.01-1.48,1.51-.16-3.19-.31-6.37-.47-9.56-3.07,.62-6.34,.82-9.04,2.17-.6,.3,.01,5.81,1.49,6.81,1.93,1.3,5.28,.48,8.02,.58-1,1.32-2.5,3.93-2.94,3.77-3.88-1.47-7.57-3.44-11.32-5.26-1-2.5-1.99-5-2.99-7.51,3.56-.5,7.74-2.38,10.53-1.14,3.35,1.49,5.52,5.63,8.2,8.63Z"/><path class="bj" d="M160.39,115.42c-.36-3.03-.72-6.06-1.49-12.51v11c0-19.02,0-38.05,0-63.65,.75,13.11,1.12,19.64,1.5,26.18,0,7.99,0,15.99,.01,23.98,0,5-.01,10-.02,15Z"/><path class="ek" d="M132.65,20.23l-4.22,12c-1.15-2.38-2.7-4.67-3.27-7.17-.26-1.15,1.43-2.74,2.24-4.13,1.75-.23,3.5-.46,5.25-.7Z"/><path class="cy" d="M157.41,169.36c0,15.25,0,30.5-.01,45.75-.24,0-.48-.02-.72-.03,.02-31.49,.03-62.98,.05-94.47,.23,1.76,.45,3.52,.67,5.28,0,14.49,0,28.97,0,43.46Z"/><path class="h" d="M137.16,22.46c1,2.5,1.99,5,2.99,7.51-1.73,5.47-3.47,10.94-5.28,16.67,0-5.08,.05-10.41-.05-15.73-.01-.79-.69-1.57-1.06-2.36-.12,.47-.24,.94-.36,1.41,.25-2.5,.5-4.99,.74-7.49,1,0,2.01,0,3.01,0Z"/><path class="v" d="M146.91,15.73c3.5,0,7,0,10.49-.01-4.01,1.98-8.03,3.95-16.77,8.26,4.42-5.81,5.35-7.03,6.28-8.25Z"/><path class="cq" d="M157.41,169.36c0-14.49,0-28.97,0-43.46,.25-1.25,.5-2.5,.75-3.74-.25,15.73-.5,31.47-.74,47.2Z"/><path class="h" d="M156.73,53.99c-.07-2.51-.13-5.01-.2-7.52,.02-.73,.04-1.46,.06-2.19,.27-3.28,.53-6.56,.8-9.83v27.45c0,.12-.33-3.89-.67-7.91Z"/><path class="cm" d="M115.42,20.22c-1.76-.32-3.53-.62-5.27-1.04-.1-.02-.07-1.54,.1-1.58,2.02-.53,4.09-.91,7.52-1.62-1.27,2.28-1.81,3.26-2.36,4.24h0Z"/><path class="q" d="M116.93,34.46c.73,.77,1.46,1.54,2.19,2.31-1.23,.98-2.46,1.96-3.7,2.94-2.5-.75-5-1.51-7.5-2.26l9-2.98h0Z"/><path class="eh" d="M115.43,39.71c1.23-.98,2.46-1.96,3.7-2.94,.04,2.23,.08,4.47,.12,6.7-.07,.24-.14,.48-.21,.71-3.71-1.48-7.43-2.97-11.14-4.45,2.51-.01,5.02-.02,7.53-.03Z"/><path class="ai" d="M63.68,51.74c4.75,2.49,9.5,4.97,14.26,7.46l.77,76.43c-2.93,5.16-5.85,10.31-9.23,16.27v-38.06l-2.02,.05v27.76l-3.77-89.91Z"/><path class="ac" d="M67.45,141.65v-27.76l2.02-.05v38.06c3.38-5.95,6.31-11.11,9.23-16.27,.23,.03,.46,.07,.69,.1,.51,22.72,1.02,45.43,1.53,68.15-.25-1.75-.5-3.49-.75-5.24-.3-3.56-.59-7.12-1.29-15.5-.89,7.37-1.19,9.86-1.32,10.94-2.31-2.17-4.71-4.43-7.11-6.69l-.87-10.15-1.39,.03c0,2.13,0,4.26,0,6.4-.24-14-.49-28-.73-42Z"/><path class="eg" d="M80.17,198.63c.25,1.75,.5,3.49,.75,5.24,.01,1,.03,1.99,.04,2.99-2.97-.04-5.95-.09-8.92-.13l1.15,4.06c2.6-1.32,5.19-2.64,7.79-3.96,.5-5.99,.99-11.98,1.49-17.97,.24,11.25,.48,22.5,.72,33.75-2.52,3.89-5.04,7.77-7.55,11.66-1.21-1.17-2.42-2.35-3.63-3.52,2.3,.32,4.6,.63,6.9,.95,.2-3.59,1.3-7.46,.3-10.67-.75-2.4-4.21-3.95-6.47-5.88-.27-.02-.54-.05-.81-.07-.48-3.98-.97-7.97-1.45-11.95,3.24-1.49,6.48-2.99,9.71-4.48Z"/><path class="dx" d="M72.72,215.14c2.26,1.93,5.72,3.48,6.47,5.88,1,3.21-.1,7.08-.3,10.67-2.3-.32-4.6-.63-6.9-.95-.28-1.46-.56-2.92-.84-4.38,2.51-.02,5.02-.04,7.53-.06-1.08-2.47-1.86-5.18-3.48-7.23-.37-.47-3.61,1.32-5.54,2.07-.76-.3-1.52-.61-2.28-.91-.21-.44-.42-.87-.64-1.31,1.99-1.26,3.98-2.52,5.97-3.78Z"/><path class="ar" d="M70.46,203.12c.48,3.98,.97,7.97,1.45,11.95-1.24-3.87-3.19-7.67-3.55-11.62-.6-6.55-.17-13.2-.18-19.8,0-2.13,0-4.26,0-6.39l1.39-.03c.29,3.38,.58,6.77,.87,10.15,0,5.25,0,10.49,0,15.74Z"/><path class="dy" d="M66.75,218.92c.21,.44,.42,.88,.64,1.31,.74,3,1.49,6,2.23,9-.93-.47-1.86-.94-2.79-1.4-.99-2.24-1.98-4.48-2.97-6.72,.96-.73,1.92-1.46,2.89-2.19Z"/><path class="em" d="M170.15,75.68c0-7-.01-14-.02-20.99,0-2.25,0-4.49,.01-6.74,2-6,3.99-11.99,5.99-17.99,4.5,.25,8.99,.49,13.49,.74,.49,1.77,.98,3.53,1.47,5.3-2.9,.35-5.95,.29-8.67,1.19-2.29,.75-4.2,2.63-6.28,4.01l-.1,8.2c-.47,3.51-.94,7.02-1.4,10.54l-4.49,15.74Z"/><path class="av" d="M116.93,34.46c-3,.99-6,1.99-9,2.99-1.72-.79-3.43-1.57-5.15-2.36-.52,1.32-1.46,2.62-1.51,3.96-.6,16.71-1.08,33.42-1.58,50.13-1,2.75-1.99,5.49-2.99,8.24v-17.77h-1.5v16.28c-.25,4.75-.5,9.49-.75,14.24l-1.5-14.24c.25-12.49,.5-24.99,.74-37.48,0-7.75,0-15.49,0-23.24v-6.96l1.82-.09v28.42l2.61,.06v-24.54c7.02,.88,12.92,1.63,18.82,2.37Z"/><path class="dg" d="M93.68,35.2c0,7.75,0,15.49,0,23.24-2.99-6.25-5.99-12.49-8.98-18.74-.25-4.74-.49-9.48-.74-14.23,.24,0,.48-.01,.73-.02l3.05,8.35,3.7-14.34c.75,5.25,1.5,10.5,2.25,15.75Z"/><path class="bx" d="M104.51,21.28c4.04,1.53,8.91,3.38,13.79,5.22-1.9,2.4-4.93,7.12-5.51,6.84-4.63-2.27-8.8-5.49-13.12-8.42,.87-.66,1.75-1.31,4.84-3.64Z"/><path class="bj" d="M84.68,25.45c-.24,0-.48,.01-.73,.02-1.26,3.5-2.52,6.99-3.78,10.49-.74-.25-1.49-.49-2.23-.74,.75-2.5,1.5-5,2.25-7.5-1.62-3.31-3.24-6.61-4.86-9.92l-4.51,2.49c.38-1.26,.77-2.52,1.15-3.78,6.48-.01,12.96-.02,19.44-.03-2.23,2.5-4.46,5-6.69,7.5-.02,.49-.03,.98-.05,1.47Z"/><path class="r" d="M84.68,25.45c.02-.49,.03-.98,.05-1.47,2.23-1.51,4.47-3.02,6.7-4.52-1.23,4.78-2.47,9.56-3.7,14.34l-3.05-8.35Z"/><path class="at" d="M79.3,55.28c-5.61-2.49-11.22-4.98-16.83-7.47,.87-1.56,1.77-4.48,2.59-4.46,3.54,.09,7.07,.97,10.57,1.71,1.3,.27,2.51,.95,3.76,1.45,0,.23,0,.46,.04,.68-.04,2.69-.09,5.38-.13,8.08Z"/><path class="d" d="M79.43,47.2c-.03-.23-.05-.45-.04-.68-3.1-1.74-6.84-2.88-9.16-5.35-3.24-3.46-5.42-7.91-8.06-11.93,.21,.02,.42,.05,.62,.09,.48,3.48,.96,6.95,1.44,10.43,.56-.52,1.12-1.04,1.68-1.57,.75,.01,1.49,.02,2.24,.03,3.26-1,6.52-2,9.78-3,.74,.25,1.49,.49,2.23,.74-.03,3.78-.05,7.56-.08,11.33-.22-.03-.44-.06-.67-.09Z"/><path class="as" d="M221.13,195.62c-.02-2.51-.04-5.03-.06-7.54,.25-19.98,.49-39.96,.74-59.95,.24-13.99,.49-27.98,.73-41.96l.78-.02-.61,39.59v40.07h1.4v-43.65c0-1.5,.01-3,.02-4.49,.5,3.25,1,6.5,1.5,9.74v26.23c0,7.23-.3,14.48,.11,21.68,.27,4.81,1.58,9.55,2.42,14.33,1.91-4.01,3.81-8.01,5.72-12.02,0,4,0,8,0,11.99l-.77,14.97-4.83,4.51c-1.08-2.29-3.01-4.55-3.11-6.88-.36-9.16-.15-18.35-.15-27.53h-1.32c-.4,7.84-.8,15.68-1.23,24.23-.62-1.55-.97-2.43-1.33-3.31Z"/><path class="k" d="M221.81,128.14c-.25,19.98-.49,39.96-.74,59.95-3.99-2.38-11.27-4.57-11.43-7.18-1.02-17.03-.5-34.15-.48-51.24,.21-27.33,.36-54.66,.73-81.98,.03-2.57,1.41-5.12,2.17-7.67,3.37,1.38,6.74,2.77,10.11,4.15l-.36,.03c-3.72,1.75-7.45,3.49-11.17,5.24,.5,9,.99,18.01,1.49,27.01h0c-.25,17.74-.5,35.48-.75,53.22,0,10.74,0,21.48,0,32.23,2.03,7.49,4.06,14.98,6.09,22.48,.69,.74,1.37,1.48,4.35,4.68v-60.9Z"/><path class="bn" d="M207.63,179.88c0,3,0,5.99,0,8.99-.49,3.75-.99,7.49-1.48,11.24-1,3.75-2,7.51-3,11.26,0-4.75,0-9.5-.01-14.25,0-7.74,0-15.49,.01-23.23,.77,1.08,1.54,2.16,2.45,3.42,.71-7.16,1.38-13.91,2.04-20.66v23.24Z"/><path class="bb" d="M207.62,156.64c-.67,6.75-1.34,13.5-2.04,20.66-.9-1.26-1.67-2.34-2.45-3.42,0-.75-.02-1.51-.02-2.26,0-4.49,.02-8.98,.03-13.47,1-4.84,2.48-9.65,2.91-14.54,1.03-11.87,1.56-23.79,2.3-35.68,.02,7.25,.05,14.5,.07,21.75-.03,6.73-.06,13.45-.08,20.18-.24,2.26-.47,4.53-.71,6.79Z"/><path class="eg" d="M208.42,129.67c-.02-7.25-.05-14.5-.07-21.75,.02-5.24,.03-10.49,.05-15.73,.23-9.75,.47-19.5,.7-29.25-.27-4.01-.54-8.02-.8-12.03,.29-3.48,.59-6.95,.88-10.43,4.48-.51,8.96-1.01,13.44-1.52h0c-.15,1.73-.29,3.46-.44,5.19-3.37-1.38-6.74-2.77-10.11-4.15-.75,2.56-2.13,5.11-2.17,7.67-.37,27.33-.52,54.66-.73,81.98-.25,0-.5,0-.75,0Z"/><path class="co" d="M221.13,195.62c.35,.88,.71,1.76,1.33,3.31,.43-8.56,.83-16.4,1.23-24.24h1.32c0,9.19-.21,18.37,.15,27.54,.09,2.33,2.02,4.59,3.11,6.88,1.61-1.5,3.22-3.01,4.83-4.51,0,1.01,.02,2.02,.03,3.02-.01,1.74-.02,3.48-.03,5.22-2.73-.75-5.46-1.5-8.2-2.24-.12-1.05-.23-2.1-.36-3.19-1.3,.37-2.36,.67-3.43,.97h0c0-4.25,0-8.5,.01-12.75Z"/><path class="df" d="M203.13,211.37c1-3.75,2-7.51,3-11.26,2.5-2.49,5-4.98,7.5-7.47,1.75,3,3.49,5.99,5.24,8.99-.49-.26-.97-.51-1.46-.77-1.27-1.74-2.53-3.49-3.8-5.23-1.16,2.07-3.28,4.21-3.13,6.18,.1,1.28,3.4,2.65,5.47,3.25,.59,.17,1.92-2.21,2.91-3.43-1.44,2.03-2.62,4.34-4.38,6.04-2.57,2.47-5.57,4.49-8.39,6.71-.99,.5-1.98,1-2.97,1.51,0-1.5,0-3,0-4.5Z"/><path class="bi" d="M221.16,210.61c-1.5,.96-3.01,1.93-4.51,2.89-2.6-.61-5.2-1.22-9.96-2.33,5.59-1.09,10.01-1.95,14.42-2.81h0c.02,.75,.03,1.49,.05,2.24Z"/><path class="eg" d="M213.63,192.63c-2.5,2.49-5,4.98-7.5,7.47,.49-3.75,.99-7.49,1.48-11.24,2.01,1.26,4.01,2.51,6.02,3.77Z"/><path class="eg" d="M207.62,156.64c.24-2.26,.47-4.53,.71-6.79-.24,10.01-.47,20.02-.71,30.03v-23.24Z"/><path class="aw" d="M290.83,155.89c0,2.25,0,4.5,0,6.75-.5,10.74-1,21.49-1.51,32.23-1.07-1.76-2.14-3.52-3.39-5.56-.61,.78-1.7,2.16-3.36,4.26v-24.94c1.35,.79,2.7,1.58,4.04,2.36,.42-1.46,.85-2.91,1.25-4.37,.99-3.58,1.96-7.16,2.95-10.74Z"/><path class="x" d="M282.59,168.63v24.94c1.66-2.1,2.75-3.48,3.36-4.26,1.24,2.04,2.32,3.8,3.39,5.56-.27,3.48-.53,6.95-.8,10.43-3.23-2.73-6.45-5.46-9.68-8.19l-.11,.07c0-.5,0-1,0-1.51-.22-2.52-.44-5.04-.66-7.56,.05-1.46,.1-2.92,.14-4.38,.39,1.01,.78,2.03,1.46,3.78,1-16.92,1.95-32.9,2.89-48.87v.75c0,9.5,0,18.99,0,28.49v.75Z"/><path class="di" d="M293.82,185.89c-.25,2.48-.5,4.97-.75,7.45-.32-2.77-.64-5.53-.96-8.3,.57,.28,1.14,.56,1.7,.85Z"/><path class="b`" d="M282.59,168.63v-.75c0-9.5,0-18.99,0-28.49v-.75l1.5-19.5c.57,1.02,1.14,2.04,2.89,5.15,.67-7.22,1.15-12.32,1.72-18.44,1.38,2.42,2.12,3.73,2.87,5.04,0,1.76,.02,3.52,.03,5.28,0,3.99,0,7.98,0,11.97-.26,9.25-.51,18.5-.77,27.75-.98,3.58-1.96,7.16-2.95,10.74-.4,1.46-.83,2.91-1.25,4.37-1.35-.79-2.7-1.58-4.04-2.36Z"/><path class="al" d="M291.6,128.15c0-3.99,0-7.98,0-11.97,1.25-21.24,2.51-42.47,3.76-63.71l1.51,.03v28.45c-.5,16-1.01,32-1.51,48.01,0-4.65,0-9.29,0-13.94l-1.46-.18c-.77,4.43-1.53,8.87-2.3,13.3Z"/><path class="eb" d="M80.19,236.86c-1.49,.72-2.99,1.44-4.48,2.16-2.28-.49-4.57-.97-6.85-1.46,.29-1.21,.58-2.42,.87-3.63,.29-.68,.57-1.35,1.03-2.44,.45,1.74,.81,3.16,1.18,4.58,2.75,.26,5.5,.53,8.26,.79Z"/><path class="f" d="M69.73,233.94c-.29,1.21-.58,2.42-.87,3.63-.68-3.25-1.35-6.49-2.03-9.74,.93,.47,1.86,.94,2.79,1.4,.04,1.57,.07,3.14,.11,4.7Z"/><path class="g" d="M291.57,110.9c-.75-1.31-1.49-2.62-2.87-5.04-.57,6.12-1.05,11.22-1.72,18.44-1.75-3.11-2.32-4.13-2.89-5.15,0-1.74,0-3.49-.01-5.24l.76-48.73c.42,1.58,.85,3.16,1.27,4.74l3.96,.19c1.25-15.39,2.5-30.77,3.75-46.16,.75-.49,1.5-.99,2.25-1.48,0,.26,0,.52,0,.78-1.5,29.21-3,58.43-4.5,87.64Z"/><path class="n" d="M291.57,110.9c1.5-29.21,3-58.43,4.5-87.64,.99,2.24,1.99,4.48,2.98,6.73-.26,2.23-.51,4.46-.77,6.69-.47,14.76-.94,29.52-1.42,44.29,0-9.48,0-18.97,0-28.45l-1.51-.03c-1.25,21.24-2.51,42.47-3.76,63.71,0-1.76-.02-3.52-.03-5.28Z"/><path class="al" d="M298.29,36.67c.26-2.23,.51-4.46,.77-6.69-.26,2.23-.51,4.46-.77,6.69Z"/><path class="ao" d="M248.05,182.96l2.27-.08c.02,5.99,.04,11.98,.06,17.97,0,1-.01,2-.02,3-.52-.03-1.04-.06-1.55-.09-3.49-.22-6.99-.44-10.48-.66,3.01-.75,6.01-1.5,9.02-2.25h0c-2.56-4.02-5.3-7.94-7.62-12.09-1.11-1.99-1.44-4.41-2.13-6.64,0-4.75,0-9.5,.01-14.25,.51-18.49,1.02-36.97,1.53-55.46,.24,0,.47,0,.71,0-.33,21.83-.87,43.67-.73,65.5,.02,2.74,3.68,5.46,5.65,8.19,1.09-1.05,2.18-2.1,3.27-3.15Z"/><path class="ds" d="M237.61,167.88c0,4.75,0,9.5-.01,14.25-.8,8.49-1.6,16.98-2.43,25.79-.36-.05-1.2-.17-2.05-.3,0-1.01-.02-2.02-.03-3.02,.26-4.99,.51-9.98,.77-14.97,1.25-7.25,2.5-14.49,3.75-21.74Z"/><path class="cy" d="M246.62,192.62c.24,2.75,.49,5.49,.73,8.24h0c-2.36-2.05-5.08-3.84-6.83-6.32-.43-.62,2.3-3.46,3.57-5.28,.84,1.12,1.68,2.24,2.52,3.36-1.43,.86-2.85,1.71-4.28,2.57l2.41,3.18c.62-1.92,1.25-3.83,1.87-5.75Z"/><path class="eb" d="M238.33,203.11c3.49,.22,6.99,.44,10.48,.66-1.24,1.29-2.47,2.57-3.71,3.86-2.26-1.51-4.51-3.01-6.77-4.52Z"/><path class="co" d="M83.18,222.61c-.24-11.25-.48-22.5-.72-33.75-.26-14.24-.51-28.47-.77-42.71,.6,12.29,1.21,24.58,1.5,30.55V110.17h1.49c0,.24,.01,.49,.02,.73v3c.5,17.99,1.01,35.98,1.51,53.97l.71,10.5v28.48l-1.17-24.01-.81,.04v46.67c-.98-2.67-1.36-3.69-1.74-4.72l-.02-2.23Z"/><path class="bb" d="M102.63,234.61c-2,2.74-3.99,5.48-5.99,8.22-2.99-2.99-5.97-5.99-8.96-8.98,0-.75,0-1.5,.01-2.25,2.53,2.1,5.05,4.2,7.58,6.3,.44-1.06,1.24-2.12,1.25-3.18,.13-9.78,.13-19.57,.16-29.35,.23-3.19,.47-6.37,.7-9.56l1.47-.02v22.18c2.1-2.39,2.96-3.37,3.82-4.36,.25,4.5,.5,9,.75,13.5-.27,2.5-.53,5-.8,7.5Z"/><path class="do" d="M87.68,231.6c0,.75,0,1.5-.01,2.25-1.49-3-2.98-6.01-4.48-9.01,.38,1.03,.76,2.06,1.74,4.72v-46.67l.81-.04c.39,8,.79,16.01,1.18,24.01,.25,8.25,.5,16.49,.75,24.74Z"/><path class="bc" d="M69.67,221.15c1.92-.75,5.16-2.54,5.54-2.07,1.62,2.05,2.39,4.76,3.48,7.23-2.51,.02-5.02,.04-7.53,.06-.5-1.74-.99-3.48-1.49-5.21Z"/><path class="r" d="M213.63,20.97c2.75,2.5,5.5,4.99,8.25,7.49-2.49,.86-4.99,1.73-7.48,2.59-.25-3.36-.51-6.72-.76-10.08Z"/><path class="cu" d="M204.63,21.71c.76-1.25,1.51-2.5,2.27-3.75,7.04-.71,14.09-1.41,21.13-2.12l.36,2.42c-5.17,.89-10.35,1.78-15.52,2.68-1.98,.27-3.97,.53-5.95,.8l-2.28-.03Z"/><path class="ea" d="M206.91,21.74c1.98-.27,3.97-.53,5.95-.8,.25,0,.51,.02,.76,.02,.25,3.36,.51,6.72,.76,10.08,2.49-.86,4.99-1.73,7.48-2.59,.25,.75,.5,1.5,.74,2.25-.24,.5-.49,.99-.73,1.49-2.76,.5-5.52,1.01-8.27,1.51-.23-.02-.47-.04-.7-.06-1.51-1.73-3.02-3.46-4.53-5.19l-1.46-6.71Z"/><path class="r" d="M67.42,29.23c.41-2.23,.34-6.1,1.32-6.39,3.15-.93,6.71-.7,10.06-.4,.37,.03,.43,3.43,.64,5.27-1,2.49-2,4.99-3,7.48-2.99-1.75-5.98-3.49-8.97-5.24-.02-.24-.03-.48-.05-.72Z"/><path class="ej" d="M76.44,35.19c1-2.49,2-4.99,3-7.48,.25,0,.51,0,.76,0-.75,2.5-1.5,5-2.25,7.5-3.26,1-6.52,2-9.78,3,.01-.76,.02-1.51,.03-2.27l8.24-.76Z"/><path class="n" d="M68.19,35.96c0,.76-.02,1.51-.03,2.27-.75-.01-1.49-.02-2.24-.03,.5-2.99,1-5.97,1.5-8.96,.02,.24,.03,.48,.05,.72,.24,2,.48,4,.73,6Z"/><path class="cg" d="M263.11,199.37c-.5,1.25-.99,2.5-1.49,3.76h-.05c.26-8.75,.52-17.5,.78-26.24l1.52-35.97c1.22-5.76,2.44-11.52,3.65-17.28,.05,4.04,.09,8.07,.14,12.11l-.08,1.42c-.5,10.25-.99,20.49-1.49,30.74-.75,9.49-1.5,18.99-2.25,28.48-.24,1-.49,2-.73,3Z"/><path class="eg" d="M266.09,167.88c.5-10.25,.99-20.49,1.49-30.74-.2,8.2-1.03,16.45-.44,24.59,.62,8.52-6.29,21.44,10.91,21.9l.19,.1c-.05,1.46-.1,2.92-.14,4.38-.76,.25-1.52,.5-2.28,.76-.5-1.73-1-3.47-1.5-5.2l-8.23-.05c0-5.25,0-10.5,0-15.74Z"/><path class="dc" d="M266.09,167.88c0,5.25,0,10.5,0,15.74-.75,4.25-1.5,8.49-2.25,12.74,.75-9.49,1.5-18.99,2.25-28.48Z"/><path class="al" d="M274.33,183.67c.5,1.73,1,3.47,1.5,5.2-.24,1-.48,2-.72,3-.92-1.56-1.83-3.11-2.75-4.67l-1.29,3.43c1.35,.41,2.69,.83,4.04,1.24l-2.24,4.16c-1.64-2.07-5-4.68-4.56-6.09,.78-2.48,3.89-4.22,6.02-6.27Z"/><path class="dl" d="M278.76,195.68c0,.5,0,1,0,1.51-4.17,1.65-8.35,3.29-12.52,4.94,.19-1.59,.09-4.42,.63-4.55,3.89-.94,7.91-1.33,11.9-1.89Z"/><path class="be" d="M191.1,36c-.49-1.77-.98-3.53-1.47-5.3-2.75-3.25-5.5-6.5-8.24-9.74,5.5-.5,11-1,16.5-1.49v.75c-1,1.5-2,3-3,4.49v15.75l-2.25,39.72c-.49-1-.99-2-1.48-3l-.02-14.23c0-5.49,.01-10.98,.02-16.48-.01-3.49-.03-6.98-.04-10.48Z"/><path class="ee" d="M181.38,20.96c2.75,3.25,5.5,6.5,8.24,9.74-4.5-.25-8.99-.49-13.49-.74,0-.5,0-.99,0-1.49,3.74,.9,7.46,2.12,11.25,2.37,.62,.04,1.52-4.23,2.29-6.51-3.51-.87-7.01-1.74-10.52-2.61,0-.25,0-.49,.01-.74,.74,0,1.48-.02,2.22-.03Z"/><path class="by" d="M293.83,23.95c-1.25,15.39-2.5,30.77-3.75,46.16l-3.96-.19c-.42-1.58-.85-3.16-1.27-4.74,0-3.5,0-6.99-.01-10.49l.76-6.75c1.5-6,3-11.99,4.5-17.99,1.25-2,2.49-4,3.74-6.01Z"/><path class="cu" d="M265.34,51.69c.25-10.49,.51-20.98,.76-31.47,2.75,0,5.5,0,8.25,0-1.75,1.86-3.5,3.71-5.25,5.57,2.86,2.2,5.72,4.4,8.58,6.6,1.3-3.04,2.6-6.09,3.9-9.13-2.41-1.01-4.82-2.03-7.23-3.04-.75-1.25-1.51-2.5-2.26-3.75,6.74,0,13.48,0,20.22,0-2.49,3.74-4.99,7.49-7.48,11.23-.5,1.5-1,3-1.5,4.5h0c-.26,.25-.53,.51-.79,.77-3.21-.17-6.44-.25-9.63-.57-1.42-.14-2.78-.8-4.17-1.23-.14,1.59-.27,3.18-.41,4.77-1,5.5-1.99,11-2.99,16.5l-.02-.77Z"/><path class="bp" d="M283.34,32.21c.5-1.5,1-3,1.5-4.5,1.75,.75,3.5,1.5,5.25,2.25-1.5,6-3,11.99-4.5,17.99-.75-5.25-1.5-10.49-2.25-15.74Z"/><path class="bg" d="M150.66,204.61c1.24,4.99,2.48,9.98,3.72,14.96-4.75,.76-9.49,1.52-14.24,2.28-.24,0-.49,0-.73,0,0-5.25,0-10.5,0-15.74,3.75-.5,7.5-1,11.24-1.5-.24,.02-.48,.04-.73,.05l-8.79,8.66c1.67,1.1,3.34,2.2,5.01,3.3,1.88,.56,3.76,1.11,5.64,1.67l1.1-8.39v-.02l-2.23-5.26Z"/><path class="cp" d="M156.68,215.09c.24,.01,.48,.02,.72,.03,0,.25,0,.49,0,.74,2,3,3.99,6.01,5.99,9.01h0c2,1.74,4,3.48,5.99,5.22-.5,.76-1.01,1.52-1.51,2.29-3.75-5.24-7.5-10.48-11.25-15.73,.02-.52,.04-1.04,.06-1.56Z"/><path class="ek" d="M179.15,21.72c3.51,.87,7.01,1.74,10.52,2.61-.77,2.28-1.67,6.55-2.29,6.51-3.78-.24-7.51-1.47-11.25-2.37,1.01-2.25,2.01-4.5,3.02-6.75Z"/><path class="ab" d="M203.13,211.37c0,1.5,0,3,0,4.5-.62,2.02-1.25,4.05-1.87,6.07-1.87-1.28-3.74-2.56-5.62-3.84,0-.99-.02-1.98-.03-2.97,2.25-1.94,5.66-3.48,6.49-5.9,1.27-3.72,.76-8.05,1.01-12.12,0,4.75,0,9.5,.01,14.25Z"/><path class="dc" d="M195.62,215.13c0,.99,.02,1.98,.03,2.97-1.75-1.75-3.5-3.5-5.25-5.25h0c-.02-4.75-.03-9.5-.05-14.25,.02,2.5,.03,5.01,.04,7.51,1.49,2.75,2.99,5.5,4.48,8.26l.75,.76Z"/><path class="ar" d="M190.4,214.35c-.51,.24-1.02,.48-1.53,.73-4.46,.54-8.91,1.07-13.37,1.61l-.14-.11c5.01-1.24,10.02-2.48,15.03-3.72h0c0,.5,0,1,0,1.5Z"/><path class="x" d="M174.64,197.12c-1.74,9.25-3.49,18.49-5.23,27.74-2.01,0-4.01,0-6.02,0h0c0-.26,.01-.52,.02-.78,1.77-1.54,4.99-3.01,5.08-4.64,.85-16.17,1.18-32.36,1.66-48.55,1.5-7,2.99-14,4.49-21l-.74,33.75c.25,4.5,.5,8.99,.74,13.49Z"/><path class="eg" d="M190.39,212.85c-5.01,1.24-10.02,2.48-15.03,3.72-.23,.02-.47,.04-.7,.06,0-1.25,0-2.5,0-3.76,1.99,0,3.98,0,5.97-.01,2.09-.1,5.97,0,6.01-.33,.36-3.36,.11-6.78,.02-10.19-.26-.28-.51-.57-.77-.85l-10.48-2.14c-.01-.75-.02-1.49-.03-2.24,0-8.75,.01-17.5,.02-26.25,0-5.49,.01-10.99,.02-16.48,.23-11.51,.47-23.01,.7-34.52v-23.23c-.01-.24-.01-.48-.01-.72,.24,0,.47,0,.71-.01,0,32.28-.01,64.57,.05,96.85,0,1.56,.55,4.47,.92,4.48,3.7,.12,7.44-.13,11.1-.68,.29-.04,.13-3.08,.18-4.72l-.26-1.4,1.54,.78c0,2.46,.01,4.93,.02,7.39,.02,4.75,.03,9.5,.05,14.25Z"/><path class="d" d="M186.65,202.35c.08,3.41,.34,6.83-.02,10.19-.03,.32-3.91,.23-6.01,.33-1.49-3-2.99-6-4.49-9,.25-.75,.5-1.5,.76-2.25,1.24,0,2.49,0,3.73-.01,.43,2.97,.74,5.97,1.41,8.88,.09,.39,2.86,.6,2.88,.52,.69-2.86,1.2-5.76,1.74-8.66Z"/><path class="dc" d="M175.38,170.88c0,8.75-.01,17.5-.02,26.25-.24,0-.48,0-.73,0-.25-4.5-.5-8.99-.74-13.49,.5-4.25,.99-8.51,1.49-12.76Z"/><path class="dc" d="M176.14,203.87c1.5,3,2.99,6,4.49,9-1.99,0-3.98,0-5.97,.01,.5-3,.99-6.01,1.49-9.01Z"/><path class="dc" d="M180.63,201.61c-1.24,0-2.49,0-3.73,.01-.5-.75-1-1.51-1.5-2.26,3.49,.71,6.99,1.43,10.48,2.14v.21l-1.49-1.59c-1.26,.5-2.51,.99-3.77,1.49Z"/><path class="cy" d="M163.39,224.86c2.01,0,4.01,0,6.02,0,.25,.5,.49,1,.73,1.5-.25,1.24-.51,2.48-.76,3.73-2-1.74-4-3.48-5.99-5.22Z"/><path class="cy" d="M139.41,206.11c0,5.25,0,10.5,0,15.74-.77,2.67-1.54,5.34-2.75,9.53-.64-2.26-.82-2.89-1-3.53,0-9.29,0-18.59,0-27.88h-.72v27.89c-.26,1.98-.53,3.96-.79,5.94,0-1.24,0-2.48,0-3.72,0-13.49,0-26.97,0-40.46,0-2.75,0-5.5,0-8.25,0-5.99,.01-11.98,.02-17.97,.75,8.55,1.51,17.09,2.61,29.65,.75-5.57,1.09-7.26,1.19-8.95,.74-12.15,1.44-24.31,2.16-36.46l-.72,58.47Z"/><path class="ef" d="M134.15,230.08c0,1.24,0,2.48,0,3.72-.25,.27-.49,.53-.74,.8-.99,0-1.97-.01-2.96-.02-1.52-1.99-3.03-3.97-4.55-5.96-.24-1.51-.48-3.02-.72-4.53,2.99,1.99,5.98,3.99,8.97,5.98Z"/><path class="a`" d="M134.93,227.86v-27.89h.72c0,9.29,0,18.58,0,27.88-.24,0-.48,0-.72,0Z"/><path class="c`" d="M120.72,227.8c-.03,.53-.06,1.06-.08,1.6-5.21,.27-10.42,.54-15.62,.81,1.47-1.31,2.94-2.62,4.42-3.93,.75,.51,1.51,1.02,2.26,1.54,.48,0,.96-.02,1.45-.02l.79,.15,2.3,.02c.22-.06,.44-.11,.66-.17,1.25-.72,2.5-1.44,3.75-2.16,.02,.23,.06,.47,.1,.7l-.02,1.48Z"/><path class="bb" d="M250.38,200.85c-.02-5.99-.04-11.98-.06-17.97,1.26-.25,2.52-.5,3.78-.75,0,1.36-.4,2.88,.08,4.05,2.34,5.7,4.91,11.3,7.39,16.93h.05c-1.26,2.01-2.51,4.01-3.77,6.01-2.49-2.76-4.98-5.51-7.47-8.27Z"/><path class="di" d="M221.16,210.61c-.02-.75-.03-1.49-.05-2.24,1.06-.3,2.13-.6,3.43-.97,.12,1.09,.24,2.14,.36,3.19,1.28,3.03,2.56,6.06,3.84,9.09-2.53-3.03-5.05-6.05-7.58-9.08Z"/><path class="bo" d="M79.43,47.2c.22,.02,.44,.05,.67,.09,.03,.23,.07,.45,.13,.68,.25,26.23,.51,52.46,.76,78.68-.4-7.79-.81-15.58-1.21-23.38h-.39v32.45c-.23-.03-.46-.06-.69-.1-.26-25.48-.51-50.96-.77-76.43,.45-1.3,.91-2.61,1.36-3.91,.04-2.69,.09-5.39,.13-8.08Z"/><path class="cy" d="M120.74,226.32c-.04-.23-.08-.46-.1-.7,.27-.52,.54-1.04,.82-1.56,.48-5.74,.96-11.47,1.45-17.21l-.72-25.46,2.22-11.25c.26,17.98,.51,35.97,.77,53.95,.24,1.51,.48,3.02,.72,4.53-1.72-.77-3.44-1.54-5.16-2.31Z"/><path class="cq" d="M274.35,20.22c-2.75,0-5.5,0-8.25,0-.99-.75-1.99-1.51-2.98-2.26,2.99-.49,5.99-.99,8.98-1.48,.75,1.25,1.51,2.5,2.26,3.75h0Z"/><path class="dr" d="M121.46,224.07c-.27,.52-.54,1.04-.82,1.56-1.25,.72-2.5,1.44-3.75,2.16-.49,.02-.97,.04-1.46,.06-.5,.03-1,.06-1.5,.09-.26-.05-.53-.1-.79-.15-.48,0-.96,.02-1.45,.02-.75-.51-1.51-1.02-2.26-1.54-.25-.97-.51-1.93-.76-2.9,.5-.26,1.01-.52,1.51-.79,1.92,.88,3.83,1.76,5.75,2.64,.36-3.55,1-7.1,.91-10.63-.02-1.02-2.12-1.98-3.27-2.97-1.39,2.16-2.77,4.32-4.16,6.47-.98-.92-1.95-1.84-4.04-3.82,.46,3.96,.75,6.52,1.05,9.09-1,1.25-1.99,2.5-2.99,3.74-.25-4.5-.5-9-.75-13.5,0-.5,0-1,0-1.5,.49-2.75,.99-5.5,1.48-8.25,4.79,3.78,9.58,7.55,15.78,12.44,.71-6.43,1.04-9.45,1.37-12.48,.04,1.01,.08,2.03,.12,3.04,.01,5.74,.02,11.47,.03,17.2Z"/><path class="dd" d="M110.18,222.6c-.5,.26-1.01,.52-1.51,.79-.75,0-1.5-.01-2.25-.02-.3-2.56-.59-5.13-1.05-9.09,2.09,1.98,3.07,2.9,4.04,3.82,.26,1.5,.51,3,.77,4.5Z"/><path class="ej" d="M206.91,21.74l1.46,6.71-1.48,22.51c0,.74-.01,1.49-.02,2.23h-2.99c0-2.99,0-5.99,0-8.99V23.22h.02c.24-.5,.49-1,.73-1.51l2.28,.03Z"/><path class="ek" d="M194.88,24.71c1-1.5,2-3,3-4.49,2,1,4.01,2,6.01,3h0c-2.53,3.58-5.06,7.16-7.58,10.75l-1.42-9.26Z"/><path class="bu" d="M175.5,216.69c4.46-.54,8.91-1.07,13.37-1.61,1.25,1.51,2.49,3.02,3.74,4.53-2.22-.02-4.45-.04-6.67-.06-3.48-.95-6.96-1.91-10.44-2.86Z"/><path class="cd" d="M227.13,69.68c2.57-4.44,5.45-8.74,7.58-13.38,1.14-2.48,.97-5.55,1.39-8.36-.25,7.75-.49,15.5-.74,23.25-.25,8.75-.5,17.49-.74,26.24h0c-2.25-1.5-4.5-3-6.75-4.5-.25-7.75-.49-15.5-.74-23.25Z"/><path class="ax" d="M227.13,69.68c.25,7.75,.49,15.5,.74,23.25-.5,2.25-1,4.5-1.5,6.75v-27.78h-2.24v45.78c0,1.5-.01,3-.02,4.49-.47,1.19-.94,2.39-1.4,3.58,.2-13.2,.41-26.39,.61-39.59,.07-8.5,.15-17.01,.22-25.51,.83-8.83,1.66-17.65,2.49-26.48l1.1-.05v35.57Z"/><path class="em" d="M246.61,32.21c.25,.75,.5,1.49,.76,2.24-19.03-9.08-4.58,8.63-9,11.25,0,.25,0,.5,0,.75-.74-1.24-1.49-2.49-2.23-3.73V22.32c3.98,3.76,7.23,6.83,10.48,9.89Z"/><path class="ba" d="M236.13,42.72c.74,1.24,1.49,2.49,2.23,3.73-.75,9.99-1.5,19.99-2.25,29.98-.25-1.75-.5-3.49-.75-5.24,.25-7.75,.49-15.5,.74-23.25,.01-1.74,.02-3.48,.03-5.22Z"/><path class="bb" d="M212.91,33.65c.23,.02,.47,.05,.7,.07h-.02c.01,.25,.03,.5,.04,.74,.24,.25,.49,.51,.73,.76,.25,.24,.51,.48,.76,.72,.25,0,.49,.02,.74,.02v.02l3.75,1.47c.25,0,.5,0,.75-.01l.75-.74c0-.25,0-.5,0-.75l.77-1.47,.75,1.5c-.01,1-.03,1.99-.04,2.99-4.48,.51-8.96,1.01-13.44,1.52,1.25-2.28,2.49-4.56,3.74-6.84Z"/><path class="bb" d="M223.54,60.64c-.07,8.5-.15,17.01-.22,25.51-.26,0-.52,.01-.78,.02-.24-13.49-.48-26.98-.72-40.46v-1.52l.35-.03c.15-1.73,.29-3.46,.44-5.19,.31,7.22,.62,14.45,.93,21.67Z"/><path class="ej" d="M213.61,33.71c2.76-.5,5.52-1.01,8.27-1.51,0,.25-.01,.49-.02,.74v.02c-.24,.5-.5,.99-.75,1.49h0c-.25,.51-.5,1.01-.75,1.51h0c-.25,0-.5,0-.75,0h-2.25l-1.51,.02v-.02c-.24-.25-.49-.5-.74-.76h0l-.75-.75h0l-.78-.74h.02Z"/><path class="db" d="M222.64,35.98c-.25-.5-.5-1-.75-1.5l-.04-.04,.03-1.48v-.02c.25,1.01,.51,2.02,.76,3.04Z"/><path class="ax" d="M255.61,128.9c0-.5,0-1-.01-1.49,.25-8.75,.51-17.49,.76-26.24,2.75-2.5,5.49-5,8.24-7.49,0,3.75,0,7.5,0,11.25-2.99,7.99-5.99,15.99-8.98,23.98Z"/><path class="aw" d="M264.59,104.92c0-3.75,0-7.5,0-11.25,.25-7.25,.5-14.49,.75-21.74,.99-2.01,1.98-4.01,2.98-6.02,.02,4.03,.04,8.05,.05,12.08-.29,7.24-.58,14.49-.87,21.73,.02,3.48,.04,6.96,.07,10.44v1.5c-1,.5-1.99,1-2.98,1.5v-8.24Z"/><path class="q" d="M268.33,65.92c-.99,2.01-1.98,4.01-2.98,6.02,0-6.5,0-12.99,0-19.49,1-5.5,1.99-11,2.99-16.5,.25,1.72,.49,3.45,.74,5.17-.01,5.52-.02,11.03-.03,16.54-.24,2.75-.48,5.5-.73,8.25Z"/><path class="aj" d="M245.8,115.39c-.25,19.32-.4,38.65-.91,57.96-.06,2.2-2.16,4.35-3.31,6.52-.57-2.03-1.65-4.07-1.63-6.09,.41-32.05,.93-64.09,1.53-96.14,.03-1.67,.9-3.32,1.37-4.97,1,8,2,16.01,2.99,24.01,0,.5,0,.99,0,1.49-.01,5.74-.03,11.48-.04,17.22Z"/><path class="al" d="M237.61,167.88c-1.25,7.25-2.5,14.49-3.75,21.74,0-4,0-8,0-11.99,.25-11.24,.5-22.49,.75-33.73,.8-1.36,2.24-2.69,2.3-4.08,.61-14.13,1-28.27,1.45-42.4l1.44-30.71c.27,1.74,.54,3.48,.81,5.23-.27,7.22-.53,14.44-.8,21.66-.22,6.27-.44,12.55-.66,18.82-.51,18.49-1.02,36.97-1.53,55.46Z"/><path class="ec" d="M239.8,66.71l-1.44,30.71-3.73,24c0-1.5-.01-3.01-.02-4.51,0-6.49,0-12.99,0-19.48h0c.5-7,.99-14,1.49-21,.75-9.99,1.5-19.99,2.25-29.98,0-.25,0-.5,0-.75h2.1c.11,2.73,.22,5.48,.33,8.22-.33,4.26-.66,8.53-.99,12.79Z"/><path class="cr" d="M245.84,96.68c-1-8-2-16.01-2.99-24.01,0-.23,0-.46,0-.69,.26-2.26,.51-4.52,.77-6.78,.98-.27,1.95-.54,2.93-.81l-.7,32.28Z"/><path class="br" d="M246.54,64.4c-.98,.27-1.95,.54-2.93,.81,.98-3.76,1.97-7.52,2.95-11.28,0,3.49-.02,6.98-.03,10.47Z"/><path class="cr" d="M245.8,115.39c.02-5.74,.03-11.48,.04-17.22-.02,5.74-.03,11.48-.04,17.22Z"/><path class="ao" d="M239.81,93.6c.27-7.22,.53-14.44,.8-21.66-.22,10.54-.45,21.08-.67,31.62-.04-3.32-.08-6.64-.12-9.96Z"/><path class="y" d="M239.81,93.6c.04,3.32,.08,6.64,.12,9.96-.02,2.95-.05,5.91-.07,8.86-.24,0-.47,0-.71,0,.22-6.27,.44-12.55,.66-18.82Z"/><path class="dy" d="M254.86,161.14c0-.75,0-1.49-.01-2.24,.25-9,.5-17.99,.76-26.99,2.5,1.75,4.99,3.5,7.49,5.24-2.74,8-5.49,15.99-8.23,23.99Z"/><path class="du" d="M263.1,137.15c-2.5-1.75-4.99-3.5-7.49-5.24,0-1,0-2,0-3,2.99-7.99,5.99-15.99,8.98-23.98,0,2.75,0,5.49,0,8.24-.26,7.49-.51,14.98-.77,22.47l-.74,1.51Z"/><path class="y" d="M240.67,38.93c1.28-.79,3.15-2.55,3.73-2.2,2.88,1.77,5.43,4.1,8.09,6.23-4.02-.59-8.04-1.19-12.07-1.78,.08-.75,.16-1.5,.24-2.25Z"/><path class="dx" d="M263.1,137.15c.25-.5,.49-1.01,.74-1.51,.01,1.76,.02,3.51,.03,5.27-.51,11.99-1.02,23.98-1.52,35.97-3.57,1.33-7.13,2.66-8.8,3.28,1.73,3.77,1.15,2.49,.56,1.22,.25-6.75,.5-13.49,.76-20.24,2.74-8,5.49-15.99,8.23-23.99Z"/><path class="as" d="M254.1,181.38c.59,1.27,1.17,2.55-.56-1.22,1.66-.62,5.23-1.95,8.8-3.28-.26,8.75-.52,17.49-.78,26.24-2.49-5.63-5.06-11.23-7.39-16.93-.48-1.16-.07-2.69-.08-4.05,0-.25,0-.51,0-.76Z"/><path class="by" d="M123.67,68.19c.25,0,.5,0,.74,0,.26,7.35,.29,14.72,.96,22.03,.16,1.71,2.49,3.22,3.83,4.82,.96-1.64,2.6-3.22,2.75-4.93,.71-8.04,1.01-16.11,1.45-24.17,0,.26,.01,.51,.02,.77,0,10.49,0,20.98,0,31.47,0,3,0,6-.01,9-3,5-5.99,9.99-8.99,14.99-.25-8.99-.5-17.99-.75-26.98,0-9,0-17.99,0-26.99Z"/><path class="cn" d="M133.4,65.94c-.44,8.06-.74,16.13-1.45,24.17-.15,1.71-1.8,3.29-2.75,4.93-1.33-1.6-3.67-3.11-3.83-4.82-.67-7.31-.7-14.68-.96-22.03,0-2.25,0-4.5,0-6.75,.96,3.63,1.8,7.29,2.93,10.87,.39,1.22,1.49,2.22,2.27,3.31,.36-.81,.95-1.6,1.05-2.44,.96-8.4,1.84-16.82,2.74-25.23v17.98Z"/><path class="dg" d="M133.4,47.95c-.9,8.41-1.78,16.82-2.74,25.23-.1,.84-.69,1.63-1.05,2.44-.78-1.1-1.88-2.09-2.27-3.31-1.13-3.57-1.97-7.24-2.93-10.87-.25-8-.5-15.99-.75-23.99,.84,.68,2.07,1.19,2.44,2.07,1.27,2.99,2.23,6.1,3.32,9.17,1.32-3.74,2.65-7.48,3.97-11.22,0,3.5,0,6.99,0,10.49Z"/><path class="db" d="M133.41,107.17c0-3,0-6,.01-9,.5-.25,.99-.5,1.49-.75,0,.25,0,.5,0,.74,0,9.55,0,19.1,0,28.65l1.7,.06c.68-4.32,1.37-8.64,2.05-12.96,0,13.78,0,27.55,0,41.33h-2.79c-.15-3.32-.3-6.63-.45-9.94l-1.25,.03c0,6.02,0,12.05,0,18.07,0,5.99-.01,11.98-.02,17.97-.25-7.75-.5-15.49-.75-23.24v-50.97Z"/><path class="cq" d="M138.66,113.91c-.68,4.32-1.37,8.64-2.05,12.96l-1.7-.06c0-9.55,0-19.1,0-28.65,1.25-13.41,2.46-26.82,3.76-40.22,.32-3.35,.91-6.68,1.38-10.02,.03,5.01,.05,10.02,.08,15.03-.24,11.74-.49,23.48-.73,35.22-.25,5.25-.5,10.49-.74,15.74Z"/><path class="a`" d="M140.13,62.96c-.02-5.01-.05-10.02-.08-15.03,3.92-4.88,7.84-9.75,14.61-18.16,1.2,8.99,1.56,11.75,1.93,14.52-.02,.73-.04,1.46-.06,2.19-.19-.01-.38-.03-.57-.04-3.86-1.62-7.65-3.45-11.63-4.67-.72-.22-2.21,2.07-3.34,3.19,0,1.99,.01,3.98,.02,5.97l-.05,.75c0,26.74-.01,53.48-.02,80.23-.25,0-.49,.01-.74,.02-.03-12-.05-23.99-.08-35.98,0-11,0-21.99,0-32.99Z"/><path class="cq" d="M134.91,97.42c-.5,.25-.99,.5-1.49,.75,0-10.49,0-20.98,0-31.47,.5,10.24,.99,20.48,1.49,30.72Z"/><path class="eb" d="M140.95,131.91c0-26.74,.01-53.48,.02-80.23,.25,.49,.5,.98,.75,1.47,.35,42.26,.61,84.51,1.17,126.77,.08,5.75,1.63,11.47,2.5,17.21,1.25,1.49,2.51,2.98,3.76,4.47,2.26-2.5,4.51-4.99,6.77-7.49-1.72,2.9-3.44,5.8-5.16,8.69-3.05-2.71-8.63-5.31-8.76-8.16-.96-20.89-.83-41.82-1.05-62.75Z"/><path class="ag" d="M155.92,194.11c-2.26,2.5-4.51,4.99-6.77,7.49,.75-1.49,1.51-2.99,2.26-4.48h0c.5-3.75,1-7.5,1.5-11.25,.25-15.49,.5-30.98,.75-46.48,.71-5.82,1.43-11.64,2.14-17.45l-1.13-.17c-.17,.75-.33,1.5-1.01,4.57v-42.42c.5-9.5,.99-19,1.49-28.49l.08-4.48c.19-.01,.38-.02,.56-.04,.05,47.73,.09,95.46,.14,143.19Z"/><path class="aw" d="M140.13,95.94c.03,11.99,.05,23.99,.08,35.98-.02,5.24-.05,10.48-.07,15.72-.71,12.15-1.41,24.31-2.16,36.46-.1,1.7-.44,3.38-1.19,8.95-1.11-12.56-1.86-21.11-2.61-29.65,0-6.02,0-12.05,0-18.07l1.25-.03c.15,3.31,.3,6.62,.45,9.93h2.79c0-13.76,0-27.54,0-41.31,.25-5.25,.5-10.49,.74-15.74,.24-.74,.48-1.49,.72-2.23Z"/><path class="bk" d="M155.78,50.92c-.19,.01-.38,.03-.56,.04h-.11c-1.98-2-3.96-3.98-5.94-5.97l-8.17-.03c1.13-1.13,2.62-3.41,3.34-3.19,3.98,1.22,7.77,3.05,11.63,4.67-.06,1.49-.13,2.99-.19,4.48Z"/><path class="du" d="M170.15,75.68l4.49-15.74c0,6.8,.56,13.67-.16,20.4-.88,8.25-2.84,16.39-4.33,24.58,0-7.25,0-14.5-.01-21.75,0-2.5,0-5,.01-7.49Z"/><path class="ax" d="M160.39,115.42c0-5,.01-10,.02-15,1.73,7.7,3.46,15.39,5.36,23.83,2.17-2.52,3.27-3.8,4.38-5.09,0,8,0,15.99,0,23.99h-.02c-3,1.75-5.99,3.5-8.99,5.25-.25-1.25-.49-2.5-.74-3.76,0-9.74-.01-19.48-.02-29.22Z"/><path class="dp" d="M170.15,143.15c0-8,0-15.99,0-23.99,0-4.75,0-9.49,0-14.24,1.49-8.19,3.44-16.33,4.33-24.58,.72-6.73,.16-13.59,.16-20.4,.47-3.51,.94-7.02,1.4-10.54,.01,15.5,.03,31.01,.04,46.51,0,.24,0,.48,0,.72-.23,.02-.46,.03-.7,.04-.25,8.99-.5,17.99-.75,26.98-.72,4.3-1.44,8.6-2.38,14.21l-.98-5.72c-.41,3.94-.77,7.47-1.14,11Z"/><path class="b`" d="M160.41,144.64c.25,1.25,.49,2.5,.74,3.76,0,9.61,0,19.22,0,28.83l3.62,.25c1.54-6.2,3.08-12.39,4.62-18.59l.75,12c-.48,16.19-.81,32.38-1.66,48.55-.09,1.63-3.31,3.1-5.08,4.64-1-9.74-2.01-19.47-3.01-29.21v-41.22c0-3,0-6.01,0-9.01Z"/><path class="cw" d="M160.39,153.65c0,13.74,0,27.48,0,41.22-.5,0-1,0-1.5,0,.5-13.74,1-27.48,1.49-41.22Z"/><path class="cy" d="M158.9,194.87c.5,0,1,0,1.5,0,1,9.74,2.01,19.47,3.01,29.21,0,.26-.01,.52-.02,.78-2-3-3.99-6.01-5.99-9.01,.5-6.99,1-13.99,1.5-20.98Z"/><path class="e" d="M121.3,203.82c-.33,3.03-.67,6.05-1.37,12.48-6.2-4.89-10.99-8.66-15.77-12.44,0-.5,0-1,0-1.49-.24-13.5-.48-26.99-.71-40.49-.02-11.25-.04-22.49-.06-33.74v-1.47c-.24-17-.49-33.99-.74-50.99v-2.23c0-10.5,0-21,0-31.5l5.25-2.21c3.71,1.48,7.43,2.97,11.14,4.45,.1,.77,.2,1.54,.31,2.31-.13,0-.25,0-.38,0-.19,0-.38,0-.57,0-4.54-.91-9.08-1.81-13.63-2.72l-1.34,9.41,.05,2.28,.67,31.44c.04,17.97-.08,35.93,.16,53.89,.3,23.03,.89,46.06,1.36,69.08,.26,0,.52,0,.78,0,19.43,1.44,12.41-12.98,13.51-22.53v-5.99c-.25-37.99-.5-75.97-.74-113.96,.22,.02,.44,.05,.65,.08,.03,3.23,.06,6.46,.09,9.69,.02,6.97,.03,13.95,.05,20.92,0,5.03,0,10.05,0,15.08,.21,7,.42,14.01,.63,21.01,.04,8.47,.09,16.95,.13,25.42,0,2.78,0,5.55,0,8.33,.02,11.45,.04,22.9,.05,34.34l.49,1.53Z"/><path class="v" d="M120,113.19c0-5.03,0-10.05,0-15.08,.23-.74,.46-1.48,.69-2.21V42.77h2.99c0,8.46,0,16.94,0,25.42,0,9,0,17.99,0,26.99,0-9.04,0-18.09,0-27.13l-1.48,.02v51.87c0,4.49-.02,8.98-.03,13.47h-1.42c-.25-6.74-.5-13.48-.75-20.21Z"/><path class="ba" d="M120.68,95.9c-.23,.74-.46,1.48-.69,2.21-.02-6.97-.03-13.95-.05-20.92,.25,6.24,.49,12.47,.74,18.71Z"/><path class="aw" d="M119.85,67.5c-.22-.03-.44-.06-.66-.08-.08-6.97-.16-13.94-.24-20.92,.13,0,.25,0,.38,0,.17,7,.34,14,.51,21Z"/><path class="ek" d="M154.41,31.46c-2.74-.1-6.09,.72-8.02-.58-1.48-.99-2.09-6.51-1.49-6.81,2.7-1.35,5.97-1.55,9.04-2.17,.16,3.19,.31,6.37,.47,9.56h0Z"/><path class="q" d="M102.64,73.44c0,.74,0,1.49,0,2.23,.25,17,.5,33.99,.75,50.99,0,.49,0,.98,0,1.47-.49,2-.97,4.01-1.46,6.01l-4.5,29.98v-25.38h-.75c0,3.97,0,7.93,0,11.9-.25,5.5-.5,10.99-.75,16.49-.5-3.5-1-7-1.5-10.51v-46.47c.25-4.75,.51-9.49,.76-14.24,.5,0,.99,0,1.49,0,0,.5,0,.99,0,1.49,0,10.01,0,20.03,0,30.04l2.99,.02v-38.3c.51-16.71,.98-33.42,1.58-50.13,.05-1.34,.98-2.64,1.51-3.96,1.72,.79,3.43,1.57,5.15,2.36,2.5,.75,5,1.51,7.5,2.26-2.51,.01-5.02,.02-7.53,.03-1.75,.74-3.5,1.47-5.25,2.21,0,10.5,0,21,0,31.5Z"/><path class="bl" d="M79.39,135.72v-32.44h.39c.4,7.79,.81,15.58,1.21,23.37,.23,6.5,.47,13,.7,19.5,.26,14.24,.51,28.47,.77,42.71-.5,5.99-.99,11.98-1.49,17.97v.03c-.02-1-.04-1.99-.05-2.99-.51-22.72-1.02-45.43-1.53-68.15Z"/><path class="e" d="M70.46,203.12c0-5.25,0-10.49,0-15.74,2.4,2.26,4.8,4.52,7.11,6.69,.13-1.09,.43-3.57,1.32-10.94,.7,8.39,.99,11.94,1.29,15.5-3.24,1.49-6.48,2.99-9.71,4.48Z"/><path class="cp" d="M80.97,206.83c-2.6,1.32-5.19,2.64-7.79,3.96l-1.15-4.06c2.97,.04,5.95,.09,8.92,.13v-.03Z"/><path class="dc" d="M176.09,95.92c-.01-15.5-.03-31.01-.04-46.51,.03-2.74,.07-5.47,.1-8.2,4.24-.42,8.47-1.01,12.71-1.04,.5,0,1.02,3.11,1.53,4.78-3.98-1.13-7.97-2.25-11.95-3.38l-1.42,10.08c-.07,14.75-.15,29.5-.22,44.25-.24,0-.47,.01-.71,.01Z"/><path class="cy" d="M190.38,44.95c-.51-1.67-1.03-4.79-1.53-4.78-4.24,.02-8.47,.61-12.71,1.04,2.08-1.38,3.99-3.25,6.28-4.01,2.73-.9,5.77-.84,8.67-1.19,.01,3.49,.03,6.99,.04,10.48-.72,6-1.45,12-2.17,17.99,.01-5.99,.02-11.98,.03-17.97,.46-.52,.92-1.03,1.38-1.55Z"/><path class="ej" d="M94.43,110.17v3.75c-.39,3.67-.78,7.34-1.49,13.99-3.01-11.03-5.26-19.26-7.5-27.49,0-5.99,0-11.99-.01-17.98,0-5.5,0-11,0-16.5,.26,1.28,.47,2.58,.79,3.85,2.22,8.72,4.46,17.43,6.7,26.14l1.5,14.24Z"/><path class="bp" d="M92.93,95.92c-2.24-8.71-4.48-17.42-6.7-26.14-.32-1.27-.53-2.57-.79-3.85-.25-8.75-.5-17.49-.74-26.24,2.99,6.25,5.99,12.49,8.98,18.74-.25,12.49-.5,24.99-.74,37.48Z"/><path class="bm" d="M99.68,89.18c0,12.77,0,25.53,0,38.3l-2.99-.02c0-10.01,0-20.03,0-30.04,1-2.75,1.99-5.49,2.99-8.24Z"/><path class="bm" d="M96.68,95.93c-.5,0-.99,0-1.49,0,0-5.42,0-10.85,0-16.27h1.49v16.27Z"/><path class="em" d="M84.7,39.7c.25,8.75,.5,17.49,.74,26.24,0,5.5,0,11,0,16.5-.25,0-.49,0-.74-.01V38.38l-1.5,.04V110.17c0,.75,0,1.49,0,2.24,0,5.84,0,11.69,0,17.53l-2.96,.02V47.97c-.06-.22-.1-.45-.13-.68,.03-3.78,.05-7.56,.08-11.33,1.26-3.5,2.52-6.99,3.78-10.49,.25,4.74,.49,9.48,.74,14.23Z"/><path class="ei" d="M221.82,45.71c.24,13.49,.48,26.98,.72,40.46-.24,13.99-.49,27.98-.73,41.96,0,19.36,0,38.73,0,60.9-2.98-3.2-3.67-3.94-4.35-4.68-.01-1.97-.03-3.94-.04-5.91,.5-36.73,1-73.47,1.49-110.2,.97-7.51,1.94-15.03,2.91-22.54Z"/><path class="dy" d="M234.61,143.9c-.25,11.24-.5,22.49-.75,33.73-1.91,4.01-3.81,8.01-5.72,12.02-.84-4.77-2.14-9.52-2.42-14.33-.41-7.21-.1-14.45-.1-21.68,1.01,2.14,2.02,4.29,5.29,11.24,1.23-14.67,2.09-24.95,2.95-35.22,0-.75,0-1.5,0-2.25,.25,0,.5,0,.75,0v16.49Z"/><path class="du" d="M233.86,129.65c-.86,10.28-1.72,20.56-2.95,35.22-3.27-6.95-4.28-9.09-5.29-11.24,0-8.74,0-17.49,0-26.23,.25,0,.5,0,.75,0,.9,1.79,1.8,3.57,2.65,5.26,1.98-1.23,3.41-2.12,4.85-3.01Z"/><path class="cm" d="M226.37,127.4c-.25,0-.5,0-.75,0-.5-3.25-1-6.5-1.5-9.74,0-15.25,0-30.51,0-45.76h2.24v27.77c0,9.24,0,18.49,0,27.73Z"/><path class="cm" d="M222.7,125.74c.47-1.19,.94-2.39,1.4-3.58,0,14.55,0,29.1,0,43.66h-1.4v-40.07Z"/><path class="af" d="M217.42,178.45c.01,1.97,.03,3.94,.04,5.91-2.03-7.49-4.06-14.98-6.09-22.48,0,2.88,0,5.76,0,8.65,2.42-21.94,2.28-43.87,2.48-65.8,.11-11.93,.83-23.86,1.27-35.79,.38-4.37,.77-8.75,1.15-13.12l1.14,.17v122.47Z"/><path class="bs" d="M215.13,68.94c-.44,11.93-1.16,23.86-1.27,35.79-.21,21.93-.06,43.86-2.48,65.8,0-2.88,0-5.76,0-8.65,0-10.74,0-21.48,0-32.23,.25-17.74,.5-35.48,.75-53.22h0c0-1.5,0-3,.01-4.5,1-1,1.99-2,2.99-3Z"/><path class="cl" d="M221.82,45.71c-.97,7.51-1.94,15.03-2.91,22.54-4.59-3.04,8.94-15.64-6.76-12.82-.5-2-1.01-4-1.51-6,3.72-1.75,7.45-3.49,11.17-5.24v1.52Z"/><path class="af" d="M212.12,76.43c-.25,17.74-.5,35.48-.75,53.22,.25-17.74,.5-35.48,.75-53.22Z"/><path class="af" d="M210.64,49.43c.5,2,1.01,4,1.51,6,0,5.5,0,11.01-.01,16.51,0,1.5,0,3-.01,4.5-.5-9-.99-18-1.49-27.01Z"/><path class="n" d="M195.62,215.13c-.25-.25-.5-.51-.75-.76-.24-5.75-.49-11.5-.73-17.25,.9,.79,1.79,1.57,3.07,2.7,1.78-9.73,3.47-18.95,5.16-28.17,.24,0,.49,0,.73-.02,0,.75,.02,1.51,.02,2.26,0,7.74,0,15.49-.01,23.23-.25,4.07,.26,8.4-1.01,12.12-.83,2.42-4.24,3.96-6.49,5.9Z"/><path class="n" d="M208.39,92.19c-.02,5.24-.03,10.49-.05,15.73-.73,11.9-1.27,23.81-2.3,35.68-.42,4.89-1.91,9.7-2.91,14.54,0-2.75-.02-5.5-.02-8.26,0-6.25,0-12.49,.01-18.74,1.09-2.41,2.98-4.76,3.13-7.23,.92-15.32,1.45-30.66,2.1-46,.01,4.75,.02,9.51,.03,14.26Z"/><path class="cq" d="M203.11,149.9c0,2.75,.02,5.5,.02,8.26,0,4.49-.02,8.98-.03,13.47-.24,0-.49,.01-.73,.02-2.18,.9-4.36,1.79-7.5,3.08v-14.32c2.74-3.5,5.49-7,8.23-10.49Z"/><path class="db" d="M208.36,77.93c-.66,15.33-1.18,30.68-2.1,46-.15,2.46-2.04,4.82-3.13,7.23,.25-9.74,.5-19.49,.75-29.23,0-1.25,0-2.49,0-3.74,1-15,1.99-29.99,2.99-44.99,0-.74,.01-1.49,.02-2.23,.46-.02,.93-.03,1.4-.05,.27,4.01,.54,8.02,.8,12.03-.24,4.99-.49,9.99-.73,14.99Z"/><path class="cu" d="M208.29,50.91c-.47,.02-.93,.03-1.4,.05,.49-7.5,.99-15,1.48-22.51,1.51,1.73,3.02,3.46,4.53,5.19-1.25,2.28-2.49,4.56-3.74,6.84-.29,3.48-.59,6.95-.88,10.43Z"/><path class="bb" d="M208.36,77.93c.24-5,.49-9.99,.73-14.99-.23,9.75-.47,19.5-.7,29.25,0-4.75-.02-9.51-.03-14.26Z"/><path class="dp" d="M213.62,195.62c1.27,1.74,2.53,3.49,3.8,5.23-.79,1.05-1.59,2.1-2.38,3.15-.47-2.79-.94-5.59-1.41-8.38Z"/><path class="cw" d="M213.62,195.62c.47,2.79,.94,5.59,1.41,8.38,.79-1.05,1.59-2.1,2.38-3.15,.49,.26,.97,.51,1.46,.77h0c-.99,1.21-2.32,3.6-2.91,3.43-2.08-.6-5.37-1.96-5.47-3.25-.15-1.97,1.97-4.11,3.13-6.18Z"/><path class="aw" d="M284.09,113.92c0,1.75,0,3.49,.01,5.24-.5,6.5-1,13-1.51,19.5-.94,15.97-1.89,31.95-2.89,48.87-.68-1.76-1.07-2.77-1.46-3.78l-.19-.1c-1.26-2-2.52-4-3.79-5.99,1.52-1.64,4.31-3.23,4.37-4.92,.59-15.51,.41-31.05,1.16-46.54,.2-4.14,2.79-8.17,4.28-12.25Z"/><path class="aw" d="M282.59,139.4c0,9.5,0,18.99,0,28.49,0-9.5,0-18.99,0-28.49Z"/><path class="cm" d="M284.09,113.92c-1.49,4.08-4.08,8.11-4.28,12.25-.74,15.5-.57,31.04-1.16,46.54-.06,1.69-2.85,3.29-4.37,4.92l.12-.07c1.23-1.69,3.47-3.35,3.53-5.09,.74-20.02,1.16-40.04,1.66-60.07,.4-7.79,.8-15.57,1.45-28.37,.67,6.63,.84,8.28,.58,5.7,.82-8.96,2.02-22,3.22-35.05,0,3.5,0,6.99,.01,10.49-.25,16.24-.51,32.49-.76,48.73Z"/><path class="dy" d="M246.62,192.62c-.62,1.92-1.25,3.83-1.87,5.75l-2.41-3.18c1.43-.86,2.85-1.71,4.28-2.57h0Z"/><path class="n" d="M87.68,231.6c-.25-8.25-.5-16.49-.75-24.74,0-9.49,0-18.99-.01-28.48,1.83,7.54,3.67,15.09,7.15,29.42,1.02-12.48,1.43-17.58,1.85-22.67,.25,6.75,.5,13.5,.75,20.24-.03,9.78-.03,19.57-.16,29.35-.01,1.07-.82,2.12-1.25,3.18-2.53-2.1-5.05-4.2-7.58-6.3Z"/><path class="ax" d="M85.44,100.42c2.25,8.23,4.49,16.46,7.5,27.49,.71-6.65,1.1-10.32,1.49-13.99,0,14.24,0,28.48,0,42.72-.37-1.62-.74-3.25-1.14-4.86-.38,.77-.73,1.53-2.32,4.95-1.58-7.33-2.94-12.08-3.57-16.92-1.13-8.6-1.81-17.26-2.69-25.9,0-1,0-2,0-3,.25-3.5,.49-7,.74-10.49Z"/><path class="cq" d="M84.7,113.91c.87,8.64,1.56,17.3,2.69,25.9,.63,4.84,1.99,9.58,3.57,16.92,1.59-3.42,1.95-4.18,2.32-4.95,.4,1.61,.77,3.24,1.14,4.86,.5,3.5,1,7,1.5,10.51v2.24c-1.11,3.19-2.21,6.37-3,8.65-2.24-3.38-4.48-6.76-6.72-10.15-.5-17.99-1-35.98-1.51-53.97Z"/><path class="ec" d="M86.21,167.88c2.24,3.39,4.49,6.78,6.72,10.15,.79-2.28,1.89-5.47,3-8.65,0,5.25,0,10.49,0,15.74-.42,5.1-.83,10.19-1.85,22.67-3.48-14.33-5.32-21.87-7.15-29.42-.24-3.5-.47-7-.71-10.5Z"/><path class="db" d="M80.23,47.97v82l2.96-.02c0-5.84,0-11.69,0-17.53,0,23.53,0,47.06,0,64.29-.29-5.98-.9-18.26-1.5-30.55-.23-6.5-.47-13-.7-19.5-.25-26.23-.5-52.46-.76-78.68Z"/><path class="db" d="M83.2,110.17V38.42l1.5-.04c0,14.68,0,29.36,0,44.04,0,9.25,0,18.5-.01,27.75h-1.49Z"/><path class="cq" d="M84.68,110.17c0-9.25,0-18.5,.01-27.75,.25,0,.49,0,.74,.01,0,5.99,0,11.99,.01,17.98-.25,3.5-.49,7-.74,10.49,0-.25-.01-.49-.02-.74Z"/><path class="dj" d="M95.92,185.12c0-5.25,0-10.49,0-15.74,0-.75,0-1.5,0-2.24,.25-5.5,.5-10.99,.75-16.49,.25,3.75,.5,7.49,.75,11.24,0,.75,0,1.49,0,2.24,.4,5.66,.79,11.32,1.31,18.74,1.7-5.18,2.81-8.58,3.93-11.99v41.23c0,.5,0,1,0,1.5-.86,.98-1.73,1.97-3.82,4.36v-22.18l-1.47,.02c-.23,3.19-.47,6.37-.7,9.56-.25-6.75-.5-13.5-.75-20.24Z"/><path class="by" d="M68.19,35.96c-.24-2-.48-4-.73-6,2.99,1.75,5.98,3.49,8.97,5.24-2.75,.25-5.5,.51-8.24,.76Z"/><path class="c`" d="M274.27,177.64c1.26,2,2.52,4,3.79,5.99-17.2-.46-10.29-13.38-10.91-21.9-.59-8.14,.23-16.39,.44-24.59,.03-.47,.05-.94,.08-1.42,.22-.04,.43-.08,.65-.11,.02,4.75,.04,9.51,.06,14.26v29.26l3.8-.29c-.27-2.89-.53-5.78-.8-8.67l.77-.03c.75,2.47,1.5,4.95,2.24,7.42l-.12,.07Z"/><path class="dj" d="M263.87,140.91c-.01-1.76-.02-3.51-.03-5.27,.26-7.49,.51-14.98,.77-22.47,.99-.5,1.98-1,2.97-1.5-.02,3.99-.03,7.98-.05,11.96-1.22,5.76-2.44,11.52-3.65,17.28Z"/><path class="e`" d="M267.52,123.62c.02-3.99,.03-7.98,.05-11.96,0-.5,0-1,0-1.5,.26-.99,.52-1.99,.79-2.98,0,8.24,0,16.48,0,24.72-.01,1.24-.03,2.47-.04,3.71-.22,.03-.44,.07-.65,.11-.05-4.03-.09-8.07-.14-12.1Z"/><path class="db" d="M275.1,191.88c-1.35-.41-2.69-.83-4.04-1.24l1.29-3.43c.92,1.56,1.83,3.11,2.75,4.67h0Z"/><path class="q" d="M194.88,160.39v14.32c3.13-1.29,5.32-2.18,7.5-3.08-1.69,9.22-3.38,18.44-5.16,28.17-1.28-1.13-2.18-1.91-3.07-2.7-.25-8.99-.51-17.98-.76-26.97v-36.06h-1.13v23.29c-1.05-4.65-1.46-6.43-1.86-8.22,.25-28.73,.49-57.46,.74-86.2,0,4.74,.01,9.49,.02,14.23,0,15.36,0,30.71,0,46.07l1.49,.03v-22.85c.36-.86,.73-1.73,1.5-3.55,0,3.66,0,6.23,0,8.8,.25,7.99,.5,15.99,.75,23.98v30.73Z"/><path class="dk" d="M194.88,24.71l1.42,9.26c2.53-3.58,5.06-7.17,7.58-10.75,0,6.99,0,13.99-.01,20.98-1.98,2.63-3.96,5.25-5.94,7.88-1.18-2.68-2.48-5.66-3.79-8.63,.24-1,.49-1.99,.73-2.99v-15.75Z"/><path class="ej" d="M191.13,62.96c-.25,28.73-.49,57.46-.74,86.2,0,2.74-.01,5.48-.02,8.22-.52-11.56-1.04-23.12-1.56-34.68,.05-19.41,.1-38.82,.16-58.23,.72-6,1.45-12,2.17-17.99,0,5.49-.01,10.99-.02,16.48Z"/><path class="cq" d="M194.88,40.46c-.24,1-.49,1.99-.73,2.99,.24,3.75,.49,7.5,.73,11.25,0,10.49,0,20.99,0,31.48l-.75,19.5v-8.8c-.77,1.83-1.14,2.69-1.5,3.55,0-6.75,0-13.5,0-20.24l2.25-39.72Z"/><path class="ax" d="M192.63,80.18c0,6.75,0,13.5,0,20.24,0,7.62,0,15.23,0,22.85l-1.49-.03c0-15.36,0-30.71,0-46.07,.49,1,.99,2,1.48,3Z"/><path class="g" d="M284.84,54.7c-1.2,13.04-2.4,26.09-3.22,35.05,.26,2.57,.09,.93-.58-5.7-.66,12.8-1.05,20.58-1.45,28.37,.21-22.7,.42-45.39,.63-68.09,.79,.46,1.58,.92,2.37,1.38l.75-13.5h0c.75,5.25,1.5,10.5,2.25,15.74-.25,2.25-.5,4.5-.76,6.75Z"/><path class="dx" d="M282.59,45.7c-.79-.46-1.58-.92-2.37-1.38-1.47,1.44-4.08,2.79-4.22,4.35-.85,9.48-1.14,19.02-1.61,28.54l-.04-19.51-.79-1.52c.34-3.97,.67-7.94,1.01-11.91l.59-.56,5.12-.3,1.51-2.93c-.11-1.74-.21-3.48-.31-5.09l-11.6,.61c-.01,1.49-.03,2.98-.04,4.46-.02,.23-.05,.46-.09,.69-.23,0-.45-.01-.68-.03-.25-1.72-.49-3.45-.74-5.17,.14-1.59,.27-3.18,.41-4.77,1.39,.43,2.75,1.08,4.17,1.23,3.2,.33,6.42,.4,9.64,.57,.01,4.24,.03,8.48,.04,12.72Z"/><path class="el" d="M274.35,20.22c2.41,1.01,4.82,2.03,7.23,3.04-1.3,3.04-2.6,6.09-3.9,9.13-2.86-2.2-5.72-4.4-8.58-6.6,1.75-1.86,3.5-3.71,5.25-5.57h0Zm6.71,5.13c-1.63-1.42-3.12-3.3-3.64-3.07-1.73,.79-3.11,2.34-4.63,3.59,1.33,1.36,2.66,2.71,3.98,4.07,1.23-1.32,2.46-2.63,4.29-4.59Z"/><path class="bp" d="M282.59,45.7c-.01-4.24-.03-8.48-.04-12.72,.26-.26,.53-.52,.79-.77-.25,4.5-.5,9-.75,13.5Z"/><path class="db" d="M149.93,204.66c.24,0,.48-.02,.73-.05h0c.74,1.75,1.48,3.51,2.23,5.26-.81-1.02-1.63-2.03-3.45-4.31-.86,3.72-1.42,6.19-1.99,8.66,1.15,.18,2.99,.87,3.32,.43,1.02-1.36,1.45-3.15,2.12-4.77l-1.1,8.39c-1.88-.56-3.76-1.11-5.64-1.67,1.26-3.99,2.52-7.97,3.78-11.95Z"/><path class="dd" d="M149.93,204.66c-1.26,3.98-2.52,7.97-3.78,11.95-1.67-1.1-3.34-2.2-5.01-3.3l8.79-8.66Z"/><path class="bw" d="M190.37,157.38c0-2.74,.01-5.48,.02-8.22,.4,1.78,.81,3.57,1.86,8.22v-23.28h1.13c0,12.01,0,24.03,0,36.05-.5,2.23-1.3,4.43-1.44,6.68-.62,9.76-1.05,19.53-1.55,29.29-.01-2.5-.03-5.01-.04-7.51,0-2.46-.01-4.93-.02-7.39,.02-11.28,.03-22.56,.05-33.84Z"/><path class="x" d="M190.39,206.11c.5-9.76,.93-19.53,1.55-29.29,.14-2.25,.94-4.46,1.44-6.68,.25,8.99,.51,17.98,.76,26.97,.24,5.75,.49,11.5,.73,17.25-1.49-2.75-2.99-5.5-4.48-8.26Z"/><path class="u" d="M170.15,170.89l-.75-12c.25-5.25,.49-10.5,.74-15.74h.02c.36-3.53,.73-7.06,1.14-11l.98,5.72c.94-5.62,1.66-9.92,2.38-14.21,0,4.75,0,9.49,0,14.24,0,3.99,0,7.99,0,11.98-1.5,7-2.99,14-4.49,21Z"/><path class="cy" d="M174.64,149.89c0-3.99,0-7.99,0-11.98h.74v16.49c0,5.49,0,10.99,0,16.48-.5,4.25-.99,8.51-1.49,12.76,.25-11.25,.49-22.5,.74-33.75Z"/><path class="p" d="M188.97,64.47c-.05,19.41-.1,38.82-.16,58.23,0,22.58-.02,45.15-.03,67.73,.09,.47,.17,.94,.26,1.4-3.8-3.43-10.85-6.8-10.91-10.29-.75-43.02-.48-86.06-.48-129.1,.5,.25,.99,.49,1.49,.74,0,5.74,.02,11.49,.03,17.23l1.46,33-.75,21c0,1,0,1.99,0,2.99v52.29l3,.08v-30.63c0-17.74,0-35.48,0-53.22,.5-7.75,1-15.5,1.5-23.24,1.24-7,2.48-14,3.72-21v-4.5c0-.24,.02-.48,.04-.71l.86,.04c-.01,5.99-.02,11.98-.03,17.97Z"/><path class="ay" d="M177.66,52.44c0,43.04-.27,86.08,.48,129.1,.06,3.49,7.11,6.86,10.91,10.29-.05,1.65,.11,4.68-.18,4.72-3.67,.55-7.4,.79-11.1,.68-.37-.01-.92-2.92-.92-4.48-.06-32.28-.04-64.57-.05-96.85,.07-14.75,.15-29.5,.22-44.25,.21,.26,.43,.52,.64,.78Z"/><path class="aq" d="M188.79,190.43c0-22.58,.02-45.15,.03-67.73,.52,11.56,1.04,23.12,1.56,34.67-.02,11.28-.03,22.56-.05,33.84-.51-.26-1.03-.52-1.54-.78Z"/><path class="bw" d="M180.63,201.61c1.26-.5,2.51-.99,3.77-1.49-.89,2.48-1.93,4.92-2.52,7.47-.11,.46,1.61,1.35,2.48,2.04,.51-2.64,1.03-5.28,1.54-7.92v-.21c.24,.28,.5,.57,.76,.85-.54,2.9-1.05,5.8-1.74,8.66-.02,.07-2.79-.13-2.88-.52-.67-2.91-.98-5.91-1.41-8.88Z"/><path class="dc" d="M175.4,154.39c0-5.5,0-10.99-.01-16.49,0-5.99,.02-11.97,.03-17.96,.23-.02,.46-.04,.69-.07-.23,11.51-.47,23.01-.7,34.52Z"/><path class="cy" d="M176.1,119.87c-.23,.03-.46,.05-.69,.07,0-7.76-.01-15.51-.02-23.27,.23-.01,.46-.02,.7-.04,0,7.74,0,15.49,.01,23.23Z"/><path class="cq" d="M185.89,201.71c-.51,2.64-1.03,5.28-1.54,7.92-.87-.69-2.59-1.58-2.48-2.04,.6-2.55,1.64-4.99,2.52-7.47,.5,.53,1,1.06,1.5,1.59Z"/><path class="dp" d="M125.18,224.1c-.26-17.98-.51-35.97-.77-53.95,0-3.25,.01-6.51,.02-9.76,.86,12.92,1.73,25.84,2.63,39.36,2.96-4.23,5.03-7.17,7.1-10.12,0,13.49,0,26.97,0,40.46-2.99-2-5.98-3.99-8.97-5.99Z"/><path class="bj" d="M134.16,189.62c-2.07,2.95-4.13,5.89-7.1,10.12-.9-13.52-1.77-26.44-2.63-39.36,0-.75,0-1.49-.01-2.24,.25-1,.51-2,.76-3,2.74,1,5.49,2,8.23,3,.25,7.75,.5,15.49,.75,23.24,0,2.75,0,5.5,0,8.25Z"/><path class="ci" d="M113.93,227.94c.5-.03,1-.06,1.5-.09,.27,.04,.54,.07,.8,.11l-2.3-.02Z"/><path class="cb" d="M111.69,227.81c.48,0,.96-.02,1.45-.02-.48,0-.96,.02-1.45,.02Z"/><path class="cb" d="M116.23,227.95c-.27-.04-.54-.07-.8-.11,.49-.02,.97-.04,1.46-.06-.22,.05-.44,.11-.66,.17Z"/><path class="m" d="M124.41,158.14c0,.75,0,1.49,.01,2.24,0,3.25-.01,6.51-.02,9.76-.74,3.75-1.48,7.5-2.22,11.25,0-7.25-.02-14.51-.02-21.76,0-8.74,0-17.49,0-26.23,0-4.49,.02-8.98,.03-13.47,.74,12.74,1.48,25.47,2.22,38.21Z"/><path class="dx" d="M122.16,159.63c0,7.25,.02,14.51,.02,21.76,.24,8.49,.48,16.98,.72,25.46-.49,0-.98,0-1.48,0-.04-1.01-.08-2.03-.12-3.04-.17-.51-.33-1.02-.5-1.53-.02-11.45-.04-22.9-.05-34.34,0-2.78,0-5.55,0-8.33,.47,0,.94,0,1.4,.01Z"/><path class="aw" d="M121.42,206.86c.49,0,.98,0,1.48,0-.48,5.74-.96,11.47-1.45,17.21-.01-5.74-.02-11.47-.03-17.21Z"/><path class="bn" d="M102.67,212.11c0-13.74,0-27.49,0-41.23-.25-12.24-.49-24.49-.74-36.73,.49-2,.97-4.01,1.46-6.01,.02,11.25,.04,22.49,.06,33.74,.24,13.5,.48,26.99,.71,40.49,0,.5,0,1,0,1.49-.49,2.75-.99,5.5-1.48,8.25Z"/><path class="aw" d="M110.18,222.6c-.26-1.5-.51-3-.77-4.5,1.39-2.16,2.77-4.32,4.16-6.47,1.15,.99,3.25,1.96,3.27,2.97,.09,3.54-.55,7.09-.91,10.63-1.92-.88-3.83-1.76-5.75-2.64Zm5.64-8.87l-2.73-.11c-.33,2.38-.65,4.76-.98,7.14,1.37-.01,2.75-.03,4.12-.04-.14-2.33-.27-4.66-.41-6.99Z"/><path class="el" d="M194.88,54.69c-.24-3.75-.49-7.5-.73-11.25,1.3,2.97,2.61,5.95,3.79,8.63,1.98-2.62,3.96-5.25,5.94-7.88,0,3,0,6,0,9h0c-.39,5.78-.77,11.56-.98,14.66-2.57,3.33-3.68,4.77-5.52,7.16-.9-7.31-1.69-13.82-2.49-20.33Z"/><path class="cu" d="M206.87,53.19c-1,15-1.99,29.99-2.99,44.99,0-5.5,0-11,0-16.5,0-9.49,0-18.99,0-28.48h0c1,0,1.99,0,2.99,0Z"/><path class="av" d="M226.37,127.4v-27.73c.5-2.25,1-4.5,1.5-6.75,2.25,1.5,4.5,3,6.75,4.5,0,6.49,0,12.99,0,19.48-.25,3.5-.5,7-.75,10.5,0,.75,0,1.5,0,2.25-1.43,.89-2.86,1.78-4.85,3.01-.85-1.68-1.75-3.47-2.65-5.26Z"/><path class="av" d="M236.11,76.43c-.5,7-.99,14-1.49,21,.25-8.75,.5-17.49,.74-26.24,.25,1.75,.5,3.49,.75,5.24Z"/><path class="cm" d="M215.86,35.98c.5,0,1.01-.01,1.51-.02,.75,.25,1.5,.5,2.26,.75,0,.25,0,.49,0,.74l-3.76-1.47Z"/><path class="db" d="M221.89,34.48c-.26,.49-.51,.98-.77,1.47h0c0-.5,0-.99,0-1.49h0c.25-.02,.49-.02,.74-.03l.04,.04Z"/><path class="cm" d="M214.37,35.22c-.24-.25-.49-.51-.73-.76,.25,0,.49,0,.74,0h0c0,.24,0,.49,.02,.73l-.02,.02Z"/><path class="db" d="M221.12,35.96c0,.25,0,.5,0,.75-.25,0-.5,0-.74,0h0c0-.25,0-.5,0-.75h0c.25,0,.5,0,.75,0h0Z"/><path class="cu" d="M215.12,35.21c.25,.25,.5,.5,.75,.76-.25,0-.49-.01-.74-.02,0-.24,0-.49,0-.73Z"/><path class="cm" d="M215.12,35.21c0,.24,0,.49,0,.73-.25-.24-.51-.48-.76-.72l.02-.02c.25,0,.49,.01,.74,.01h0Z"/><path class="cu" d="M214.37,34.46c-.25,0-.49,0-.74,0-.01-.24-.03-.49-.04-.73,.26,.25,.52,.49,.78,.74Z"/><path class="db" d="M219.62,37.45c0-.25,0-.49,0-.74h.75c0,.24,0,.48,0,.73-.25,.01-.5,.01-.75,.01Z"/><path class="n" d="M220.37,37.44c0-.24,0-.49,0-.73,.25,0,.5,0,.74,0-.25,.25-.5,.49-.75,.74Z"/><path class="cu" d="M219.63,36.71c-.75-.25-1.5-.5-2.26-.75,.75,0,1.5,0,2.25,0,0,.25,0,.5,0,.75h0Z"/><path class="ax" d="M221.85,34.44c-.25,0-.49,0-.74,.01,.25-.5,.51-.99,.76-1.49,0,.49-.02,.99-.03,1.48Z"/><path class="cm" d="M221.12,35.95c-.25,0-.5,0-.75,0,.25-.5,.5-1,.75-1.49,0,.5,0,.99,0,1.49Z"/><path class="cm" d="M219.62,36.71c0-.25,0-.5,0-.75,.25,0,.5,0,.75,0,0,.25,0,.5,0,.75h-.75Z"/><path class="cu" d="M215.12,35.21c-.25,0-.49,0-.74-.01,0-.24-.01-.49-.02-.73,.25,.25,.5,.5,.75,.75Z"/><path class="e`" d="M267.51,99.73c.29-7.24,.58-14.49,.87-21.73,.24-.03,.48-.05,.72-.06l-1.4,27.06-.19-5.27Z"/><path class="dj" d="M267.51,99.73c.06,1.76,.13,3.51,.19,5.27,.22,.73,.44,1.46,.66,2.19-.26,.99-.52,1.99-.79,2.98-.02-3.48-.04-6.96-.07-10.44Z"/><path class="dj" d="M269.1,77.93c-.24,.01-.48,.03-.72,.06-.02-4.02-.03-8.05-.05-12.08,.24-2.75,.48-5.5,.73-8.25,.02,6.51,.05,13.02,.07,19.54,0,.24-.01,.48-.02,.73Z"/><path class="e`" d="M269.12,77.21c-.02-6.51-.05-13.02-.07-19.54,.01-5.51,.02-11.03,.03-16.54,.23,.01,.45,.02,.68,.03,.02,12,.04,24,.06,36-.23,.02-.47,.04-.7,.05Z"/><path class="bw" d="M234.61,143.9c0-5.5,0-11,0-16.49,0-1.99,.01-3.99,.02-5.98,1.24-8,2.49-16,3.73-24-.45,14.13-.84,28.27-1.45,42.4-.06,1.39-1.5,2.72-2.3,4.08Z"/><path class="du" d="M234.63,121.42c0,1.99-.01,3.99-.02,5.98-.25,0-.5,0-.75,0,.25-3.5,.5-7,.75-10.5,0,1.5,.01,3.01,.02,4.51Z"/><path class="ax" d="M133.41,158.14c-2.74-1-5.49-2-8.24-3-.25-10.99-.5-21.99-.75-32.98,3-5,5.99-9.99,8.99-14.99,0,16.99,0,33.98,0,50.97Z"/><path class="dx" d="M124.42,122.16c.25,10.99,.5,21.99,.75,32.98-.25,1-.51,2-.76,3-.74-12.74-1.48-25.47-2.22-38.21,0-17.29,0-34.58,0-51.87l1.48-.02c0,9.04,0,18.09,0,27.13,.25,8.99,.5,17.99,.75,26.98Z"/><path class="db" d="M140.13,95.94c-.24,.74-.48,1.49-.72,2.23,.24-11.74,.49-23.48,.73-35.22,0,11,0,21.99,0,32.99Z"/><path class="ct" d="M141.72,53.15c-.25-.49-.5-.98-.75-1.47,.02-.25,.03-.5,.05-.75,2.96,1.93,5.92,3.86,9.03,5.89,.43-.91,.9-1.89,1.36-2.87,0,3.75,0,7.49,0,11.24v11.23c-2.5-2.5-5-4.99-7.49-7.49-.73-5.26-1.46-10.52-2.19-15.78Z"/><path class="bf" d="M151.41,53.95c-.47,.98-.93,1.96-1.36,2.87-3.11-2.03-6.07-3.96-9.03-5.89,0-1.99-.01-3.98-.02-5.97,2.72,0,5.45,.02,8.17,.03,.74,2.98,1.49,5.97,2.23,8.95h0Z"/><path class="cr" d="M141.72,53.15c.73,5.26,1.46,10.52,2.19,15.78,.25,11.99,.5,23.99,.75,35.98,0,5,0,10,0,14.99v2.25l.75,15.74c-.25,10.99-.49,21.98-.74,32.98,0,1.6-.39,3.33,.07,4.79,2.09,6.69,4.42,13.3,6.67,19.94v1.51h0c-2.01,0-4.01,0-6.02,0-.87-5.74-2.42-11.46-2.5-17.21-.56-42.25-.82-84.51-1.17-126.77Z"/><path class="k" d="M145.39,197.13c2.01,0,4.01,0,6.02,0-.75,1.49-1.51,2.99-2.26,4.48-1.25-1.49-2.51-2.98-3.76-4.47Z"/><path class="da" d="M153.65,83.93v42.42c.68-3.06,.85-3.82,1.01-4.57l1.13,.17c-.71,5.82-1.43,11.64-2.14,17.45-.5-.25-.99-.5-1.49-.75-.25-16.24-.51-32.48-.76-48.72,.75-2,1.5-4,2.25-6Z"/><path class="cr" d="M152.16,138.65l1.49,.75c-.25,15.49-.5,30.98-.75,46.48-.5,3-.99,6-1.49,9,0-7.25,0-14.5,0-21.74l.76-34.48Z"/><path class="bk" d="M153.65,83.93c-.75,2-1.5,4-2.25,6,0-4.5,0-9.01,0-13.51v-11.23c1.25-3.25,2.5-6.5,3.75-9.75-.5,9.5-.99,19-1.49,28.49Z"/><path class="bh" d="M155.14,55.44c-1.25,3.25-2.49,6.5-3.74,9.75,0-3.75,0-7.49,0-11.24h0l3.7-3h.11c-.03,1.5-.05,2.99-.08,4.49Z"/><path class="k" d="M151.41,194.88c.5-3,.99-6,1.49-9-.5,3.75-1,7.5-1.5,11.24,0-.5,0-1,0-1.51,0-.25,0-.49,0-.74Z"/><path class="i" d="M155.11,50.95l-3.7,3c-.74-2.98-1.49-5.97-2.23-8.95,1.98,1.99,3.96,3.97,5.94,5.96Z"/><path class="du" d="M170.13,143.15c-.25,5.25-.49,10.5-.74,15.74-1.54,6.2-3.08,12.39-4.62,18.59l-3.62-.25c0-9.61,0-19.22,0-28.83,3-1.75,5.99-3.5,8.99-5.25Z"/><path class="x" d="M175.39,96.68c0,7.76,.01,15.51,.02,23.27,0,5.99-.02,11.97-.03,17.96h-.74c0-4.75,0-9.49,0-14.24,.25-8.99,.5-17.99,.75-26.98Z"/><path class="ae" d="M119.94,181.38c0,2,0,3.99,0,5.99-.5,1.34-.82,2.79-1.53,4.01-3.16,5.45-6.42,10.84-9.65,16.25l-.84-3.02c3-8.25,6-16.5,9-24.75l-.75-5.23c.48-3.21,1.28-6.41,1.4-9.64,.4-11.53,.58-23.07,.84-34.61,.51,16.99,1.02,33.99,1.53,50.98Z"/><path class="dm" d="M104.14,86.91c-.22-10.48-.45-20.96-.67-31.44,.73,7.49,1.47,14.97,2.2,22.46,0,21.49,0,42.99,0,64.48-.24-1.96-.65-3.92-.69-5.88-.32-16.54-.56-33.08-.83-49.62Z"/><path class="cv" d="M119.94,181.38c-.51-16.99-1.02-33.99-1.53-50.98-.26-1.5-.51-2.99-.77-4.49,.25-4.74,.5-9.48,.75-14.22,0-18.76,0-37.52,0-56.28l-.06-1.5c.02-2.47,.04-4.94,.07-7.41,.19,0,.38,0,.57,0,.08,6.97,.16,13.94,.24,20.92,.25,37.99,.49,75.97,.74,113.96Z"/><path class="cv" d="M104.14,86.91c.27,16.54,.52,33.08,.83,49.62,.04,1.96,.45,3.92,.69,5.88,.02,12.23,.03,24.47,.05,36.7,0,7.01,0,14.03,0,21.04-.02,3.24-.04,6.49-.07,9.73-.47-23.03-1.05-46.05-1.36-69.08-.24-17.96-.12-35.93-.16-53.89Z"/><path class="cv" d="M108.76,207.63c3.23-5.41,6.49-10.8,9.65-16.25,.71-1.22,1.03-2.67,1.53-4.01-1.1,9.55,5.92,23.97-13.51,22.53,.78-.76,1.56-1.51,2.33-2.27Z"/><path class="cf" d="M105.67,77.93c-.73-7.49-1.47-14.97-2.2-22.46-.02-.76-.03-1.52-.05-2.28,.5,.25,1,.5,1.5,.76,.75,8.49,1.5,16.99,2.26,25.48l-1.51-1.5Z"/><path class="am" d="M104.92,53.95l-1.5-.76,1.34-9.41c4.54,.91,9.08,1.81,13.63,2.72-.02,2.47-.05,4.94-.07,7.41-.97,.01-1.93,.02-2.9,.04v-1.5l1.22-5.2c-3.48-.6-6.95-1.42-10.44-1.48-.39,0-.85,4.35-1.27,6.68v1.5h-.01Z"/><path class="eh" d="M103.39,126.67c-.25-17-.5-33.99-.75-50.99,.25,17,.5,33.99,.75,50.99Z"/><path class="ba" d="M122.16,159.63c-.47,0-.94,0-1.4-.01-.04-8.47-.09-16.95-.13-25.42,.04-.27,.08-.53,.11-.8h1.42c0,8.74,0,17.49,0,26.23Z"/><path class="dr" d="M104.16,202.37c-.24-13.5-.48-26.99-.71-40.49,.24,13.5,.48,26.99,.71,40.49Z"/><path class="aw" d="M120.75,167.95c.02,11.45,.04,22.9,.05,34.34-.02-11.45-.04-22.9-.05-34.34Z"/><path class="eh" d="M102.64,73.44c0-10.5,0-21,0-31.5,0,10.5,0,21,0,31.5Z"/><path class="br" d="M108.76,207.63c-.78,.76-1.56,1.51-2.33,2.27-.26,0-.52,0-.78,0,.02-3.24,.04-6.49,.06-9.73,.49,.73,.97,1.47,1.46,2.21l.75,2.25,.84,3.02Z"/><path class="aw" d="M120.74,133.4c-.04,.27-.08,.53-.11,.8-.21-7-.42-14.01-.63-21.01,.25,6.74,.5,13.47,.75,20.21Z"/><path class="u" d="M101.93,134.15c.25,12.24,.49,24.49,.74,36.73-1.11,3.4-2.23,6.8-3.93,11.99-.52-7.41-.91-13.07-1.31-18.74,1.5-9.99,3-19.99,4.5-29.98Z"/><path class="u" d="M97.44,161.89c-.25-3.75-.5-7.49-.75-11.24,0-3.97,0-7.93,0-11.9h.75v23.13Z"/><path class="bv" d="M177.66,52.44c-.21-.26-.43-.52-.64-.78,.47-3.36,.94-6.72,1.42-10.08,3.98,1.13,7.97,2.25,11.95,3.38-.46,.52-.92,1.03-1.38,1.55-.29-.01-.57-.02-.86-.04-3.15-.79-6.3-1.58-9.44-2.36,.15,2.53,.29,5.06,.44,7.59v1.49l-1.48-.74Z"/><path class="ce" d="M212.14,71.93c0-5.5,0-11,.01-16.51,15.7-2.82,2.17,9.78,6.76,12.82-.5,36.73-1,73.47-1.49,110.2,0-40.82,0-81.65,0-122.47l-1.14-.17c-.38,4.37-.77,8.75-1.15,13.12-1,1-1.99,2-2.99,3Z"/><path class="g" d="M194.88,160.39c0-10.24,0-20.49,0-30.73,.98,.84,1.95,1.68,4.16,3.57,1.72-11.12,3.27-21.21,4.83-31.3l-.75,29.23c0,6.25,0,12.49-.01,18.74-2.74,3.5-5.49,7-8.23,10.49Z"/><path class="bc" d="M203.88,101.92c-1.56,10.09-3.11,20.18-4.83,31.3-2.21-1.89-3.18-2.73-4.16-3.57-.25-7.99-.5-15.99-.75-23.98,.25-6.5,.5-13,.75-19.5,1.05,3.23,2.1,6.47,3.15,9.7,1.68-2.79,3.61-5.46,4.95-8.4,.78-1.71,.63-3.85,.89-5.8,0,5.5,0,11,0,16.5,0,1.25,0,2.49,0,3.74Z"/><path class="ek" d="M274.39,77.21c.47-9.52,.76-19.05,1.61-28.54,.14-1.56,2.75-2.91,4.22-4.35-.21,22.7-.42,45.4-.63,68.09-.5,20.02-.92,40.05-1.66,60.07-.06,1.74-2.3,3.39-3.53,5.09-.75-2.47-1.5-4.95-2.24-7.42,0-1.7,.02-3.41,.02-5.11l2.22-87.84Z"/><path class="k" d="M269.82,77.16c-.02-12-.04-24-.06-36,.04-.23,.07-.46,.09-.69,.22-.05,.44-.1,.66-.14,.05,.32,.1,.64,.15,.96,0,2.2,0,4.4-.01,6.6l.02,2.3c.94,6.98,1.87,13.97,2.81,20.95-.47,19.76-.94,39.53-1.41,59.29-1.23,6.49-2.46,12.98-3.69,19.46-.02-4.75-.04-9.51-.06-14.26,.01-1.24,.03-2.47,.04-3.71,.49-18.25,.98-36.5,1.47-54.75Z"/><path class="af" d="M268.38,149.88c1.23-6.49,2.46-12.98,3.69-19.46-.02,1.49-.03,2.97-.05,4.46-.21,11.77-.42,23.54-.64,35.31,.27,2.89,.53,5.78,.8,8.67l-3.8,.29v-29.26Z"/><path class="k" d="M271.38,170.19c.21-11.77,.42-23.54,.64-35.31,.05,10.06,.11,20.11,.16,30.17,0,1.7-.02,3.41-.02,5.11l-.77,.03Z"/><path class="c`" d="M269.82,77.16c-.49,18.25-.98,36.5-1.47,54.75,0-8.24,0-16.48,0-24.72-.22-.73-.44-1.46-.66-2.19,.47-9.02,.93-18.04,1.4-27.06,.01-.24,.02-.48,.02-.73,.23-.02,.47-.03,.7-.05Z"/><path class="d`" d="M203.88,81.68c-.27,1.95-.11,4.09-.89,5.8-1.34,2.94-3.27,5.62-4.95,8.4-1.05-3.23-2.1-6.47-3.15-9.7,0-10.49,0-20.99,0-31.48,.8,6.51,1.6,13.01,2.49,20.33,1.84-2.39,2.96-3.83,5.52-7.16,.21-3.1,.59-8.88,.98-14.66,0,9.49,0,18.99,0,28.48Z"/><path class="c`" d="M272.18,165.04c-.05-10.06-.11-20.11-.16-30.17,.02-1.49,.03-2.98,.05-4.46,.47-19.76,.94-39.53,1.41-59.29,.29-4.48,.58-8.95,.87-13.43,.01,6.5,.03,13.01,.04,19.51-.74,29.28-1.48,58.56-2.22,87.84Z"/><path class="cj" d="M274.35,57.69c-.29,4.48-.58,8.95-.87,13.43-.94-6.99-1.87-13.97-2.81-20.95,.96,2,1.93,4,2.89,6,.26,.51,.53,1.01,.79,1.52Z"/><path class="e`" d="M270.52,40.32c-.22,.04-.44,.09-.66,.14,.01-1.49,.03-2.98,.04-4.46,3.97,1.49,7.94,2.99,11.91,4.48-.5,.98-1.01,1.95-1.51,2.93-3.26-1.03-6.51-2.06-9.77-3.09Z"/><path class="eh" d="M281.8,40.48c-3.97-1.5-7.94-2.99-11.91-4.48,3.62-.19,7.25-.38,11.6-.61,.1,1.61,.2,3.35,.31,5.09Z"/><path class="cs" d="M270.65,47.87c0-2.2,0-4.4,.01-6.6,2.27,0,4.54,0,8.17,0l-3.67,2.43-.59,.56c-1.31,1.2-2.61,2.41-3.92,3.61Z"/><path class="at" d="M270.65,47.87c1.31-1.2,2.61-2.41,3.92-3.61-.34,3.97-.67,7.94-1.01,11.91-.96-2-1.93-4-2.89-6,0-.77,0-1.53-.01-2.3Z"/><path class="dn" d="M275.16,43.7l3.67-2.43c-3.62,0-5.89,0-8.17,0-.05-.32-.1-.64-.15-.96,3.25,1.03,6.51,2.06,9.77,3.09-1.71,.1-3.41,.2-5.12,.3Z"/><path class="cc" d="M281.06,25.35c-1.83,1.96-3.06,3.28-4.29,4.59-1.33-1.36-2.66-2.71-3.98-4.07,1.52-1.26,2.9-2.81,4.63-3.59,.52-.24,2.01,1.64,3.64,3.07Z"/><path class="em" d="M152.88,209.89c-.66,1.62-1.1,3.41-2.12,4.77-.33,.44-2.17-.25-3.32-.43,.57-2.47,1.13-4.94,1.99-8.66,1.82,2.28,2.64,3.29,3.45,4.31v.02Z"/><path class="dh" d="M179.89,127.4c0-1,0-1.99,0-2.99,.25-7,.5-14,.75-21-.49-11-.97-22-1.46-33,1.49,1.5,2.97,3,4.46,4.51-.25,7-.49,14.01-.74,21.01,0,17.74,0,35.48,0,53.22-1-7.25-2-14.5-3-21.74Z"/><path class="bh" d="M179.89,127.4c1,7.25,2,14.5,3,21.74,0,10.21,0,20.42,0,30.63l-3-.08v-52.29Z"/><path class="ct" d="M183.63,74.92c-1.49-1.5-2.97-3-4.46-4.51,0-5.74-.02-11.49-.03-17.23,0-.5,0-.99,0-1.49,1.5,.75,2.99,1.5,4.49,2.25,0,2.5,0,5,0,7.5,0,3.75,0,7.49,0,11.24v2.23Z"/><path class="bf" d="M183.63,53.94c-1.5-.75-2.99-1.5-4.49-2.25-.15-2.53-.29-5.06-.44-7.59,3.15,.79,6.3,1.58,9.44,2.36-.02,.24-.03,.48-.04,.71-1.49,2.25-2.98,4.51-4.47,6.76Z"/><path class="dh" d="M183.64,72.69c0-3.75,0-7.49,0-11.24,1.49-3.25,2.98-6.51,4.47-9.76-1.24,7-2.48,14-3.72,21h-.75Z"/><path class="bh" d="M180.64,103.41l-.75,21,.75-21Z"/><path class="bv" d="M188.11,51.68c-1.49,3.25-2.98,6.51-4.47,9.76,0-2.5,0-5,0-7.5,1.49-2.25,2.98-4.51,4.47-6.76,0,1.5,0,3,0,4.5Z"/><path class="bh" d="M183.64,72.69h.75c-.5,7.75-1,15.5-1.5,23.24,.25-7,.49-14.01,.74-21.01,0-.74,0-1.49,0-2.23Z"/><path class="ad" d="M115.82,213.73c.14,2.33,.27,4.66,.41,6.99-1.37,.01-2.75,.03-4.12,.04,.33-2.38,.65-4.76,.98-7.14l2.73,.11Z"/><path class="dn" d="M151.39,76.42c0,4.5,0,9.01,0,13.51,.25,16.24,.51,32.48,.76,48.72-.25,11.49-.51,22.99-.76,34.48-1.09,1.73-2.18,3.45-3.58,5.67-1.19-2.99-2.17-5.45-3.16-7.92,.25-10.99,.49-21.98,.74-32.98-.25-5.25-.5-10.5-.74-15.74v-2.25c0-5,0-10,0-14.99-.25-11.99-.5-23.99-.75-35.98,2.49,2.5,4.99,4.99,7.48,7.49Z"/><path class="aj" d="M144.66,170.88c.98,2.47,1.97,4.94,3.16,7.92,1.4-2.22,2.49-3.95,3.58-5.67,0,7.25,0,14.5,0,21.74,0,.25,0,.49,0,.74-2.25-6.64-4.58-13.25-6.67-19.94-.46-1.46-.07-3.19-.07-4.79Z"/><path class="aj" d="M144.66,122.16c.25,5.25,.5,10.5,.74,15.74-.25-5.25-.5-10.5-.74-15.74Z"/><path class="aj" d="M144.66,104.92c0,5,0,10,0,14.99,0-5,0-10,0-14.99Z"/><path class="cr" d="M117.64,125.91c.26,1.5,.51,2.99,.77,4.49-.26,11.54-.43,23.08-.84,34.61-.11,3.22-.91,6.42-1.4,9.64l-.76-.76c.25-15.99,.5-31.98,.75-47.97h1.47Z"/><path class="cr" d="M107.93,204.62c-.25-.75-.5-1.5-.75-2.25,2.5-5.5,4.99-10.99,7.49-16.49l.75-2.25c.5-1.25,1-2.5,1.51-3.76-3,8.25-6,16.5-9,24.75Z"/><path class="au" d="M116.92,179.87c-.5,1.25-1,2.5-1.51,3.76,0-3.25,0-6.5,0-9.74l.76,.76c.25,1.74,.5,3.49,.75,5.23Z"/><path class="dt" d="M115.42,173.88c0,3.25,0,6.5,0,9.74-.25,.75-.5,1.5-.75,2.25-1.62,3.41-3.23,6.81-5.04,10.62-.84-1.28-2.12-2.4-2.33-3.7-.73-4.53-1.09-9.12-1.59-13.68-.02-12.23-.03-24.47-.05-36.7,0-21.49,0-42.99,0-64.48,.5,.5,1,1,1.51,1.5,.25,.5,.5,1,.75,1.5,.25,3.29,.4,6.59,.79,9.87,.21,1.72,.84,3.38,1.27,5.07,.55-.39,1.46-.68,1.59-1.18,1.35-5.32,2.58-10.67,3.84-16.01-.25-6.25-.5-12.49-.76-18.74,.25-2,.51-3.99,.76-5.99,.97-.01,1.93-.02,2.9-.04,.02,.5,.04,1,.06,1.5-.74,11.76-1.48,23.51-2.22,35.26,0,11.74,0,23.49,0,35.23-.25,15.99-.5,31.98-.75,47.97Z"/><path class="ae" d="M116.17,90.67c.74-11.75,1.48-23.51,2.22-35.26,0,18.76,0,37.52,0,56.27-.74-7-1.48-14.01-2.22-21.01Z"/><path class="bk" d="M116.17,90.67c.74,7,1.48,14.01,2.22,21.01-.25,4.74-.5,9.48-.75,14.22h-1.47c0-11.75,0-23.49,0-35.24Z"/><path class="au" d="M105.71,179.12c.5,4.56,.86,9.15,1.59,13.68,.21,1.29,1.49,2.42,2.33,3.7,1.8-3.8,3.42-7.21,5.04-10.62-2.5,5.5-4.99,10.99-7.49,16.49-.49-.74-.97-1.47-1.46-2.21,0-7.01,0-14.03,0-21.04Z"/><path class="am" d="M107.93,80.93c-.25-.5-.5-1-.75-1.5-.75-8.49-1.5-16.99-2.26-25.48h.01c3.24,1.99,6.48,3.99,9.73,5.98,.25,6.25,.5,12.49,.76,18.74-2.5,.75-4.99,1.5-7.49,2.25Z"/><path class="bt" d="M104.93,52.44c.43-2.33,.89-6.68,1.27-6.68,3.49,.06,6.96,.88,10.44,1.48-.41,1.73-.81,3.47-1.22,5.2-3.5,0-7,0-10.49,0Z"/><path class="an" d="M104.93,52.44c3.5,0,7,0,10.49,0,0,.5,0,1,0,1.5-.25,2-.51,3.99-.76,5.99-3.24-2-6.48-4-9.73-6,0-.5,0-1,0-1.5Z"/><path class="cf" d="M107.93,80.93c2.5-.75,4.99-1.5,7.49-2.25-1.26,5.34-2.49,10.69-3.84,16.01-.13,.5-1.04,.79-1.59,1.18-.44-1.69-1.07-3.36-1.27-5.07-.39-3.27-.54-6.58-.79-9.87Z"/></g></g></g></svg>