<?xml version="1.0" encoding="UTF-8"?><svg xmlns="http://www.w3.org/2000/svg" viewBox="0 0 30.7 19"><g id="a"/><g id="b"><g id="c"><g><path d="M10.53,14.65c.65,0,1.18,.53,1.18,1.18s-.53,1.18-1.18,1.18-1.18-.53-1.18-1.18,.53-1.18,1.18-1.18m0-2c-1.75,0-3.18,1.42-3.18,3.18s1.42,3.18,3.18,3.18,3.18-1.42,3.18-3.18-1.42-3.18-3.18-3.18h0Z"/><path d="M25.35,14.65c.65,0,1.18,.53,1.18,1.18s-.53,1.18-1.18,1.18-1.18-.53-1.18-1.18,.53-1.18,1.18-1.18m0-2c-1.75,0-3.18,1.42-3.18,3.18s1.42,3.18,3.18,3.18,3.18-1.42,3.18-3.18-1.42-3.18-3.18-3.18h0Z"/><path d="M27.53,2.12h-6.36V0H0C1.76,4.94,3.53,9.88,5.29,14.82H30.7c-1.06-4.23-2.11-8.47-3.17-12.7Zm-8.36,10.7H6.7l-1.77-4.96L2.84,2H19.17V12.82Zm1.89,0V4.12h4.9l1.21,4.84,.97,3.86h-7.08Z"/></g></g></g></svg>