<?xml version="1.0" encoding="UTF-8"?><svg xmlns="http://www.w3.org/2000/svg" viewBox="0 0 44.36 27"><g id="a"/><g id="b"><g id="c"><g><path d="M17.98,21.41c-.38-.88-1.06-1.59-1.91-2h-3.52c-.85,.41-1.53,1.12-1.91,2-.21,.49-.33,1.02-.33,1.59,0,2.21,1.78,4,4,4s4-1.79,4-4c0-.57-.12-1.1-.33-1.59Zm-3.67,3.84c-1.25,0-2.26-1-2.26-2.25,0-.62,.25-1.19,.66-1.59,.41-.41,.97-.66,1.6-.66s1.19,.25,1.59,.66c.41,.4,.66,.97,.66,1.59,0,1.25-1,2.25-2.25,2.25Z"/><path d="M16.56,23c0,1.25-1.01,2.25-2.25,2.25s-2.26-1.01-2.26-2.25,1.02-2.25,2.26-2.25,2.25,1.01,2.25,2.25Z"/><path d="M38.3,21.41c-.37-.88-1.05-1.59-1.91-2h-3.5c-.86,.41-1.54,1.12-1.91,2-.22,.49-.34,1.02-.34,1.59,0,2.21,1.79,4,4,4s4-1.79,4-4c0-.57-.12-1.1-.34-1.59Zm-3.66,3.84c-1.25,0-2.25-1-2.25-2.25,0-.62,.25-1.19,.66-1.59,.4-.41,.97-.66,1.59-.66s1.19,.25,1.6,.66c.41,.4,.66,.97,.66,1.59,0,1.25-1.01,2.25-2.26,2.25Z"/><path d="M36.9,23c0,1.25-1.02,2.25-2.26,2.25s-2.25-1.01-2.25-2.25,1.01-2.25,2.25-2.25,2.26,1.01,2.26,2.25Z"/><path d="M0,0C2.55,7.14,5.1,14.27,7.65,21.41H30.59V0H0ZM28.59,19.41H9.06l-1.12-3.13L2.84,2H28.59V19.41Z"/><path d="M39.77,3.06h-9.18v2h7.62l3.58,14.35h-11.2v2h13.77c-1.53-6.12-3.06-12.23-4.59-18.35Z"/><path d="M38.12,5l1.77,7.07-5.21-1.56V5h3.44m1.56-2h-7V12c3.33,1,6.67,2,10,3l-3-12h0Z"/><g><path d="M17.43,14.09c-.27-.42-.89-1.19-1.95-1.62-1.26-.52-2.42-.28-3.02-.08-.01-.62,.19-1.28,.59-1.88l-.26-.18c-.72,1.09-.85,2.39-.32,3.3,.36,.62,1.03,1.09,1.84,1.28,.27,.06,.55,.09,.83,.09,.78,0,1.56-.24,2.25-.69l.13-.09-.09-.13Zm-3.05,.51c-.73-.17-1.32-.58-1.64-1.13-.11-.18-.18-.39-.23-.61l2.23,.84,.06-.15,.05-.15-2.09-.78c.6-.16,1.57-.29,2.6,.14,.88,.36,1.43,.97,1.72,1.37-.83,.51-1.81,.68-2.7,.47Z"/><path d="M17.08,14.13c-.83,.51-1.81,.68-2.7,.47-.73-.17-1.32-.58-1.64-1.13-.11-.18-.18-.39-.23-.61l2.23,.84,.06-.15,.05-.15-2.09-.78c.6-.16,1.57-.29,2.6,.14,.88,.36,1.43,.97,1.72,1.37Z"/></g><g><path d="M22.04,11.06c-.08-.27-.2-.53-.34-.77-.38-.67-.98-1.23-1.72-1.6l-.14-.06-.07,.13c-.23,.45-.58,1.37-.43,2.5,.18,1.36,.97,2.24,1.44,2.66-.52,.32-1.2,.47-1.92,.43l-.02,.31c1.3,.08,2.48-.45,3.01-1.37,.36-.62,.43-1.43,.19-2.23Zm-.46,2.08c-.11,.18-.25,.35-.41,.5l-.39-2.35-.16,.03-.15,.02,.36,2.2c-.44-.43-1.03-1.21-1.18-2.32-.12-.94,.13-1.72,.33-2.17,.86,.46,1.49,1.23,1.76,2.1,.21,.72,.16,1.44-.16,1.99Z"/><path d="M21.58,13.14c-.11,.18-.25,.35-.41,.5l-.39-2.35-.16,.03-.15,.02,.36,2.2c-.44-.43-1.03-1.21-1.18-2.32-.12-.94,.13-1.72,.33-2.17,.86,.46,1.49,1.23,1.76,2.1,.21,.72,.16,1.44-.16,1.99Z"/></g><g><path d="M16.57,5.28c-.72,0-1.46,.35-2.03,.96-.19,.2-.36,.43-.5,.67-.38,.67-.57,1.47-.52,2.29v.16h.16c.51-.04,1.48-.19,2.39-.89,1.08-.83,1.45-1.95,1.58-2.57,.53,.29,1.01,.8,1.33,1.45l.28-.14c-.58-1.17-1.64-1.93-2.69-1.93Zm-.69,2.95c-.76,.57-1.56,.74-2.06,.79-.02-.97,.32-1.9,.95-2.57,.51-.54,1.16-.85,1.8-.85,.21,0,.43,.03,.64,.1l-1.84,1.52,.1,.12,.1,.12,1.72-1.42c-.15,.6-.53,1.5-1.41,2.19Z"/><path d="M17.29,6.04c-.15,.6-.53,1.5-1.41,2.19-.76,.57-1.56,.74-2.06,.79-.02-.97,.32-1.9,.95-2.57,.51-.54,1.16-.85,1.8-.85,.21,0,.43,.03,.64,.1l-1.84,1.52,.1,.12,.1,.12,1.72-1.42Z"/></g></g></g></g></svg>