<?xml version="1.0" encoding="UTF-8"?><svg xmlns="http://www.w3.org/2000/svg" viewBox="0 0 357.88 255.62"><defs><style>.d{fill:#6a6a6a;}.e{fill:#b7b7b7;}.f{fill:#9d9d9d;}.g{fill:#797979;}.h{fill:#939393;}.i{fill:#343434;}.j{fill:#0f0f0f;}.k{fill:#f4f4f4;}.l{fill:#fff;}.m{fill:#c5c5c5;}.n{fill:#cbcbcb;}.o{fill:#727272;}.p{fill:#d1d1d1;}.q{fill:#848484;}.r{fill:#cacaca;}.s{fill:#d8d8d8;}.t{fill:#bfbfbf;}.u{fill:#9c9c9c;}.v{fill:#aeaeae;}.w{fill:silver;}.x{fill:#989898;}.y{fill:#4b4b4b;}.a`{fill:#5f5f5f;}.aa{fill:#4a4a4a;}.ab{fill:#bababa;}.ac{fill:#959595;}.ad{fill:#868686;}.ae{fill:#909090;}.af{fill:#393939;}.ag{fill:#7c7c7c;}.ah{fill:#1c1c1c;}.ai{fill:#8d8d8d;}.aj{fill:#c7c7c7;}.ak{fill:#a4a4a4;}.al{fill:#6b6b6b;}.am{fill:#696969;}.an{fill:#c3c3c3;}.ao{fill:#cfcfcf;}.ap{fill:#bdbdbd;}.aq{fill:#707070;}.ar{fill:#646464;}.as{fill:#818181;}.at{fill:#969696;}.au{fill:#626262;}.av{fill:#b0b0b0;}.aw{fill:gray;}.ax{fill:#444;}.ay{fill:#505050;}.b`{fill:#767676;}.ba{fill:#8e8e8e;}.bb{fill:#b8b8b8;}.bc{fill:#898989;}.bd{fill:#7d7d7d;}.be{fill:#a1a1a1;}.bf{fill:#747474;}.bg{fill:#181818;}.bh{fill:#424242;}.bi{fill:#2b2b2b;}.bj{fill:#c8c8c8;}.bk{fill:#737373;}.bl{fill:#a3a3a3;}.bm{fill:#3b3b3b;}.bn{fill:#464646;}.bo{fill:#b6b6b6;}.bp{fill:#aaa;}.bq{fill:#878787;}.br{fill:#afafaf;}.bs{fill:#858585;}.bt{fill:#bebebe;}.bu{fill:#4f4f4f;}.bv{fill:#373737;}.bw{fill:#636363;}.bx{fill:#c1c1c1;}.by{fill:#161616;}.c`{fill:#474747;}.ca{fill:#141414;}.cb{fill:#535353;}.cc{fill:#bcbcbc;}.cd{fill:#515151;}.ce{fill:#b1b1b1;}.cf{fill:#2d2d2d;}.cg{fill:#383838;}.ch{fill:#ababab;}.ci{fill:#757575;}.cj{fill:#0b0b0b;}.ck{fill:#bbb;}.cl{fill:#b3b3b3;}.cm{fill:#434343;}.cn{fill:#7e7e7e;}.co{fill:#9a9a9a;}.cp{fill:#606060;}.cq{fill:#7b7b7b;}.cr{fill:#1f1f1f;}.cs{fill:#7a7a7a;}.ct{fill:#454545;}.cu{fill:#a8a8a8;}.cv{fill:#949494;}.cw{fill:#070707;}.cx{fill:#acacac;}.cy{fill:#b5b5b5;}.d`{fill:#595959;}.da{fill:#cdcdcd;}.db{fill:#5b5b5b;}.dc{fill:#9e9e9e;}.dd{fill:#c6c6c6;}.de{fill:#d0d0d0;}.df{fill:#666;}.dg{fill:#c4c4c4;}.dh{fill:#3c3c3c;}.di{fill:#888;}.dj{fill:#5e5e5e;}.dk{fill:#a2a2a2;}.dl{fill:#b9b9b9;}</style></defs><g id="a"/><g id="b"><g id="c"><g><path class="l" d="M178.68,255.62c-58.88,0-117.77,0-176.65-.08-.68,0-1.96-1.28-1.96-1.96-.09-83.85-.09-167.7,0-251.55,0-.68,1.28-1.96,1.96-1.96,117.94-.09,235.88-.09,353.82,0,.68,0,1.96,1.28,1.96,1.96,.09,83.85,.09,167.7,0,251.55,0,.68-1.28,1.96-1.96,1.96-59.06,.09-118.11,.08-177.17,.08ZM54.27,181.58l1.42-.74c2.21-.35,4.42-.7,6.63-1.06,5.1,.05,10.2,.14,15.31,.15,70.36,.16,140.72,.31,211.09,.47,3.14,0,6.28,.11,9.43,.18,1.65,.35,3.29,.7,4.94,1.04,4.63,.12,9.33,.83,13.85,.17,3.04-.44,5.8-2.81,8.69-4.31l.68-1.07c.13-.35,.27-.69,.4-1.04,.17-3.59,.34-7.18,.52-10.77,.33-8.81,.91-17.62,.91-26.43,0-9.24-.57-18.49-.89-27.73-9.72-2.74-19.44-5.49-29.15-8.23-2.05-.16-4.09-.32-6.14-.48-.34-4.6-.68-9.2-1.02-13.79,0-7.67-.02-15.34-.03-23.01l.03-2.05c-.51-.85-1.03-1.7-1.54-2.56l-1-.52c-19.74,.67-39.49,1.33-59.23,2-14.34-.81-28.68-1.62-43.02-2.43l-4.67,1.91-.89,2.15c-.07,.14-.14,.29-.21,.43l-.91-.97c-1.37-1.18-2.74-2.36-4.11-3.54l-12.29,.92-2.53,.12c-8.52,.32-17.04,.65-25.56,.97l-12.82,.46c-15.32-1-30.64-2-45.95-3h-2.08l-2.65,.38-2.02,1.55-.35,1.66c-.2,7.49-.39,14.97-.59,22.46l-.96,8.7c2.26,9.83-5.55,8.03-10.72,9.28-4.95,1.19-9.89,2.39-14.84,3.58-1.86,.51-3.72,1.03-5.59,1.54l-3.74,1.35-1.92,14.87c.17,11.57,.34,23.13,.51,34.7v10.52c-2.33,1.3-4.29,1.94-5.57,3.25-1.01,1.04-1.92,4.01-1.62,4.21,2.71,1.78,5.69,3.13,8.6,4.61l21.64,.11Z"/><path class="bo" d="M134.96,61.34c8.52-.32,17.04-.65,25.56-.97l-.5,1.98h-5.62l-7.16,.51c-.7,.31-2.03,.81-2,.91,.68,2.31,1.51,4.58,2.32,6.86l1.44-.93c.59,1.11,1.1,2.07,.86,1.61-1.66,2.81-2.79,4.73-4.01,6.8l4.09,1.23-2.05,2.38c1.49,1.55,2.97,3.11,4.46,4.66l-.51,1.54c-1.54,.34-3.07,.68-4.61,1.02-1.79-11.88-6.05-1.45-9.2-1.02l-14.32,1.03-.67-2.14,5.47-4.33c-3.61-1.93-7.22-3.86-9.85-5.27-.93,.11-.13,.02,.66-.08l-.44-2.17c-3.75,.94-7.5,1.88-10.58,2.65l1.11-3.6-7.18,.1c.4-3.35,2.15-7.46,.81-9.81-1.22-2.14-5.73-2.88-8.91-3.31-3.23-.43-6.61,.27-9.93,.47l-8.01-2.67c15.32,1,30.64,2,45.95,3,.18,.19,.37,.38,.55,.56-1.7,1.53-5.08,4.01-4.83,4.45,1.64,2.92,4.06,5.41,3.78,5.07,6.84-.33,9.33-.53,11.8-.4,.21,.01,.07,2.37,.5,3.48,.9,2.33,1.9,4.66,3.21,6.77,.58,.94,2.01,1.37,2.91,1.94,.61-7.41,1.17-14.22,1.65-20.06-5.85-.42-11.67-.83-17.49-1.24l10.73-1.03Z"/><path class="dg" d="M175.33,59.34c1.37,1.18,2.74,2.36,4.11,3.54-.51,.15-1.46,.28-1.46,.44-.16,6.77,.03,13.56-.41,20.32-.28,4.3-1.25,8.61-2.54,12.71-.15,.47-4.36-.33-9.74-.82,5.11-1.17,7.08-1.62,9.05-2.07l-.29-1.44c-2.73,.43-5.45,.85-8.11,1.27v-6.02c1.04,.71,1.95,1.34,1.87,1.28,2.93-.59,5.1-1.02,7.28-1.46l-.06-1.51c-5.51,.27-11.03,.55-16.54,.82-.23-.84-.46-1.67-.81-2.95h2.33l-.36-1.33c3.59-.62,7.14-1.24,10.7-1.85-4.42-2.26-8.71-4.45-13.73-7.02,.36-.24-.42,.28-1.19,.8l-1.79-2.98,14.56-8.69,5.62-2.04,1.51-.99Z"/><path class="ap" d="M186.13,59.35c14.34,.81,28.68,1.62,43.02,2.43-.79,.06-1.58,.11-3.59,.26,6.25,.71,11.25,1.28,16.26,1.84-2.13,1.91-3.96,4.62-6.46,5.54-4.42,1.63-15.99-10.69-10.97,9.87-2.91-3.98-3.84-5.26-4.54-6.21-.8,.31-1.63,.97-2.17,.78-4.02-1.37-8.01-2.82-11.95-4.4-5.72-2.3-11.39-4.73-17.09-7.11-.84-1-1.68-2-2.52-3Z"/><path class="u" d="M69.43,60.73c.67-.52,1.35-1.03,2.02-1.55,1.74,2.26,3.48,4.51,5.22,6.76,3.44,4.24,6.88,8.47,10.65,13.12-1.07,.51-.36,.17-.21,.1,1.66,1.76,3.02,3.21,4.39,4.66,5,1.02,10,2.03,15.99,3.25l3.69,2.44-2.28,1.99-4.6,3.07-5.62,2.56c-1.11,.34-2.22,.67-4.78,1.44-1.54-.36-6.05-1.41-10.55-2.47,.76-1.27,1.52-2.54,2.28-3.81l-3.83-.26c-1.7-1.03-3.39-2.06-5.09-3.09,1.87-.51,3.74-1.02,5.61-1.52l1.53,.02,8.39,2.13,.68-2.26c-2.51-.98-5.03-1.96-7.54-2.94-5.1-7.5-10.21-15.01-15.31-22.51l-.62-1.11Z"/><path class="cy" d="M158.49,86.39c5.51-.27,11.03-.55,16.54-.82l.06,1.51c-2.18,.44-4.35,.87-7.28,1.46,.08,.05-.83-.57-1.87-1.28v6.02c2.66-.42,5.39-.84,8.11-1.27l.29,1.44c-1.97,.45-3.94,.9-9.05,2.07,5.38,.49,9.59,1.3,9.74,.82,1.29-4.11,2.26-8.41,2.54-12.71,.44-6.75,.25-13.54,.41-20.32,0-.16,.95-.29,1.46-.44,.3,.32,.61,.65,.91,.97,.04,.13,.07,.26,.08,.39-.34,.7-.96,1.4-.97,2.11-.25,14.11-.31,28.22-.72,42.32-.07,2.47-1.55,4.89-2.37,7.33-2.72-.33-5.44-.66-8.17-.99l-3.06-.02v-1.52l8.67-1.16-3.57-2.92c.15-.85,.31-1.71,.21-1.16-1.9-2.2-3.12-3.62-4.21-4.89l5.09-.94c-3.32-2.42-5.56-4.05-8.49-6.18-.31,.8,.01-.04,.38-.96-9.04,.74-12.54-1.57-11.39-7.34l.51-1.54c2.05,0,4.09,0,6.14,0Zm16.44,14.03c-.91,1.27-2.52,2.6-2.28,3.35,.88,2.8,2.37,5.4,3.63,8.08,.58-.41,1.69-.87,1.66-1.22-.39-4.25-.89-8.5-1.65-12.7-.04-.23-2.53-.03-6.55-.03,3.63,1.76,4.72,2.29,5.18,2.52Z"/><path class="ax" d="M298.14,180.57c-3.14-.06-6.28-.17-9.43-.18-70.36-.16-140.72-.31-211.09-.47-5.1-.01-10.2-.1-15.31-.15,.02-.19,.05-.38,.07-.57l.1-.72,6.48-.62c.74,.17,1.48,.5,2.22,.5,62.85,.04,125.7,.06,188.56,.08,6.49,.16,12.99,.32,19.48,.48l3.52,.02c4.25,.17,8.51,.34,12.76,.51l1.52,.49,1.12,.64Z"/><path class="ce" d="M186.13,59.35c.84,1,1.68,2,2.52,3,6.61,3.7,13.22,7.39,19.83,11.09l.64-1.4c4.81,2.56,9.63,5.12,14.81,7.87-.41,.64-1.04,1.65-2.07,3.29,4.89-.27,9.29-.51,13.67-.75,3.46-1.72,6.03-3.01,8.6-4.29-.48-.92-.96-1.85-1.43-2.77l2.95-1.47,1.24,1.86c-.83,1.13-1.39,1.9-1.95,2.66l5.07,3.06c.24,1.15,.64,3.02,1.03,4.89-4.45-.6-8.89-1.2-13.34-1.8l-.63,2.78-3.41,1.06-4.39-.92-.11,.58-5.73-.68-4-1.48c-1.51-3.03-4-4.49-6.39-6.09-2.99-2.01-5.89-4.14-8.83-6.22l-1.06,1.51-2.73-2.54c-5.61-3.41-11.23-6.83-16.84-10.24l-1.5-.53-.61-.55,4.67-1.91Z"/><path class="bx" d="M76.19,58.8l8.01,2.67c3.32-.2,6.7-.9,9.93-.47,3.18,.43,7.69,1.16,8.91,3.31,1.34,2.35-.41,6.46-.81,9.81l-1.03,.51c-8.26-4.04-16.52-8.08-25.92-12.67,1.14-.43,.46-.18-.21,.08l-.98-3.22h2.08Z"/><path class="p" d="M327.22,110.43c.32,9.24,.88,18.49,.89,27.73,0,8.81-.58,17.62-.91,26.43-.25-4.24-.51-8.47-.76-12.71l-1.45-.06c-.28,3.75-.57,7.51-.85,11.26-2.21-1.71-4.42-3.41-6.64-5.12,.91-.64,1.83-1.28,2.92-2.05-.19-1.61-.41-3.55-.64-5.53,1.18,.31,1.96,.51,2.74,.72-.19-1.04-.38-2.08,.12,.67v-9.58l.88,.15,1.73-29.29c-1.18,.5-1.82,.77-4.98,2.09,3.4-2.71,4.71-3.76,6.02-4.8l.94,.09Z"/><path class="bo" d="M74.1,58.81l.98,3.22c.68-.26,1.36-.51,.21-.08,9.4,4.59,17.66,8.63,25.92,12.67-.34,2.73-.68,5.46-1.02,8.19-.85,0-1.7,0-2.55,0-6.99-5.62-13.98-11.25-20.97-16.87-1.74-2.25-3.48-4.51-5.22-6.76,.88-.12,1.77-.25,2.65-.37Z"/><path class="r" d="M317.5,157.97c2.21,1.71,4.42,3.41,6.64,5.12,.85,4.09,1.7,8.19,2.55,12.28-.13,.35-.27,.69-.4,1.04-1.96-.33-4.04-.35-5.81-1.11-.92-.39-1.28-2.09-1.89-3.19,.75-.51,1.49-1.03,2.24-1.54-1.16-.79-2.32-1.58-3.46-2.36l.54-3.38-1.42-.42c-1.07,2.73-2.13,5.45-3.31,8.47-1.1-1.26-1.71-1.94-2.31-2.63,0-.17,0-.34,0-.51,.68-2.9,1.36-5.8,2.04-8.69,1.53-1.02,3.07-2.05,4.6-3.07Z"/><path class="cl" d="M241.83,63.89c-5.01-.57-10.02-1.13-16.26-1.84,2.01-.15,2.8-.2,3.59-.26,19.74-.67,39.49-1.33,59.23-2-1.03,.18-2.05,.37-3.08,.55-1.88,.5-3.76,1-5.64,1.5l-12.69-.59c1.79,1.52,2.5,2.12,3.22,2.73-.9,.5-1.78,1.39-2.7,1.43-1.85,.08-3.72-.3-5.59-.49-5.05,.63-10.18,.65-15.31,.6-.38,0-.76-.55-1.13-.85l4.74-3.54c-4.38,1.44-6.38,2.1-8.38,2.75Z"/><path class="ao" d="M289.38,60.31c.51,.85,1.03,1.7,1.54,2.56-1.21,.63-2.42,1.26-6.04,3.15,3.7-.68,4.86-.89,6.01-1.1l.03,23.01c-.3,2.05-.61,4.09-.79,5.32-.65-1.07-1.47-2.42-2.28-3.77-.5,0-1.01-.01-1.51-.02-.18-.68-.35-1.36-.53-2.03,.51-2.05,1.02-4.09,1.53-6.14l-2.05-1.02c1.14-.67,2.29-1.35,3.45-2.03-.95-1.66-1.95-3.39-2.95-5.13-.17,0-.34,0-.5,0,1.36-4.26,2.73-8.53,4.09-12.79Z"/><path class="an" d="M287.84,89.46c.82,1.35,1.64,2.7,2.28,3.77,.18-1.22,.49-3.27,.79-5.32,.34,4.6,.68,9.2,1.02,13.79,.2,1.2,.41,2.4,.61,3.61-.07,.16-.13,.32-.2,.48-1.57-.43-3.8-.36-4.57-1.39-1.72-2.32-2.72-5.17-4.01-7.81,1.36-2.38,2.72-4.76,4.08-7.14Z"/><path class="bi" d="M180.44,64.24c-.02-.13-.05-.27-.08-.39,.07-.14,.14-.29,.21-.43,.23,5.9,.31,11.82,.75,17.7,.33,4.5,1.12,8.97,1.7,13.46-.37,5.81-.74,11.63-1.1,17.44,.9,1.33,1.79,2.66,2.69,3.99-1.55-.55-4.46-1.08-4.46-1.64-.08-16.71,.13-33.42,.29-50.12Z"/><path class="dg" d="M310.86,170.24c.6,.69,1.2,1.37,2.31,2.63,1.18-3.01,2.24-5.74,3.31-8.47l1.42,.42-.54,3.38c1.14,.78,2.3,1.57,3.46,2.36-.75,.51-1.49,1.03-2.24,1.54,.61,1.11,.97,2.8,1.89,3.19,1.77,.76,3.86,.78,5.81,1.11-.22,.36-.45,.72-.68,1.07-.15-.03-.3-.05-.44-.07-4.6-.18-9.2-.35-13.8-.53l-3.56-4.08c1.02-.85,2.04-1.71,3.06-2.56Z"/><path class="at" d="M327.22,110.43c-.31-.03-.63-.06-.94-.09-3.44-.3-6.88-.59-10.32-.89-2.22,.13-4.44,.27-6.66,.4l-11.23-7.66c9.72,2.74,19.44,5.49,29.15,8.23Z"/><path class="k" d="M32.64,181.47c-2.9-1.48-5.89-2.83-8.6-4.61-.3-.2,.61-3.17,1.62-4.21,1.28-1.31,3.24-1.95,5.57-3.25,0-2.75,0-6.63,0-10.52,.17,4.12,.34,8.23,.51,12.35,.5,1.89,1,3.77,1.5,5.66,0,.17-.05,.33-.12,.48l-.26,4.16-.21-.06Z"/><path class="o" d="M69.43,60.73c.21,.37,.41,.74,.62,1.11,1.84,3.19,3.69,6.37,5.53,9.56,1.35,2.24,2.71,4.48,4.06,6.72l-9.22-4.53c3.8,3.7,4.91,3.73,5.67,4.25,.28,.2-.26,1.57-.43,2.41h-3.58c-1-5.95-2-11.91-3-17.86l.35-1.66Z"/><path class="s" d="M326.69,175.36c-.85-4.09-1.7-8.19-2.55-12.28,.28-3.75,.57-7.51,.85-11.26l1.45,.06c.25,4.24,.51,8.47,.76,12.71-.17,3.59-.34,7.18-.52,10.77Z"/><path class="co" d="M36.39,107.96c1.86-.51,3.72-1.03,5.59-1.54,7.15-.72,14.3-1.43,21.44-2.15,.52,.17,1.03,.33,1.55,.5-6.49,1.2-12.98,2.4-19.46,3.59-3.04-.13-6.08-.27-9.12-.4Z"/><path class="dj" d="M69.08,62.39c1,5.95,2,11.91,3,17.86,.16,1.01,.32,2.02,.48,3.03-.16,.01-.32,.02-.48,.04,.17,1.02,.33,2.04,.5,3.06h0l-2.56,5.64-1.53,1.52h0c0-2.9,0-5.79,0-8.69,.2-7.49,.39-14.97,.59-22.46Z"/><path class="bj" d="M289.38,60.31c-1.36,4.26-2.73,8.53-4.09,12.79,0-4.25,0-8.5,.01-12.75l3.08-.55c.34,.17,.67,.34,1.01,.52Z"/><path class="cg" d="M183.02,94.57c-.58-4.48-1.37-8.95-1.7-13.46-.44-5.89-.52-11.8-.75-17.7l.89-2.15c.2,.18,.4,.37,.61,.55,.12,.88,.24,1.75,.36,2.63l.11,1.48c.32,2.91,.65,5.82,.97,8.73l-.48,10.71c.01,.16,.02,.32,.04,.48-.17,2.4-.33,4.81-.5,7.21l.46,1.52Z"/><path class="ad" d="M31.74,171.23c-.17-4.12-.34-8.23-.51-12.35-.17-11.57-.34-23.13-.51-34.7,.17-3.58,.33-7.15,.5-10.73,.29,1.42,.81,2.84,.83,4.27,.11,10.18,.11,20.36,.15,30.54l-.45,22.97Z"/><path class="bn" d="M64.97,104.76c-.52-.17-1.03-.33-1.55-.5-2.2-.48-4.4-.96-6.6-1.43,5.17-1.25,12.98,.55,10.72-9.28h.97c.85,.85,1.7,1.7,2.55,2.56,.16,0,.32,.01,.48,.02l.51,1.99-3.54,6.17-.99,5.08-.63-4.28-.51,.81c-.14-.04-.28-.07-.42-.09l-.98-1.05Z"/><path class="ba" d="M298.07,102.2c3.74,2.55,7.49,5.11,11.23,7.66-.52,.19-1.03,.37-1.55,.56-.16,0-.32,0-.48,0-4.78-1.71-9.56-3.42-14.33-5.13-.13,.03-.27,.04-.4,.03l-.61-3.61c2.05,.16,4.09,.32,6.14,.48Z"/><path class="ch" d="M36.39,107.96c3.04,.13,6.08,.27,9.12,.4-.52,.35-1.03,.69-1.55,1.04l-4.6,.52-5.61,6.63-1.99-5.1,.89-2.14,3.74-1.35Z"/><path class="ar" d="M325.16,177.41c.15,.02,.3,.05,.44,.07-2.89,1.5-5.65,3.87-8.69,4.31-4.51,.66-9.22-.05-13.85-.17l.29-.33c.42,.04,.84,.09,1.26,.13h19.18v-.45c-.73,0-1.47,0-2.21,0-.68-1.02-1.36-2.03-2.04-3.05,1.87-.17,3.74-.34,5.6-.52Z"/><path class="ck" d="M173.83,60.32c-1.87,.68-3.75,1.36-5.62,2.04-2.73,0-5.46,0-8.19,0l.5-1.98c.84-.04,1.69-.08,2.53-.12,3.59,.02,7.19,.04,10.78,.07Z"/><path class="bc" d="M56.81,102.83c2.2,.48,4.4,.96,6.6,1.43-7.15,.72-14.29,1.43-21.44,2.15,4.95-1.19,9.89-2.39,14.84-3.58Z"/><path class="cd" d="M33.11,177.37c.08-.15,.12-.31,.12-.48,7.11-.04,14.23-.07,21.34-.11l1.13,3.65c0,.13-.01,.27,0,.4l-1.42,.74-.17-.14c-1.77-1.35-3.44-3.65-5.32-3.85-5.17-.55-10.44-.2-15.67-.21Z"/><path class="ar" d="M55.69,180.83c0-.13,0-.27,0-.4,1.01-.99,2.02-1.97,3.02-2.96,1.22,.58,2.44,1.15,3.66,1.73-.02,.19-.05,.38-.07,.57-2.21,.35-4.42,.7-6.63,1.05Z"/><path class="ce" d="M173.83,60.32c-3.59-.02-7.19-.04-10.78-.07,4.1-.31,8.19-.61,12.29-.92-.5,.33-1,.66-1.51,.99Z"/><path class="ar" d="M298.14,180.57l-1.12-.64c1.05-.83,2.1-1.65,3.14-2.48,1.07,1.28,2.14,2.56,3.21,3.84l-.29,.33c-1.65-.35-3.29-.7-4.94-1.04Z"/><path class="cd" d="M54.27,181.58l-21.64-.11,.21,.06c7.09-.03,14.17-.06,21.26-.09l.17,.14Z"/><path class="cb" d="M68.5,93.55h-.97l.96-8.69c0,2.9,0,5.8,0,8.69Z"/><path class="b`" d="M32.64,109.31c-.3,.71-.59,1.43-.89,2.14-.18,.67-.36,1.33-.54,2-.17,3.58-.33,7.15-.5,10.73,.64-4.96,1.28-9.91,1.92-14.87Z"/><path class="ak" d="M122.69,62.36c-.18-.19-.37-.38-.55-.56,4.27-.15,8.54-.31,12.82-.46-3.58,.34-7.15,.68-10.73,1.03-.51,0-1.03,0-1.54,0Z"/><path class="bj" d="M290.89,64.91c-1.15,.21-2.3,.42-6.01,1.1,3.62-1.88,4.83-2.52,6.04-3.15-.01,.68-.02,1.37-.03,2.05Z"/><path class="av" d="M100.19,82.81c.34-2.73,.68-5.46,1.02-8.19,.34-.17,.68-.34,1.03-.51,2.39-.03,4.78-.07,7.18-.1l-1.11,3.6c3.07-.77,6.83-1.71,10.58-2.65l.44,2.17c-.79,.09-1.58,.19-.66,.08,2.63,1.41,6.24,3.34,9.85,5.27l-5.47,4.33,.67,2.14c.17,.51,.33,1.02,.5,1.53,0,.34,0,.68,0,1.02l-3.06,1.54c-2.56-2.16-5.11-4.33-7.67-6.49l-2.09,2.35c-2.67-2.38-5.33-4.76-7.83-6.98,.32-.09-1.53,.41-3.39,.9Z"/><path class="ck" d="M160.02,62.36c2.73,0,5.46,0,8.19,0-4.85,2.9-9.71,5.8-14.56,8.69l1.79,2.98c.77-.52,1.54-1.03,1.19-.8,5.02,2.57,9.31,4.76,13.73,7.02-3.55,.62-7.1,1.23-10.7,1.85l.36,1.33h-2.33c.35,1.28,.58,2.11,.81,2.95-2.05,0-4.09,0-6.14,0-1.49-1.55-2.97-3.11-4.46-4.66l2.05-2.38-4.09-1.23c1.22-2.06,2.35-3.98,4.01-6.8,.24,.46-.27-.5-.86-1.61l-1.44,.93c-.81-2.29-1.64-4.55-2.32-6.86-.03-.1,1.3-.59,2-.91,.67,.95,1.78,2.79,1.94,2.71,1.82-.9,3.5-2.1,5.22-3.22h5.62Z"/><path class="ck" d="M122.69,62.36c.51,0,1.03,0,1.54,0,5.82,.41,11.64,.83,17.49,1.24-.48,5.84-1.04,12.65-1.65,20.06-.91-.57-2.33-.99-2.91-1.94-1.31-2.11-2.31-4.44-3.21-6.77-.43-1.11-.29-3.47-.5-3.48-2.47-.13-4.97,.08-11.8,.4,.28,.34-2.14-2.15-3.78-5.07-.25-.44,3.13-2.92,4.83-4.45Z"/><path class="br" d="M151.84,87.92c-1.15,5.76,2.35,8.07,11.39,7.34-.36,.93-.69,1.76-.38,.96,2.93,2.13,5.17,3.76,8.49,6.18l-5.09,.94c1.09,1.27,2.31,2.69,4.21,4.89,.1-.55-.05,.3-.21,1.16-1.53-.17-3.07-.34-4.6-.5l-2.35-3.03c-.27,.95-.49,1.74-.71,2.52h-.51c-2.95-1.68-5.89-3.36-8.84-5.05,.91-1.92,1.79-3.78,2.46-5.2l-7.94-3.04-.51-6.15c1.54-.34,3.07-.68,4.61-1.02Z"/><path class="cu" d="M124.22,90.48l-.5-1.53c4.77-.34,9.54-.69,14.32-1.03,1.31,.3,2.62,.6,4.89,1.13l1.76,4.5-8.42-1.2-.3,.75-11.74-2.62Z"/><path class="br" d="M144.68,93.55c-.55-1.42-1.11-2.83-1.76-4.5-2.27-.53-3.58-.83-4.89-1.13,3.15-.43,7.41-10.86,9.2,1.02,.17,2.05,.34,4.1,.51,6.15-1.02-.51-2.04-1.03-3.07-1.54Z"/><path class="ck" d="M154.4,62.36c-1.72,1.12-3.39,2.31-5.22,3.22-.16,.08-1.27-1.76-1.94-2.71,2.39-.17,4.77-.34,7.16-.51Z"/><path class="e" d="M241.83,63.89c2-.66,3.99-1.31,8.38-2.75l-4.74,3.54c.38,.29,.75,.84,1.13,.85,5.13,.06,10.26,.04,15.31-.6,1.86,.19,3.73,.57,5.59,.49,.92-.04,1.8-.93,2.7-1.43-.71-.6-1.42-1.21-3.22-2.73,4.9,.23,8.79,.41,12.69,.59-.7,.52-1.33,1.18-2.1,1.55-2.89,1.37-5.83,2.65-8.76,3.97,1.31,1.1,2.61,2.2,4.42,3.73l3.03,4.33c-.71,1-1.73,2.46-2.78,3.95,1.58,.92,2.86,1.67,4.14,2.42-.34,.85-.68,1.71-1.02,2.56l-.51,.5c-1.96-1.64-3.91-3.29-2.72-2.28-2.51,.86-4.73,1.72-7.02,2.25-.29,.07-.99-1.64-1.51-2.52,0-.17,0-.34,0-.51,2.28-2,4.57-4.01,8.58-7.53-5.9-.3-9.28-.48-12.67-.65-1.98,3.31-4.06,6.57-5.79,10.01-.19,.38,1.65,1.78,2.55,2.71l-6.48,.06c-.39-1.87-.79-3.74-1.03-4.89l-5.07-3.06c.56-.76,1.12-1.52,1.95-2.66l-1.24-1.86-2.95,1.47c.48,.92,.96,1.85,1.43,2.77-2.57,1.28-5.15,2.57-8.6,4.29-4.38,.24-8.78,.48-13.67,.75,1.04-1.64,1.67-2.65,2.07-3.29-5.18-2.75-9.99-5.31-14.81-7.87l-.64,1.4c-6.61-3.7-13.22-7.39-19.83-11.09,5.69,2.38,11.36,4.81,17.09,7.11,3.94,1.58,7.93,3.03,11.95,4.4,.54,.18,1.37-.47,2.17-.78,.7,.95,1.63,2.23,4.54,6.21-5.03-20.56,6.55-8.24,10.97-9.87,2.49-.92,4.33-3.63,6.46-5.54Z"/><path class="ac" d="M83.33,96.1c4.5,1.05,9.01,2.11,10.55,2.47,2.56-.77,3.67-1.11,4.78-1.44l4.58,3.71c-1.67,.32-2.17,.41,1.1-.21-.44,.41,1.57-1.48,2.7-2.54,3.17,.53,5.39,.9,6.45,1.07v7.17c-2.54-2.2-5.07-4.4-7.61-6.6l.36,4.45c-6.88,1.51-13.76,3.02-16.78,3.68h-10.73l.88-2.46c-1.21-1.5-2.4-2.97-3.58-4.45,1.84-.01,3.7,.1,5.52-.08,1.98-.19,3.93-.65,5.9-.99-1.38-.74-2.76-1.48-4.15-2.22-.16-.01-.32-.03-.49-.04l.52-1.52Z"/><path class="x" d="M113.49,106.33v-7.17c-1.05-.18-3.28-.54-6.45-1.07-1.13,1.07-3.14,2.96-2.7,2.54-3.27,.62-2.77,.52-1.1,.21-1.92-1.55-3.25-2.63-4.58-3.71,1.87-.85,3.75-1.71,5.62-2.56,.43,1.08,.87,2.16,1.3,3.24l3.81-4.26,13.81,3.58c1.78,.59,3.57,1.19,6.27,2.09l-2.88,.63c1.34,1.57,2.56,3.01,3.78,4.44-.68,.68-1.37,1.36-2.05,2.04-1.19,.17-2.38,.34-3.58,.51-2.05,.34-4.09,.68-6.14,1.03l-2.05,.5-3.07-2.04Z"/><path class="be" d="M123.21,97.13c-4.6-1.19-9.21-2.38-13.81-3.58l-.51-2.05,2.28-1.99-3.69-2.44c-5.98-1.21-10.98-2.23-15.99-3.25,.43-.6,.85-1.21,.48-.69l5.66-.33c.85,0,1.7,0,2.55,0,1.86-.49,3.71-.99,3.39-.9,2.5,2.23,5.16,4.61,7.83,6.98l2.09-2.35c2.56,2.16,5.11,4.33,7.67,6.49,1.36,.17,2.72,.34,4.09,.51h0c-.68,1.2-1.36,2.39-2.05,3.58Z"/><path class="ch" d="M97.64,82.82c-1.6,.09-3.2,.19-5.66,.33,.37-.52-.06,.08-.48,.69-1.37-1.45-2.73-2.91-4.39-4.66-.15,.07-.86,.41,.21-.1-3.77-4.65-7.21-8.89-10.65-13.12,6.99,5.62,13.98,11.25,20.97,16.87Z"/><path class="bc" d="M72.09,83.33c.16-.01,.32-.03,.48-.04,2.21,0,4.43,0,9.64,0-4.01-1.86-5.27-2.45-6.54-3.03,.17-.84,.71-2.21,.43-2.41-.76-.53-1.87-.56-5.67-4.25l9.22,4.53c-1.35-2.24-2.71-4.48-4.06-6.72-1.84-3.19-3.69-6.37-5.53-9.56,5.1,7.5,10.21,15,15.31,22.51h-2.04l-11.24-1.02Z"/><path class="ad" d="M76.69,88.93c1.7,1.03,3.39,2.06,5.09,3.09,.47,.64,.95,1.29,2.23,3.02-3.17-.19-5.5-.33-7.83-.46-1.54-.68-3.08-1.36-4.62-2.04h0l5.1-3.57,.03-.04Z"/><path class="ad" d="M83.33,84.34h2.04c2.51,.98,5.03,1.96,7.54,2.95l-.68,2.26c-2.8-.71-5.6-1.42-8.39-2.13l-.51-3.08Z"/><path class="at" d="M76.18,94.58c2.33,.14,4.66,.28,7.83,.46-1.28-1.73-1.75-2.37-2.23-3.02,1.28,.09,2.55,.17,3.83,.26-.76,1.27-1.52,2.54-2.28,3.81-.17,.51-.34,1.02-.52,1.52-2.21-.33-4.43-.65-6.64-.98l-3.09-.53,3.09-1.53Z"/><path class="ci" d="M83.33,84.34l.51,3.08c-.51,0-1.02-.01-1.53-.02-3.24-.34-6.48-.68-9.72-1.02-.17-1.02-.33-2.04-.5-3.06,3.75,.34,7.49,.68,11.24,1.02Z"/><path class="ac" d="M108.89,91.5l.51,2.05-3.81,4.26c-.43-1.08-.87-2.16-1.3-3.24,1.53-1.02,3.07-2.05,4.6-3.07Z"/><path class="ad" d="M72.59,86.39c3.24,.34,6.48,.68,9.72,1.02-1.87,.51-3.74,1.02-5.61,1.52l-.03,.04c-1.36-.86-2.71-1.72-4.07-2.58h0Z"/><path class="cw" d="M180.44,64.24c-.16,16.71-.37,33.42-.29,50.12,0,.55,2.91,1.09,4.46,1.64,.18,.19,.37,.39,.55,.58l-.6,.55c-1.54,.86-3.09,1.72-4.63,2.57l-1.47-1.64-2.63-.96,.59-.99-.05-.12c.83-2.44,2.3-4.87,2.37-7.33,.41-14.1,.48-28.21,.72-42.32,.01-.71,.63-1.41,.97-2.11Z"/><path class="f" d="M165.64,108.89c1.53,.17,3.07,.34,4.6,.5,.89,.73,1.78,1.46,3.57,2.92-3.46,.46-6.07,.81-8.68,1.16-2.21,.5-4.41,1-6.62,1.5-1.01,0-2.03,0-3.04,.01-.36-.17-.71-.33-1.07-.5,1.16-.84,2.31-1.67,4.15-3-2.3-.59-4.25-1.09-6.21-1.59-.17-.85-.34-1.7-.52-2.55,3.41,.34,6.82,.68,10.23,1.03h.51c1.02,.16,2.04,.33,3.07,.51Z"/><path class="bx" d="M174.93,100.41c-.46-.23-1.55-.75-5.18-2.52,4.02,0,6.51-.2,6.55,.03,.75,4.2,1.25,8.45,1.65,12.7,.03,.35-1.08,.81-1.66,1.22-1.26-2.68-2.75-5.28-3.63-8.08-.24-.75,1.37-2.08,2.28-3.35Z"/><path class="ch" d="M158.52,114.98c2.21-.5,4.41-1,6.62-1.5,0,.51,0,1.01,0,1.52-2.21,0-4.42-.01-6.63-.02Z"/><path class="w" d="M168.2,115.01c2.72,.33,5.44,.66,8.17,.99l.05,.12-6.63-.69-1.58-.42Z"/><path class="ae" d="M168.2,115.01c.53,.14,1.05,.28,1.58,.42-2.74,.05-5.47,.1-8.21,.15-2.07-.17-4.14-.35-6.21-.52l.11-.07c1.01,0,2.03,0,3.04-.01,2.21,0,4.42,.01,6.63,.02,1.02,0,2.04,.01,3.06,.02Z"/><path class="dd" d="M62.39,179.2c-1.22-.58-2.44-1.15-3.66-1.73l-3.1-1.03c.01-5.95,.03-11.91,.04-17.86,2.66,.92,5.31,1.83,10.33,3.56-2.36-2.49-3.79-4.01-5.22-5.52l.69-1.04c-1.64-1.18-3.27-2.35-4.91-3.53,2.12-.6,3.75-1.52,5.33-1.43,3.84,.24,7.63,1.18,11.47,1.41,7.24,.43,14.49,.57,21.74,.82l1.57,8.37,1.43-.23,3.74,7.82c.06-.28-.24,1.08-.32,1.45l2.9,4.78c-1,.54-1.99,1.09-3.48,1.9,.13-1.52,.19-2.21,.14-1.65-6.05,.51-12.12,1.03-18.19,1.55-2.96,.01-5.94-.17-8.88,.08-3.85,.34-7.68,1.02-11.52,1.55l-.1,.72Z"/><path class="ap" d="M62.49,178.48c3.84-.53,7.66-1.22,11.52-1.55,2.94-.26,5.92-.07,8.88-.08,12.4,0,24.8,0,37.2,0,4.85,0,9.71,0,13.95,0-.51-.79-1.07-1.65-1.63-2.51,1.33-.29,2.66-.59,3.99-.88l1.08,2.6h36.52c3.87,.49,7.88,.77,11.55-.22,1.05-.28,1.1-4.25,1.61-6.53l-2.01,.91-5.32-.91c1.93-1.17,3.6-2.98,5.23-2.95,1.77,.02,3.52,1.76,5.28,2.74l-.83,1.68c2.27,1.87,4.53,3.74,6.8,5.61h-4.58v.49c26.57,0,53.14,0,79.71,0h2.11c5.96,.01,11.91,.01,17.87,.01l1.74-.14c-.18-1.68-.33-3.08-.97-9.07-.52,5.86-.64,7.28-.77,8.7-.51-1.7-1.02-3.41-1.53-5.11,2.41-.54,4.82-1.08,9.52-2.13-3.06-.23-3.67-.27-4.24-.31,1-3.73,1.95-7.29,2.9-10.85,1.27,4.57,2.56,9.14,3.8,13.72,.46,1.71,.81,3.46,1.22,5.19-.98,.19-1.96,.38-2.93,.57-1.05,.83-2.1,1.65-3.14,2.48-.51-.16-1.01-.33-1.52-.49-1.7-.65-3.39-1.31-5.09-1.96-52.31-.04-104.61-.13-156.92-.09-21.51,.02-43.02,.3-64.53,.47-2.16,.21-4.32,.42-6.48,.62Z"/><path class="cr" d="M68.96,177.86c21.51-.16,43.02-.45,64.53-.47,52.31-.04,104.61,.05,156.92,.09l2.41,.86c-3.78,.22-6.94,.41-10.09,.59-1.17,0-2.35-.02-3.52-.02-6.49-.16-12.99-.32-19.48-.48-62.85-.02-125.7-.04-188.56-.08-.74,0-1.48-.32-2.22-.5Z"/><path class="cm" d="M282.73,178.93c3.15-.19,6.31-.37,10.09-.59l-2.41-.86c1.7,.65,3.39,1.31,5.09,1.96-4.25-.17-8.51-.34-12.76-.51Z"/><path class="cm" d="M259.73,178.43c6.49,.16,12.98,.32,19.48,.48-6.49-.16-12.98-.32-19.48-.48Z"/><path class="ak" d="M223.42,87.41l5.73,.68,.11-.58c1.46,.31,2.92,.61,4.39,.92-.29,.66-.58,1.32-1.26,2.86,3.6-.67,6.49-1.21,11.01-2.06-2.44-.93-3.13-1.05-3.59-1.44-.19-.16,.09-.89,.15-1.36,3.38,1.04,6.76,2.08,9.62,2.96-.85,1.85-1.82,3.27-2.05,4.8-.08,.52,1.7,1.32,2.62,1.99,.75-1.98,1.5-3.97,2.35-6.2,.97,1.82,1.98,3.72,2.65,4.98,1.6-.97,3.13-1.89,4.8-2.91l-.99-.39,.91-1.15c3.87,2.38,7.74,4.75,11.61,7.13,2.05,3.58,4.1,7.16,6.14,10.74-.55,.69-1.1,1.38-1.14,1.42-4.23-.89-7.94-1.67-11.65-2.45-4.15-.28-8.29-.56-14.23-.96,1.18,1.03,.55,.48-.08-.07-.78-1.96-1.56-3.92-2.47-6.24h-10.27c.08,.11,.44,.65-.26-.39-3.19-1.11-7.66-2.67-12.39-4.31-.02,.41,.02-.43,.05-1.04-2.65,1.19-5.05,3.18-7.35,3.07-3.06-.15-6.07-1.86-9-3.12-.26-.11,.17-1.82,.28-2.79l2.17,1.19,2.94-1.7,2.09,2.12,1.73-2.49-4.33-.65-4.61-2.55c2.14,.05,4.27,.15,6.41,.14,2.64,0,5.27-.09,7.91-.15Z"/><path class="v" d="M271.48,97.64c-3.87-2.38-7.74-4.75-11.61-7.13l-.91,1.15,.99,.39c-1.67,1.01-3.2,1.94-4.8,2.91-.67-1.26-1.68-3.15-2.65-4.98-.84,2.23-1.59,4.21-2.35,6.2-.93-.67-2.7-1.47-2.62-1.99,.23-1.53,1.19-2.95,2.05-4.8-2.86-.88-6.24-1.92-9.62-2.96-.07,.47-.35,1.2-.15,1.36,.47,.39,1.15,.51,3.59,1.44-4.52,.85-7.41,1.39-11.01,2.06,.68-1.54,.97-2.2,1.26-2.86,1.14-.35,2.27-.71,3.41-1.06l.63-2.78c4.45,.6,8.89,1.2,13.34,1.8l6.48-.06c-.9-.93-2.74-2.33-2.55-2.71,1.73-3.44,3.81-6.7,5.79-10.01,1.36,2.73,2.72,5.45,4.09,8.18,0,.17,0,.34,0,.51,2.83,4.09,5.67,8.18,8.22,11.85,.74-.31-1.11,.46-2.99,1.24,1.35,1.25,2.15,2,2.96,2.75l-1.54-.51Z"/><path class="bp" d="M223.42,87.41c-2.64,.05-5.27,.14-7.91,.15-2.14,0-4.27-.09-6.41-.14-1.19,.17-2.38,.34-3.58,.5l-.52-1.02c-1.19-3.41-2.38-6.82-3.57-10.23-.33-.95-.67-1.9-1.29-3.67-.33,.54-.04,.06,.26-.42l2.73,2.54,1.06-1.51c2.94,2.08,5.85,4.21,8.83,6.22,2.39,1.61,4.87,3.07,6.39,6.09l4,1.48Z"/><path class="ak" d="M200.41,72.59c-.3,.48-.6,.95-.26,.42,.62,1.76,.95,2.71,1.29,3.67h-2.56c-3.24-2.89-6.48-5.79-9.71-8.69-1.87-1.88-3.73-3.76-5.6-5.64,5.61,3.41,11.23,6.83,16.84,10.24Z"/><path class="ad" d="M183.57,62.35c1.87,1.88,3.73,3.76,5.6,5.64,.17,2.38,.35,4.77,.52,7.15-.35-1.02-.69-2.04-1.04-3.06l-2.04-1.54-4.18-6.1c-.12-.88-.24-1.75-.36-2.63,.5,.18,1,.36,1.5,.53Z"/><path class="aj" d="M315.96,109.45c3.44,.3,6.88,.59,10.32,.89-1.31,1.05-2.62,2.09-6.02,4.8,3.16-1.33,3.8-1.6,4.98-2.09l-1.73,29.29-.88-.15v9.58c-.5-2.76-.31-1.71-.12-.67-.78-.2-1.55-.41-2.74-.72,.23,1.99,.46,3.93,.64,5.53-1.09,.76-2,1.4-2.92,2.05-1.53,1.02-3.07,2.05-4.6,3.07,.67-5.33,1.35-10.65,2.03-16.09l2.01,.58c.2-1.57,.38-3.02,.44-3.52-1.7-.15-3.09-.28-4.48-.4-1.19-2.56-2.38-5.12-3.57-7.68,.51-2.38,1.02-4.76,1.53-7.15,0-.34,0-.67,0-1.01,.77-.68,1.53-1.36,2.29-2.03-1.3-1.21-2.31-2.15-3.32-3.1,2.04-3.73,4.09-7.46,6.13-11.19Zm1.93,44l-1.34-.44c-.25,.79-.54,1.57-.68,2.38-.02,.11,.78,.35,1.2,.53,.27-.82,.55-1.65,.82-2.47Z"/><path class="ap" d="M309.33,133.93c1.19,2.56,2.38,5.12,3.57,7.68-.45,2.13-.89,4.26-2.04,9.77v18.35c0,.17,0,.34,0,.51-1.02,.85-2.04,1.71-3.06,2.56,0-2.55,0-5.11,0-7.66,.34-2.05,.68-4.09,1.02-6.14,.17-8.36,.34-16.72,.51-25.07Z"/><path class="dg" d="M310.85,169.73v-18.35c1.15-5.51,1.6-7.64,2.04-9.77,1.39,.12,2.78,.25,4.48,.4-.06,.5-.25,1.94-.44,3.52l-2.01-.58c-.69,5.43-1.36,10.76-2.03,16.09-.68,2.9-1.36,5.8-2.04,8.69Z"/><path class="w" d="M277.62,81.79c-1.28-.75-2.56-1.49-4.14-2.42,1.05-1.49,2.07-2.95,2.78-3.95l-3.03-4.33c-1.81-1.52-3.11-2.63-4.42-3.73,2.92-1.32,5.86-2.59,8.76-3.97,.77-.37,1.41-1.02,2.1-1.55,1.88-.5,3.76-1,5.64-1.5,0,4.25,0,8.5-.01,12.75,.17,0,.34,0,.5,0-1.85,.98-3.7,1.96-5.97,3.16,.45,.96,1.17,2.47,1.89,3.99l-1.02,1.02-3.07,.51Z"/><path class="cy" d="M273.02,98.15c-.81-.75-1.62-1.5-2.96-2.75,1.88-.78,3.73-1.55,2.99-1.24-2.55-3.67-5.38-7.76-8.22-11.85,.51,.88,1.21,2.59,1.51,2.52,2.29-.53,4.51-1.4,7.02-2.25-1.2-1,.76,.64,2.72,2.28-1.84,.12-3.67,.24-5.51,.36-.05,.91-.09,1.81-.14,2.72,3.42,0,6.83,0,10.25,0l5.64,1.53c.5,0,1.01,.01,1.51,.02-1.36,2.38-2.72,4.76-4.08,7.14-3.58,.51-7.16,1.03-10.74,1.54Zm6.92-2.98c-.93-.7-1.4-1.34-1.88-1.34-.49,0-.99,.61-1.48,.96,.43,.47,.79,1.17,1.31,1.33,.41,.12,1.02-.44,2.05-.94Z"/><path class="bj" d="M281.71,80.25c-.72-1.52-1.44-3.04-1.89-3.99,2.27-1.2,4.12-2.18,5.97-3.16,1,1.74,1.99,3.47,2.95,5.13-1.17,.69-2.31,1.36-3.45,2.03-1.02,0-2.05,0-3.07,0-.17,0-.34,0-.51,0Z"/><path class="w" d="M282.22,80.26c1.02,0,2.05,0,3.07,0,.68,.34,1.36,.68,2.05,1.02-.93,.49-2.65,1-2.64,1.47,.03,1.56,.69,3.11,1.11,4.66,.18,.68,.35,1.36,.53,2.03-1.88-.51-3.76-1.02-5.64-1.53v-3.06c.51-1.53,1.02-3.07,1.53-4.6Z"/><path class="bj" d="M285.8,87.41c-.42-1.55-1.08-3.1-1.11-4.66,0-.47,1.71-.98,2.64-1.47-.51,2.05-1.02,4.09-1.53,6.14Z"/><path class="cx" d="M273.02,98.15c3.58-.51,7.16-1.03,10.74-1.54,1.29,2.64,2.29,5.49,4.01,7.81,.76,1.03,3,.96,4.57,1.39,.05,.16,.06,.32,.05,.49l-.52,.52-.94,.56c-4.44,.34-8.88,.68-13.31,1.01-2.05-3.58-4.1-7.16-6.14-10.74l1.54,.51Z"/><path class="bi" d="M292.4,106.29c.01-.17,0-.33-.05-.49,.06-.16,.13-.32,.19-.48,.14,.01,.27,0,.41-.03l.51,.05c.52,.5,1.03,.99,1.55,1.49,2.72,3.58,5.45,7.17,8.17,10.75,.51,1.36,1.03,2.73,1.54,4.09,.37,6.8,.73,13.59,1.1,20.39-.38,1.2-.76,2.39-1.14,3.59-.31-7.54-.62-15.08-.93-22.62l-1.05-.37c-2.92-1.5-5.84-3-8.76-4.5-.51-3.96-1.02-7.91-1.53-11.87Z"/><path class="a`" d="M183.02,94.57c-.15-.51-.3-1.01-.46-1.52,.67-.17,1.34-.35,2.01-.52,1.69,1.19,3.38,2.37,5.07,3.56-1.18,1.37-2.36,2.73-3.54,4.1-1.03,3.58-2.06,7.16-3.09,10.74,0,.17,0,.33,0,.5l-1.09,.58c.37-5.81,.74-11.63,1.1-17.44Z"/><path class="bf" d="M181.92,112.02c.36-.19,.73-.39,1.09-.58,.18,.52,.36,1.03,.54,1.55l4.65,2.6-.1,1h-2.94c-.18-.2-.37-.39-.55-.58-.9-1.33-1.79-2.66-2.69-3.99Z"/><path class="c`" d="M325.16,177.41c-1.87,.17-3.74,.34-5.6,.52-4.95,0-9.9,0-14.84-.01l-.05-.92,6.7-.11c4.6,.18,9.2,.35,13.8,.53Z"/><path class="bp" d="M311.36,176.88l-6.7,.11,.07-.12c1.01-3.91,2.03-7.83,3.04-11.74h.02c0,2.57,0,5.12,0,7.68,1.19,1.36,2.38,2.72,3.56,4.08Z"/><path class="cy" d="M315.96,109.45c-2.04,3.73-4.09,7.46-6.13,11.19,.34,1.71,.69,3.42,1.03,5.13,0,.34,0,.67,0,1.01-.86,.51-1.72,1.03-2.57,1.54-.18-5.97-.35-11.94-.53-17.91,.52-.19,1.03-.37,1.55-.56,2.22-.13,4.44-.27,6.66-.4Z"/><path class="ay" d="M54.11,181.44c-7.09,.03-14.17,.06-21.26,.09l.26-4.16c5.23,.01,10.5-.33,15.67,.21,1.89,.2,3.56,2.51,5.32,3.85Z"/><path class="bp" d="M54.58,176.78c-7.11,.04-14.23,.07-21.34,.11-.5-1.89-1-3.77-1.5-5.66,.15-7.66,.3-15.31,.45-22.97,.17-1.53,.35-3.06,.52-4.6,.34,3.92,.68,7.84,1.01,11.75,.17,1.7,.34,3.41,.51,5.11,3.36,4.74-8.78,14.49,5,15.76,4.43,.41,8.93,.05,13.4,.05l1.85,.04,.15,.02h.15c-.08,.13-.15,.26-.22,.39Z"/><path class="ci" d="M75.66,80.26c1.27,.59,2.53,1.18,6.54,3.03-5.21,0-7.42,0-9.64,0-.16-1.01-.32-2.02-.48-3.03,1.19,0,2.38,0,3.58,0Z"/><path class="e" d="M43.95,109.4c.52-.35,1.03-.69,1.55-1.04,6.49-1.2,12.98-2.4,19.46-3.59,.33,.35,.65,.7,.98,1.05-.03,.16-.05,.32-.07,.48-3.9,3.42-7.79,6.84-11.69,10.26l-6.15-7.17c-1.36,0-2.72,0-4.08,0Z"/><path class="bf" d="M72.59,86.39c1.36,.86,2.71,1.72,4.07,2.58-1.7,1.19-3.4,2.38-5.1,3.57-.51-.17-1.02-.34-1.53-.52l2.56-5.64Z"/><path class="cb" d="M70.02,92.02c.51,.17,1.02,.34,1.53,.52h0c-.17,1.19-.34,2.38-.51,3.57-.85-.85-1.7-1.71-2.55-2.56,.51-.51,1.02-1.01,1.53-1.52Z"/><path class="cb" d="M183.03,85.37c.16-3.57,.32-7.14,.48-10.71l.05-.04c.84,.68,1.68,1.36,2.51,2.04,.15,1.11,.31,2.22,.13,.93-.67,3.11-.9,4.15-1.12,5.2l-2.05,2.58Z"/><path class="df" d="M183.03,85.37c.68-.86,1.37-1.72,2.05-2.58,.35-.33,.7-.66,1.05-1l.46,.52,2.06,5.09v3.07l-2.07,1.5-3.51-6.13c-.01-.16-.03-.32-.04-.48Z"/><path class="cd" d="M183.07,85.84c1.17,2.04,2.34,4.09,3.51,6.13-.67,.19-1.34,.37-2,.56-.67,.17-1.34,.35-2.01,.52,.17-2.4,.33-4.81,.5-7.21Z"/><path class="cs" d="M182.43,64.44c1.39,2.03,2.79,4.07,4.18,6.1l-1.02,1.01-2.54-5.12-.51-.51-.11-1.48Z"/><path class="cb" d="M182.54,65.93c.17,.17,.34,.34,.51,.51,.17,2.73,.34,5.45,.51,8.18l-.05,.04c-.32-2.91-.65-5.82-.97-8.73Z"/><path class="dk" d="M32.72,143.66l-.52,4.6c-.04-10.18-.04-20.36-.15-30.54-.02-1.42-.54-2.84-.83-4.27,.18-.67,.36-1.34,.54-2,.66,1.7,1.33,3.4,1.99,5.1-.34,9.04-.68,18.08-1.02,27.11Z"/><path class="dc" d="M65.87,106.29c.02-.16,.05-.32,.07-.48,.14,.03,.28,.06,.42,.09,0,3.55,.02,7.1,.02,10.66-3.57,1.69-7.13,3.37-10.7,5.06,3.39-5.11,6.79-10.22,10.18-15.33Z"/><path class="j" d="M66.39,116.56c0-3.55-.02-7.1-.02-10.66l.51-.81c.21,1.43,.42,2.85,.63,4.28-.01,2.04-.02,4.08-.03,6.13,1.53,.34,3.06,.69,4.59,1.03l-4.61,.65-1.07-.62Z"/><path class="bw" d="M68.5,104.29c1.18-2.06,2.36-4.11,3.54-6.17l.05,.04c.16,.68,.32,1.36,.48,2.03l.52,.52c-1.36,1.19-2.73,2.39-4.09,3.58-.17,0-.33,0-.5,0Z"/><path class="c`" d="M68.5,104.29c.17,0,.33,0,.5,0,0,2.39,0,4.77,0,7.16-.15,1.33-.3,2.65-.45,3.98l-1.08,.06c.01-2.04,.02-4.08,.03-6.13,.33-1.69,.66-3.39,.99-5.08Z"/><path class="bf" d="M71.05,96.11c.17-1.19,.34-2.38,.51-3.57,1.54,.68,3.08,1.36,4.62,2.04-1.03,.51-2.06,1.02-3.09,1.53-.52,0-1.04,.01-1.56,.02-.16,0-.32-.01-.48-.02Z"/><path class="bw" d="M71.52,96.13c.52,0,1.04-.01,1.56-.02,1.03,.18,2.06,.35,3.09,.53-1.36,.51-2.72,1.01-4.08,1.52l-.05-.04c-.17-.66-.34-1.33-.51-1.99Z"/><path class="bw" d="M305.81,142.06c-.37-6.8-.73-13.59-1.1-20.39,.55-8.41-.85-15.47-11.26-16.33l-.51-.05c4.78,1.71,9.56,3.42,14.33,5.13-.17,8.86-.34,17.73-.52,26.59-.32,1.68-.63,3.37-.95,5.05Z"/><path class="ac" d="M306.76,137.01c.17-8.86,.34-17.73,.52-26.59,.16,0,.32,0,.48,0,.18,5.97,.35,11.94,.53,17.91-.16,4.94-.33,9.88-.49,14.82-.35,0-.71,0-1.06,0,.01-2.04,.02-4.09,.03-6.13Z"/><path class="m" d="M43.95,109.4c1.36,0,2.72,0,4.08,0,.11,1.26-.04,2.61,.36,3.77,1.3,3.72,2.81,7.38,4.23,11.06-.02,.32-.04,.65-.05,.97-1,5.82-1.99,11.64-2.99,17.45l-3.33,3.71,2.3,1.4v1.02l.51,5.11c-.17,.34-.34,.68-.52,1.02-1.81,.27-3.62,.54-5.42,.82l.57,1.33c-.66,.16-1.32,.32-1.98,.47,.25-.93,.65-1.85,.73-2.8,.19-2.23,.23-4.48,.33-6.72l-1.61-.04-.23-4.26c-2.49,4.82-2.28,9.74-2.59,14.62-.14,2.14-1.34,4.21-2.06,6.31l-2.05-4.09c-.17-1.7-.34-3.41-.51-5.11,.84-6.64,1.69-13.29,2.86-22.56-.53,.91,.56-.96,.46-.79,.39-7.62,.67-13.11,.95-18.6h-1.76l3.12-3.56,4.6-.52Z"/><path class="ab" d="M39.35,109.91l-3.12,3.56h1.76c-.28,5.49-.56,10.97-.95,18.6,.1-.17-.99,1.7-.46,.79-1.18,9.27-2.02,15.92-2.86,22.56-.34-3.92-.68-7.84-1.01-11.75,.34-9.04,.68-18.08,1.03-27.11,1.87-2.21,3.74-4.42,5.61-6.63Z"/><path class="db" d="M304.71,177.91c4.95,0,9.9,0,14.84,.01,.68,1.02,1.36,2.03,2.04,3.05-5.64,0-11.27,.02-16.91,.02,0-1.03,.02-2.06,.03-3.08Z"/><path class="ca" d="M304.71,177.91c0,1.03-.02,2.06-.03,3.08-.02,.14-.05,.28-.07,.43-.42-.04-.84-.09-1.26-.13-1.07-1.28-2.14-2.56-3.21-3.84,.98-.19,1.96-.38,2.93-.57,.1-.13,.18-.28,.23-.44l.75,.03,.66,.4-.07,.12,.05,.92Z"/><path class="y" d="M304.62,181.42c.02-.14,.04-.29,.07-.43,5.64,0,11.27-.02,16.91-.02,.74,0,1.48,0,2.22,0v.45h-19.19Z"/><path class="by" d="M54.58,176.78c.07-.13,.14-.27,.22-.39l.83,.06,3.1,1.03c-1.01,.99-2.02,1.97-3.02,2.96l-1.13-3.65Z"/><path class="bl" d="M162.06,108.38c-3.41-.34-6.82-.68-10.23-1.03-.34-.34-.68-.68-1.01-1.03-2.01-3.35-4.02-6.69-5.08-8.45-2.91,.61-2.06,.43-1.94,.4-5.81-1.48-12.17-3.11-18.54-4.73h0c-.34-.69-.68-1.37-1.02-2.05,0-.34,0-.68,0-1.02,3.91,.87,7.83,1.75,11.74,2.62l.3-.75,8.42,1.2c1.02,.51,2.04,1.03,3.07,1.54,2.61,1,5.22,2,7.94,3.04-.67,1.42-1.55,3.27-2.46,5.2,2.95,1.69,5.89,3.37,8.84,5.06Z"/><path class="cu" d="M124.22,91.5c.34,.68,.68,1.36,1.02,2.04-1.36-.17-2.72-.34-4.09-.51l3.06-1.54Z"/><path class="bl" d="M165.64,108.89c-1.02-.17-2.04-.34-3.07-.52l.71-2.52,2.35,3.03Z"/><path class="cy" d="M264.83,81.79c-1.36-2.73-2.72-5.45-4.09-8.18,3.38,.17,6.77,.35,12.67,.65-4.01,3.52-6.3,5.53-8.58,7.53Z"/><path class="ap" d="M280.69,84.86v3.06c-3.42,0-6.83,0-10.25,0,.05-.91,.09-1.81,.14-2.72,1.84-.12,3.67-.24,5.51-.36l.51-.5c.17,0,.34,0,.51,0l3.58,.51Z"/><path class="cy" d="M277.11,84.34c-.17,0-.34,0-.51,0,.34-.85,.68-1.71,1.02-2.56l3.07-.51c-1.19,1.02-2.39,2.05-3.58,3.07Z"/><path class="ai" d="M113.49,106.33l3.07,2.04c-1.02,.34-2.04,.68-3.07,1.03-3.92,.85-7.84,1.71-11.76,2.56-.16,0-.33,.02-.49,.04-6.49,.5-12.97,1-19.46,1.5l1.62-2.45c-2.37-.24-4.29-.43-6.21-.62l1.03-1.54,.51-1.02h10.73c3.02-.66,9.9-2.17,16.78-3.68l-.36-4.45c2.54,2.2,5.07,4.4,7.61,6.6Z"/><path class="bq" d="M78.72,107.86l-.51,1.02c-2.55-.85-5.1-1.71-7.65-2.56,1.32-1.24,2.65-2.48,4.63-4.35l-2.11-1.25c-.17-.17-.35-.35-.52-.52,1.04-.42,2.06-.99,3.14-1.21,2.51-.53,5.06-.89,7.59-1.32,1.38,.74,2.76,1.48,4.15,2.22-1.97,.34-3.92,.8-5.9,.99-1.83,.18-3.68,.06-5.52,.08,1.19,1.47,2.38,2.95,3.58,4.45l-.88,2.46Z"/><path class="bk" d="M83.3,97.66c-2.53,.43-5.08,.79-7.59,1.32-1.08,.23-2.1,.8-3.14,1.21-.16-.68-.32-1.36-.48-2.03,1.36-.51,2.72-1.01,4.08-1.52,2.21,.33,4.43,.65,6.64,.98,.16,.01,.32,.03,.49,.04Z"/><path class="f" d="M125.25,93.55c6.37,1.63,12.74,3.25,18.54,4.73-.11,.02-.96,.2,1.94-.4,1.06,1.76,3.07,5.11,5.08,8.45-6.66-2.27-13.32-4.54-19.95-6.8v4.24l-.5,.52c-1.22-1.44-2.44-2.87-3.78-4.44l2.88-.63c-2.7-.9-4.48-1.49-6.27-2.09l2.05-3.58Z"/><path class="bq" d="M124.74,106.84c1.19-.17,2.38-.34,3.58-.51,2.9,1.19,5.79,2.39,8.69,3.58,2.21,.68,4.43,1.35,6.64,2.03l.02,.02c-.68,.68-1.37,1.35-2.05,2.03-.17,0-.34,0-.51,0-4.09-.85-8.19-1.69-12.28-2.54-.17,0-.34,0-.5,0l-2.55-1.02c-.34-1.19-.68-2.39-1.02-3.58Z"/><path class="ae" d="M137.01,109.92c-2.9-1.19-5.79-2.39-8.69-3.58,.68-.68,1.37-1.36,2.05-2.04l.5-.52,6.14,6.15Z"/><path class="bq" d="M113.49,109.4c1.02-.34,2.04-.68,3.07-1.03,.68-.17,1.36-.33,2.05-.5,2.05,.51,4.09,1.02,6.14,1.52-1.71,.69-3.42,1.37-5.13,2.06-1.19,0-2.38-.01-3.57-.02l-2.56-2.04Z"/><path class="ae" d="M124.74,109.39c-2.05-.51-4.09-1.02-6.14-1.52,2.05-.34,4.09-.68,6.14-1.03,.34,1.19,.68,2.39,1.02,3.58l-1.02-1.03Z"/><path class="an" d="M178.45,118.07l1.47,1.64c.02,.99,.04,1.98,.06,2.98-.17,.5-.34,1-.51,1.51v17.41l1.25-.24-.38-7.64,1.84-.29c-.44-1.67-.87-3.34-1.28-4.92l4.48,1.14c1.8-1.98,3.67-4.03,6.12-6.73-.41,2.8-.68,4.61-.48,3.27,5.54-.85,11.35-1.74,18.06-2.77l-1.96,3.39,.93,.62c.62-.88,1.24-1.76,2.1-2.96,3.55-.24,7.4-.49,11.24-.75,1.87,1.02,3.75,2.04,5.62,3.06-.64,.92-1.28,1.84-2.49,3.58l1.18,5.65-13.43-4.28c.86,.8,.19,.17-.49-.45-.59,.94-1.57,1.84-1.7,2.84-.35,2.65-.32,5.34-.45,8.01-1.81-.22-3.63-.45-1.19-.15-5.39,2.22-7.22,2.97-9.04,3.72,1-4.39,2-8.78,2.89-12.7-.88,.35-2.22,.87-5.02,1.98l2.71-3.25c-1.52-.54-3.04-1.07-4.77-1.68-.08-.37-.26-1.26-.16-.79-2.52,.85-4.78,1.61-7.53,2.53l-1.42,13.91c-2.22,.49-4.45,.97-6.67,1.46h-1.99c-.85-.47-1.66-1.22-2.57-1.39-4.25-.79-8.53-1.42-12.79-2.11,1.02-.68,2.04-1.37,3.07-2.05,1.44-1.32,2.88-2.65,5.8-5.32-.53,.1,1.26-.25,2.94-.57-1.75-1.65-3.23-3.03-4.64-4.36h-4.16c1.33-2.17,2.05-4.85,3.72-5.75,2.89-1.56,6.38-2.01,9.62-2.93,.01-1.53,.02-3.06,.03-4.6Zm38.31,14.63c2.33-.93,3.25-1.3,4.17-1.67l-1.26-2.78c-.91,1.4-1.47,2.25-2.91,4.45Z"/><path class="cx" d="M178.45,118.07c-.01,1.53-.02,3.06-.03,4.6-11.76-.33-23.52-.67-35.27-1-9.89,.17-19.78,.34-29.66,.51-9.03,0-18.06,0-27.09,0-5.63,0-11.25,0-16.88,0,11.74-1.16,23.47-2.75,35.24-3.35,11.58-.59,23.21-.18,34.81-.22,5.96,.11,11.94,.51,17.89,.24,5.33-.24,10.62-1.21,15.93-1.86l2.44,.13,2.63,.96Z"/><path class="cv" d="M185.16,116.58c.98,0,1.96,0,2.94,0,1.89,0,3.79,0,5.68,0-3.93,1.69-7.86,3.39-11.79,5.08,.85-1.51,1.71-3.02,2.56-4.53l.6-.55Z"/><path class="cn" d="M184.55,117.13c-.85,1.51-1.71,3.02-2.56,4.53-.67,.34-1.34,.68-2.01,1.02l-.06-2.98c1.54-.86,3.09-1.72,4.63-2.57Z"/><path class="ct" d="M175.82,117.11c-.81-.04-1.63-.09-2.44-.13-2.7-.17-5.41-.33-8.11-.5-1.24-.15-2.48-.3-3.72-.45,0-.15,.01-.3,.02-.45,2.74-.05,5.47-.1,8.21-.15,2.21,.23,4.42,.46,6.63,.69l-.59,.99Z"/><path class="x" d="M137.01,109.92l-6.14-6.15c0-1.65,0-3.3,0-4.24,6.62,2.26,13.28,4.53,19.95,6.8,.34,.34,.68,.68,1.01,1.03,.17,.85,.34,1.7,.52,2.55-.51,.51-1.02,1.03-1.53,1.54l-7.16,.5-6.64-2.03Z"/><path class="cv" d="M150.82,111.45c.51-.51,1.02-1.03,1.53-1.54,1.95,.5,3.91,1,6.21,1.59-1.84,1.33-2.99,2.17-4.15,3-1.2-1.02-2.39-2.03-3.59-3.05Z"/><path class="di" d="M150.82,111.45c1.2,1.02,2.39,2.03,3.59,3.05,.36,.17,.71,.33,1.07,.5l-.11,.07c-2.19-.02-4.38-.04-6.58-.05-.02-.15-.03-.3-.03-.45-1.7-.87-3.39-1.73-5.09-2.6l-.02-.02c2.39-.17,4.78-.33,7.16-.5Z"/><path class="d`" d="M148.79,115.01c2.19,.02,4.39,.04,6.58,.05,2.07,.17,4.14,.35,6.21,.52,0,.15-.01,.3-.02,.45-21.83-.02-43.66-.05-65.49-.07,.03-.13,.07-.26,.1-.39,16.15-.02,32.29-.04,48.44-.06,1.39-.17,2.79-.34,4.18-.51Z"/><path class="da" d="M120.09,176.85c-12.4,0-24.8,0-37.2,0,6.07-.52,12.14-1.03,18.19-1.55,.05-.56-.01,.13-.14,1.65,1.49-.81,2.49-1.36,3.48-1.9l-2.9-4.78c.08-.37,.38-1.73,.32-1.45l-3.74-7.82-1.43,.23-1.57-8.37h0c4.29,.87,9.45,.57,12.62,2.94,2.91,2.18,3.67,7.24,4.43,8.92,3.41-.66,5.01-.97,6.61-1.28,.09,2.73,.52,5.52,.14,8.19-.2,1.4-1.81,2.6-2.6,3.66l3.8,1.55Z"/><path class="an" d="M95.09,152.86c-7.25-.26-14.5-.39-21.74-.82-3.84-.23-7.63-1.17-11.47-1.41-1.57-.1-3.21,.82-5.33,1.43,1.64,1.18,3.28,2.36,4.91,3.53l-.69,1.04c1.43,1.51,2.86,3.03,5.22,5.52-5.02-1.73-7.67-2.65-10.33-3.56-.15-.05-.31-.09-.46-.12-.05-3.39-.11-6.78-.16-10.17,23.24,.01,46.47,.02,69.71,.03l.5,.44c-1.36,1.36-2.73,2.73-4.09,4.09h0l-11.59-.6c.08,.09-.71-1.5-1.32-1.44-4.41,.49-8.78,1.32-13.16,2.04h0Z"/><path class="am" d="M55.2,158.47c.16,.03,.31,.07,.46,.12-.01,5.95-.03,11.91-.04,17.86l-.83-.06h-.15l-.15-.02c.03-4.4,.06-8.8,.09-13.2l.61-4.71Z"/><path class="aj" d="M271.45,176.86h-79.71v-.49c1.52,0,3.05,0,4.57,0,.64-1.59,1.28-3.18,1.57-3.92,1.54,.27,3.41,.61,5.28,.94,.17-1.34,.35-2.67,.52-3.97-1.71,.21-2.63,.33-3.54,.44,.14-.75,.14-1.57,.44-2.24,2.47-5.45,4.99-10.87,7.49-16.3,5.62-.34,11.25-.68,16.87-1.02h31.05l.14-2.01,2.07,.05c2.55,.99,5.1,1.98,7.64,2.97-1.09,1.71-2.18,3.42-3.28,5.14,1.69,.02,3.64-.46,4.99,.22,1.15,.59,2.47,2.75,2.19,3.82-.5,1.89-2.15,3.48-3.32,5.2,1.49,.5,2.99,1.01,5.12,1.73-1.02,1.98-2.49,4.81-3.99,7.72,.86,.38,2.37,1.05,3.88,1.72Zm-3.42-14.61c-1.93-1.15-3.63-2.17-6.54-3.91,1.64,2.49,2.35,4.13,3.58,5.13,.44,.35,2.15-.86,2.96-1.22Z"/><path class="an" d="M208.08,151.32c-2.51,5.43-5.03,10.85-7.49,16.3-.31,.68-.3,1.49-.44,2.24,.91-.11,1.83-.23,3.54-.44-.17,1.3-.34,2.64-.52,3.97-1.87-.33-3.74-.66-5.28-.94-.3,.74-.93,2.33-1.57,3.92-2.27-1.87-4.53-3.74-6.8-5.61l.83-1.68c-1.76-.99-3.51-2.72-5.28-2.74-1.64-.02-3.3,1.78-5.23,2.95l5.32,.91,2.01-.91c-.51,2.28-.56,6.24-1.61,6.53-3.67,.99-7.68,.71-11.55,.22h-36.52l-1.08-2.6c-1.33,.29-2.66,.59-3.99,.88-.28-1.18-.56-2.36-.84-3.53-.87,.85-1.69,1.75-2.63,2.53-1.62,1.34-3.31,2.59-4.97,3.87l-1.11-1.58,6.87-5.68-1.23-.83c1.22-1.86,2.44-3.72,3.4-5.19-1.29-.12-3.2-.29-6.35-.57,1.96-1.19,2.63-1.59,2.17-1.31l-.4-5.18-1.96-.1c.79-2.09,1.62-4.27,2.44-6.46l4.59-1.53c.19,1.71,.39,3.41,.66,5.75,3.32-1.28,6.31-2.92,9.5-3.55,5.42-1.07,10.96-1.5,16.44-2.19,2.22,.34,4.43,.67,6.65,1.01l-1.54,1.53c-5.08,1.76-10.15,3.52-19.89,6.89,4.86,3.85,7.42,7.34,10.36,7.7,2.05,.25,4.63-3.78,6.98-5.9,.79,.15,1.59,.29,2.38,.44l.81-1.88c1.54,1.06,2.96,2.04,4.39,3.02l.68-1.27-2.63-1.47c1.96-2.21,3.92-4.43,5.87-6.64l1.27,4c3.34-.66,6.82-.98,9.94-2.21,.83-.32,.57-3.42,.81-5.24,2.64,1.7,5.28,3.4,10.54,6.79-2.45-3.12-2.89-3.68-5.07-6.46,7.25,.92,12.4,1.57,17.54,2.23Zm-7.6,1.05c-1.85,2.42-4.18,5.12-6.05,8.1-.65,1.03-.28,2.79-.11,4.19,.04,.33,1.58,.86,1.65,.77,2.55-3.73,5.01-7.52,8.04-12.16-2.4,.17-3.03,.21-2.96,.2-.66-1.28-1.11-2.15-.57-1.1Zm-8.57,8.42l-.09-1.19c-1.19,.2-2.38,.4-3.56,.59l.14,.92,3.51-.32Z"/><path class="dd" d="M127.81,150.3c-.83,2.19-1.66,4.37-2.44,6.46l1.96,.1,.4,5.18c.46-.28-.21,.13-2.17,1.31,3.15,.28,5.05,.46,6.35,.57-.96,1.46-2.18,3.33-3.4,5.19l1.23,.83-6.87,5.68,1.11,1.58c1.66-1.29,3.35-2.54,4.97-3.87,.93-.77,1.75-1.68,2.63-2.53,.28,1.18,.56,2.36,.84,3.53,.56,.86,1.11,1.72,1.63,2.52-4.24,0-9.1,0-13.95,0-1-.41-2-.82-3.8-1.55,.8-1.06,2.4-2.26,2.6-3.66,.38-2.67-.05-5.45-.14-8.19-1.6,.31-3.2,.62-6.61,1.28-.76-1.68-1.52-6.73-4.43-8.92-3.16-2.37-8.32-2.08-12.62-2.95,4.38-.72,8.75-1.55,13.16-2.04,.61-.07,1.4,1.53,1.32,1.44l11.59,.6c-.81,.42-1.61,.84-2.42,1.26l.94,.95c.49-.74,.98-1.47,1.48-2.21,1.36-1.36,2.73-2.73,4.09-4.09,.85,.51,1.7,1.02,2.56,1.53Z"/><path class="dg" d="M271.45,176.86c-1.51-.67-3.02-1.34-3.88-1.72,1.5-2.91,2.97-5.74,3.99-7.72-2.13-.72-3.62-1.22-5.12-1.73,1.17-1.72,2.82-3.3,3.32-5.2,.28-1.07-1.04-3.23-2.19-3.82-1.35-.69-3.3-.2-4.99-.22,1.09-1.71,2.18-3.42,3.28-5.14,1.6-.34,3.18-.93,4.79-.99,9.99-.41,19.99-.71,29.98-1.05-.76,.72-1.41,1.85-2.29,2.09-3.82,1.02-7.7,1.78-9.54,2.19-6.1,6.65-10.16,11.07-11.55,12.59-1.92,5.6-2.8,8.16-3.68,10.73h-2.11Z"/><path class="bj" d="M273.56,176.87c.88-2.56,1.76-5.13,3.68-10.73,1.39-1.52,5.45-5.94,11.55-12.59,1.84-.41,5.73-1.17,9.54-2.19,.89-.24,1.54-1.37,2.29-2.09v-.93l3.06-.04-.07,9.54-.29,18.6c-.05,.16-.13,.31-.23,.44-.4-1.73-.75-3.48-1.22-5.19-1.24-4.58-2.53-9.15-3.8-13.72-1.74,2.09-3.48,4.17-6.95,8.33,0,0-1.93-.6-3.8-1.33-1.72-.67-3.39-1.48-5.09-2.23,1.32,1.37,2.82,2.61,3.85,4.17,.35,.53-.49,1.85-1.07,3.08,.03-.1,.34-.47,.65-.83-1.2-.79-2.39-1.59-3.59-2.38-.29,.44-.58,.87-.86,1.31,1.17,.72,2.35,1.44,3.8,1.9,1.81,.25,3.35,.76,4.88,1.27,.51,1.7,1.02,3.41,1.53,5.11,0,.17,0,.34,0,.5-5.96,0-11.91,0-17.87,0Z"/><path class="dg" d="M285.29,169.73c.3-.96,1.14-2.28,.79-2.81-1.03-1.56-2.53-2.8-3.85-4.17,1.69,.75,3.36,1.56,5.09,2.23,1.87,.73,3.8,1.32,3.8,1.33,3.47-4.16,5.21-6.24,6.95-8.33-.95,3.56-1.91,7.12-2.9,10.85,.57,.04,1.18,.09,4.24,.31-4.7,1.05-7.11,1.59-9.52,2.13-1.53-.51-3.07-1.02-4.6-1.53Z"/><path class="aj" d="M291.42,176.87c0-.17,0-.34,0-.5,.13-1.42,.25-2.85,.77-8.7,.64,5.98,.79,7.38,.97,9.07l-1.74,.14Z"/><path class="co" d="M209.1,91.5c-.11,.97-.54,2.68-.28,2.79,2.94,1.26,5.95,2.98,9,3.12,2.3,.11,4.7-1.88,7.35-3.07-.03,.62-.07,1.45-.05,1.04,4.72,1.64,9.19,3.2,12.39,4.31,.7,1.05,.34,.51,.26,.39h10.27c.92,2.31,1.7,4.28,2.47,6.24-1.36-.69-2.73-1.39-3.5-1.78-1.06,.54-1.82,1.18-2.66,1.33-3.22,.58-6.46,1-9.69,1.48-3.73-2.84-7.47-5.67-12.38-9.4,1.34,3.61,2.14,5.77,3.04,8.21-3.23,.4-6.41,.79-9.58,1.19l-4.08,1.03,1.61-2c-3.09-2.04-5.92-3.9-8.75-5.77l3.62-2.41c-2.69-1.25-4.7-2.18-6.7-3.11,.85-1.36,1.7-2.72,2.55-4.09h1.02l2.56-.51,1.53,1.02Z"/><path class="h" d="M234.67,107.35c3.23-.48,6.48-.9,9.69-1.48,.85-.15,1.61-.78,2.66-1.33,.77,.39,2.13,1.09,3.5,1.78,.63,.55,1.26,1.1,.08,.07,5.94,.4,10.08,.68,14.23,.96,.34,1.2,.68,2.39,1.02,3.59-6.3,0-12.6-.01-18.9-.02-4.43-.51-8.87-1.02-13.3-1.53,.34-.68,.68-1.36,1.02-2.05Z"/><path class="co" d="M265.85,110.94c-.34-1.2-.68-2.39-1.02-3.59,3.71,.78,7.42,1.56,11.65,2.45,.03-.04,.58-.73,1.14-1.42,4.44-.34,8.88-.68,13.31-1.01-.02,.16-.04,.32-.06,.47-5.78,1.2-11.56,2.4-17.35,3.6-1.96-.62-3.92-1.24-6.05-1.92l-.09,1.91-.53,.05c-.15,0-.31,0-.46,0l-.54-.54Z"/><path class="dc" d="M209.1,91.5l-1.53-1.02-2.04-2.56c1.19-.17,2.38-.34,3.58-.5,1.54,.85,3.07,1.7,4.61,2.55,.17,.34,.34,.68,.51,1.02l-2.94,1.7-2.17-1.19Z"/><path class="bp" d="M214.22,90.99c-.17-.34-.34-.68-.51-1.02,1.44,.22,2.89,.44,4.33,.65l-1.73,2.49-2.09-2.12Z"/><path class="dc" d="M198.88,76.68h2.56c1.19,3.41,2.38,6.82,3.57,10.23l-1.02,2.05c-.68-.51-1.37-1.02-2.05-1.52-5.87-2.2-9.95-4.91-3.06-10.75Z"/><path class="h" d="M203.99,88.95l1.02-2.05c.17,.34,.35,.68,.52,1.02,.68,.85,1.36,1.71,2.04,2.56-.85,.17-1.71,.34-2.56,.51-.34-.68-.68-1.36-1.02-2.04Z"/><path class="at" d="M198.88,76.68c-6.88,5.83-2.8,8.55,3.06,10.75-2.72-.35-5.45-.69-8.17-1.04l-4.1-2.55c1.01-1.62,2.64-3.18,2.82-4.89,.12-1.16-1.79-2.53-2.8-3.81h0c-.17-2.38-.35-4.77-.52-7.15,3.24,2.9,6.48,5.8,9.71,8.69Z"/><path class="g" d="M186.13,81.79c-.35,.33-.7,.66-1.05,1,.23-1.04,.45-2.09,1.12-5.2,.18,1.29,.02,.18-.13-.93,.35,0,.69,0,1.04,.01,.51-1.53,1.02-3.06,1.53-4.59,.35,1.02,.69,2.04,1.04,3.06h0c-1.18,2.22-2.37,4.43-3.55,6.65Z"/><path class="al" d="M188.64,72.08c-.51,1.53-1.02,3.06-1.53,4.59-.51-1.71-1.02-3.41-1.52-5.12l1.02-1.01,2.04,1.54Z"/><path class="cy" d="M307.79,143.14c.16-4.94,.33-9.88,.49-14.82,.86-.51,1.72-1.03,2.57-1.54-.51,2.38-1.02,4.76-1.53,7.15-.17,8.36-.34,16.72-.51,25.07-.34-.69-.69-1.37-1.03-2.06,0-4.6,0-9.2,0-13.8Z"/><path class="cy" d="M310.86,125.77c-.34-1.71-.69-3.42-1.03-5.13,1.01,.94,2.02,1.89,3.32,3.1-.76,.67-1.53,1.35-2.29,2.03Z"/><path class="dg" d="M317.89,153.45c-.27,.82-.55,1.65-.82,2.47-.42-.18-1.22-.43-1.2-.53,.14-.81,.44-1.59,.68-2.38l1.34,.44Z"/><path class="bp" d="M307.79,156.94c.34,.69,.69,1.37,1.03,2.06-.34,2.05-.68,4.09-1.02,6.14h-.02c0-2.74,0-5.47,0-8.19Z"/><path class="e" d="M277.11,84.34c1.19-1.02,2.39-2.05,3.58-3.07l1.02-1.02c.17,0,.34,0,.51,0-.51,1.53-1.02,3.07-1.53,4.6l-3.58-.51Z"/><path class="dg" d="M279.95,95.16c-1.03,.5-1.64,1.06-2.05,.94-.52-.15-.88-.86-1.31-1.33,.49-.35,.99-.96,1.48-.96,.48,0,.96,.64,1.88,1.34Z"/><path class="d" d="M290.88,107.84c.02-.16,.04-.31,.06-.47,.31-.19,.63-.37,.94-.56,.01,.34,.02,.69,.03,1.03-6.64,2.4-13.28,4.8-19.91,7.2-.16-.02-.32-.04-.48-.04-18.58,.01-37.16,.03-55.73,.04-3.25-.01-6.49-.03-9.74-.04,3.7-.52,7.39-1.14,11.11-1.53,7.2-.74,14.41-1.35,21.62-2.02,2.55-.17,5.1-.34,7.65-.51,6.66,.18,13.32,.36,19.97,.55,.15,0,.31,0,.46,0,8.01-1.21,16.01-2.43,24.02-3.64Z"/><path class="cj" d="M291.91,107.84l-.03-1.03,.52-.52c.51,3.96,1.02,7.91,1.53,11.87-2.54-.37-5.08-.73-7.62-1.1-2.39-.16-4.78-.32-7.17-.47-2.04-.18-4.09-.35-6.13-.53,0-.17,0-.34,.01-.51,6.77-1.41,16.53,4.51,18.89-7.71Z"/><path class="ck" d="M302.69,122.66c.35,.12,.7,.25,1.05,.37-.02,.39-.04,.79-.06,1.18-5.77,4.16-11.53,8.33-17.15,12.38,.53,.61-1.25-1.44-3.82-4.41-.05,.3,.22-1.23,.87-4.84-1.45,2.93-1.83,4.12-2.59,4.98-.22,.24-2.26-.7-2.25-.76,.65-2.35,1.46-4.66,2.18-6.99,.13-.41,.06-.98-.15-1.34-.1-.17-.89-.18-1.13,.02-.4,.35-.66,.9-.9,1.41-.57,1.18-1.09,2.39-1.63,3.59l-.91-.57c.39-1.31,.78-2.62,2.24-7.53-2.71,4.35-3.42,5.48-3.79,6.08-.92-.78-1.84-1.55-3.39-2.86,.07,.29-.11-.45-.29-1.19,9.03,0,18.07,0,27.1,0l2.63,.45,1.99,.03Z"/><path class="ar" d="M306.76,137.01c-.01,2.04-.02,4.09-.03,6.13-.32,2.08-.81,4.14-.94,6.23-.56,8.52-1.02,17.04-1.51,25.56-.04-.92-.08-1.83-.12-2.75-.18-8.34-.36-16.69-.54-25.03,.07-.12,.13-.24,.19-.38l.41-.57,.46-.56c.38-1.2,.76-2.39,1.14-3.59,.32-1.68,.63-3.37,.95-5.05Z"/><path class="de" d="M304.67,145.65l-.46,.56-.54-22,.06-1.18c.31,7.54,.62,15.08,.93,22.62Z"/><path class="c`" d="M293.46,105.34c10.41,.86,11.81,7.92,11.26,16.33-.51-1.36-1.03-2.73-1.54-4.09-2.72-3.58-5.45-7.17-8.17-10.75-.52-.5-1.03-.99-1.55-1.49Z"/><path class="i" d="M295.01,106.83c2.72,3.58,5.45,7.17,8.17,10.75-2.72-3.58-5.45-7.17-8.17-10.75Z"/><path class="cp" d="M302.69,122.66c-.66-.01-1.33-.02-1.99-.03-1.9-.65-3.81-1.31-5.71-1.96-2.89-1.2-5.79-2.4-8.68-3.6,2.54,.37,5.08,.73,7.62,1.1,2.92,1.5,5.84,3,8.76,4.5Z"/><path class="bq" d="M211.67,108.37c1.36-.34,2.72-.69,4.08-1.03,2.73,1.2,5.45,2.39,8.18,3.59-6.64,.68-13.29,1.36-19.93,2.04-6.82,0-13.64,0-20.46,0-.18-.52-.36-1.03-.54-1.55,0-.17,0-.33,0-.5,1.03-3.58,2.06-7.16,3.09-10.74,1.18-1.37,2.36-2.73,3.54-4.1,2.15,.28,4.29,.56,10.58,1.38-5.76-2.47-7.9-3.39-10.61-4.56l2.62-.39c1.36,.17,2.73,.34,4.09,.51,1.29,1.01,2.59,2.03,4.78,3.74l-6.28,3.21c-.74-.98-1.17-1.78-1.82-2.31-.25-.2-1.01,.24-1.53,.39,1.83,4.1,3.67,8.2,5.11,11.43,4.29-.66,6.47-.99,11.69-1.8-.56-.11,1.43,.28,3.41,.67Z"/><path class="bd" d="M192.23,92.52l-2.62,.39c2.71,1.16,4.85,2.08,10.61,4.56-6.29-.82-8.44-1.1-10.58-1.38-1.69-1.19-3.38-2.38-5.07-3.56,.67-.18,1.34-.37,2-.56,.69-.5,1.38-1,2.07-1.5,0-.18,.01-.37,.02-.55,1.19,.87,2.38,1.74,3.56,2.6Z"/><path class="bf" d="M186.1,100.19c-1.03,3.58-2.06,7.16-3.09,10.74,1.03-3.58,2.06-7.16,3.09-10.74Z"/><path class="ae" d="M183.55,112.98c6.82,0,13.64,0,20.46,0-.18,.67-.35,1.33-.53,2-5.09,.2-10.19,.4-15.28,.61l-4.65-2.6Z"/><path class="aa" d="M188.19,115.58c5.09-.2,10.19-.4,15.28-.6,.85,0,1.71,.01,2.56,.02,3.25,.01,6.49,.03,9.74,.04,2.75,.15,5.5,.29,8.26,.44,11.39,.17,22.77,.35,34.16,.52-21.47,.19-42.94,.39-64.42,.58-1.89,0-3.79,0-5.68,0,.03-.33,.06-.67,.1-1Z"/><path class="x" d="M304.28,174.93c.49-8.52,.95-17.04,1.51-25.56,.14-2.09,.62-4.16,.94-6.23,.35,0,.71,0,1.06,0,0,4.6,0,9.2,0,13.8,0,2.73,0,5.46,0,8.18-1.01,3.91-2.03,7.83-3.04,11.74l-.66-.4c.07-.51,.13-1.02,.2-1.53Z"/><path class="da" d="M54.6,163.17c-.03,4.4-.06,8.8-.09,13.2-.62-.01-1.24-.02-1.85-.04-.17-.16-.34-.32-.51-.48-.48-1.35-.96-2.7-2.48-7-.13-1.61-.61-7.78-1.1-13.96l.52-1.02c-.17-1.7-.34-3.41-.51-5.11v-1.02l1.55-2.57,4.66,17.51c-.54,1.6-.35,1.04-.16,.49Z"/><path class="t" d="M52.14,175.86c.17,.16,.34,.32,.51,.48-4.47,0-8.97,.36-13.4-.05-13.78-1.28-1.64-11.02-5-15.76,.68,1.36,1.37,2.73,2.05,4.09,.21,1.91,.43,3.83,.48,4.29,2.43,.22,4.85-.17,6.58,.74,3.14,1.66,5.88,4.09,8.78,6.2Z"/><path class="de" d="M52.63,124.21c-1.43-3.68-2.93-7.33-4.23-11.06-.4-1.16-.26-2.51-.36-3.77,2.05,2.39,4.1,4.78,6.15,7.17,0,1.02,0,2.04-.01,3.05-.25-1.44-.49-2.87-1.54-8.99v13.59Z"/><path class="cx" d="M54.17,119.61c0-1.02,0-2.04,.01-3.05,3.9-3.42,7.79-6.84,11.69-10.26-3.4,5.11-6.79,10.22-10.18,15.33-.5,.36-1,.72-1.5,1.07v-3.09Z"/><path class="au" d="M185.59,71.55c.51,1.71,1.02,3.41,1.52,5.12-.35,0-.69,0-1.04-.01-.84-.68-1.68-1.36-2.51-2.04-.17-2.73-.34-5.45-.51-8.18,.85,1.71,1.69,3.41,2.54,5.12Z"/><path class="di" d="M186.13,81.79c1.18-2.22,2.37-4.43,3.55-6.65,1,1.28,2.92,2.65,2.8,3.81-.18,1.71-1.81,3.27-2.82,4.89-1.03-.51-2.05-1.02-3.08-1.52l-.46-.52Z"/><path class="g" d="M186.59,82.31c1.03,.51,2.05,1.02,3.08,1.52,1.37,.85,2.73,1.7,4.1,2.55l2.57,2.58h0c-2.56-.53-5.12-1.04-7.69-1.56l-2.06-5.09Z"/><path class="bs" d="M188.64,87.4c2.56,.52,5.12,1.04,7.69,1.56-2.55,.32-5.11,.64-7.66,.96l-.02,.56c0-1.02,0-2.05,0-3.07Z"/><path class="ad" d="M54.18,122.7c.5-.36,1-.72,1.5-1.07,3.57-1.69,7.13-3.38,10.7-5.06l1.07,.62c-3.91,1.84-7.82,3.68-11.72,5.52-.29,.15-.58,.3-.87,.45l-.68,.04c0-.17,0-.33,0-.5Z"/><path class="u" d="M55.73,122.7l11.72-5.52,4.61-.65c4.6-.17,9.19-.35,13.79-.52,3.4-.02,6.81-.03,10.21-.05,21.83,.02,43.66,.05,65.49,.07,1.24,.15,2.48,.3,3.72,.45-8.57,.71-17.14,1.41-25.71,2.12-11.61,.03-23.24-.38-34.81,.22-11.77,.6-23.49,2.19-35.24,3.35-.17,0-.34,0-.51,0-4.43,.18-8.85,.35-13.28,.53Z"/><path class="by" d="M85.85,116.01c-4.6,.17-9.19,.35-13.79,.52-1.53-.34-3.06-.69-4.59-1.03,.36-.02,.72-.04,1.07-.06,.66,.02,1.32,.04,1.98,.05,4.26,0,8.52,.01,12.78,.02l2.55,.5Z"/><path class="aq" d="M73.09,100.72l2.11,1.25c-1.99,1.86-3.31,3.11-4.64,4.35-.35,1.2-.69,2.4-1.04,3.6l-.53,1.54c0-2.39,0-4.77,0-7.16,1.36-1.19,2.73-2.39,4.09-3.58Z"/><path class="cs" d="M69,111.46c.18-.51,.35-1.03,.53-1.54,.34,.68,.67,1.36,1.01,2.03,3.41,.68,6.82,1.36,10.23,2.04l.54,.53c-.02,.15-.04,.31-.06,.46-3.57,.17-7.15,.34-10.72,.51-.66-.02-1.32-.04-1.98-.05,.15-1.33,.3-2.65,.45-3.98Z"/><path class="bj" d="M52.14,175.86c-2.9-2.11-5.64-4.55-8.78-6.2-1.73-.91-4.16-.52-6.58-.74-.05-.47-.27-2.38-.48-4.29,.72-2.1,1.92-4.17,2.06-6.31,.31-4.88,.1-9.8,2.59-14.62l.23,4.26,1.61,.04c-.1,2.24-.14,4.49-.33,6.72-.08,.95-.48,1.87-.73,2.8,.66-.16,1.32-.32,1.98-.47l-.57-1.33c1.81-.27,3.62-.54,5.42-.82,.49,6.17,.97,12.35,1.1,13.96,1.53,4.3,2.01,5.65,2.48,7Z"/><path class="e" d="M54.6,163.17c-.19,.56-.38,1.11,.16-.49-1.23-4.62-2.94-11.07-4.66-17.51-.17-.85-.34-1.69-.51-2.54,1-5.82,1.99-11.64,2.99-17.45,.07,.05,.14,.11,.2,.16,.79,7.53,1.57,15.06,2.36,22.59-.03,.12-.07,.24-.1,.36,.05,3.39,.11,6.78,.16,10.17-.2,1.57-.4,3.14-.61,4.71Z"/><path class="bj" d="M49.59,142.64c.17,.85,.34,1.69,.51,2.54-.52,.86-1.03,1.71-1.55,2.57l-2.3-1.4,3.33-3.71Z"/><path class="e" d="M54.18,122.7c-.01,.17-.02,.33,0,.5l-1.39,2.15c-.07-.05-.13-.11-.2-.16,.02-.32,.04-.65,.05-.97,0-2.97,0-5.94,0-13.59,1.05,6.11,1.29,7.55,1.54,8.99,0,1.03,0,2.06,.01,3.09Z"/><path class="bj" d="M48.55,148.77c.17,1.7,.34,3.41,.51,5.11-.17-1.7-.34-3.41-.51-5.11Z"/><path class="bu" d="M304.28,174.93c-.07,.51-.13,1.02-.2,1.53l-.75-.03c.1-6.2,.19-12.4,.29-18.6,.18,4.78,.36,9.56,.54,14.34,.04,.92,.08,1.83,.12,2.75Z"/><path class="al" d="M116.05,111.44c1.19,0,2.38,.01,3.57,.02,2.9,0,5.8,0,8.71,0,.17,0,.34,0,.5,0,.86,.67,1.72,1.34,2.58,2.01-11.6,.17-23.2,.34-34.8,.52,1.55-.66,3.1-1.32,4.64-1.98,.16-.02,.32-.03,.49-.04,4.77-.17,9.54-.35,14.32-.52Z"/><path class="as" d="M116.05,111.44c-4.77,.17-9.54,.35-14.32,.52,3.92-.85,7.84-1.71,11.76-2.56,.85,.68,1.7,1.36,2.56,2.04Z"/><path class="ac" d="M80.77,114c-3.41-.68-6.82-1.36-10.23-2.04,2.22-.51,4.43-1.02,6.65-1.53,1.92,.19,3.84,.38,6.21,.62l-1.62,2.45-1.02,.5Z"/><path class="bd" d="M80.77,114l1.02-.5c6.49-.5,12.97-1,19.46-1.5-1.55,.66-3.1,1.32-4.64,1.98-5.1,.18-10.2,.36-15.3,.54l-.54-.53Z"/><path class="bd" d="M77.19,110.43c-2.22,.51-4.43,1.02-6.65,1.53-.34-.68-.67-1.36-1.01-2.03,.35-1.2,.69-2.4,1.04-3.6,2.55,.85,5.1,1.71,7.65,2.56l-1.03,1.54Z"/><path class="db" d="M81.31,114.52c5.1-.18,10.2-.36,15.3-.54,11.6-.17,23.2-.34,34.8-.52,3.23,.18,6.47,.35,9.7,.53,.17,0,.34,0,.51,0,2.38,.19,4.76,.38,7.14,.57,0,.15,.02,.3,.03,.45-1.39,.17-2.79,.34-4.18,.51l-2.99-.52c-15.51,0-31.02-.01-46.53-.02l-5.02,.11c-2.23,0-4.46,0-6.69,0l-2.13-.09c.02-.15,.04-.31,.06-.46Z"/><path class="ag" d="M141.1,113.99c-3.23-.18-6.47-.35-9.7-.53-.86-.67-1.72-1.34-2.58-2.01,4.09,.85,8.19,1.69,12.28,2.54Z"/><path class="as" d="M128.32,111.45c-2.9,0-5.8,0-8.71,0,1.71-.69,3.42-1.37,5.13-2.06,.34,.34,.68,.69,1.02,1.03,.85,.34,1.7,.68,2.55,1.02Z"/><path class="ag" d="M148.75,114.56c-2.38-.19-4.76-.38-7.14-.57,.68-.68,1.37-1.35,2.05-2.03,1.7,.87,3.39,1.73,5.09,2.6Z"/><path class="m" d="M165.13,141.61c-1.02,.68-2.04,1.37-3.07,2.05-1.02,1.17-2.05,2.35-3.07,3.52h-1.01c-3.73-.52-7.47-1.51-11.19-1.44-5.82,.1-11.63,.93-17.45,1.44-5.79,0-11.57,0-17.36,0,.95-.39,1.91-.78,2.86-1.18l-.24-1.29c-3.44,.82-6.88,1.65-10.31,2.47h-1l-5.64-2.5c-.06-2.13-.12-4.27-.19-6.4l2.79,2.09,1.08-1.34c-2.27-1.81-4.53-3.62-6.62-5.29-1.38,2.2-2.39,3.83-3.19,5.11,.63,.79,1.42,1.44,1.69,2.27,.11,.36-.86,1.06-1.3,1.55l1.65,3.03c-.85,0-1.71,0-2.56,0-1.38-2.8-2.75-5.6-4.13-8.4l3.4-1.76c-.62-.45-1.24-.9-.22-.16l1.02-8.94c-.92,.57-.35,.21-.12,.08l-2-2.81h9.95l2.84-.51,5.54,5.16-2.83,1.59,.86,2.45c-1.21-.41-2.43-.82-3.64-1.23l-.74,2.88c1.8-.67,3.09-1.16,4.38-1.65,.37,2.2,.73,4.4,1.37,8.2,2.88-3.29,5.41-5.15,6.44-7.64,1.17-2.79,.98-6.15,1.39-9.25,9.54-.51,19.09-1.02,28.63-1.53l19.99,3.2c-.38,1.32-.76,2.63-1.14,3.95h-2.81c.81,3.7,1.59,7.22,2.36,10.74l2.56,1.02,1.02,.51Zm-44.37,.22c-1.23-1.31-2.19-2.33-3.56-3.78l-2.05,3.17c3.86,1.39,7.66,3.35,11.63,3.79,1.07,.12,3.79-4.46,3.62-6.73-.13-1.72-3.61-3.21-5.64-4.76-.15-.12-.59,.13-1.11,.27,.53,.62,.91,1.07,.71,.83-.56,1.92-.91,3.16-1.25,4.34-.76-.89-1.38-1.69-2.12-2.38-.08-.07-1.15,.54-1.12,.78,.13,1.25,.46,2.47,.87,4.46Z"/><path class="aj" d="M209.61,142.12c.13-2.67,.1-5.37,.45-8.01,.13-1,1.11-1.9,1.7-2.84,.68,.63,1.36,1.25,.49,.45l13.43,4.28-1.18-5.65c1.21-1.73,1.85-2.66,2.49-3.58,.78-1.4,1.55-2.8,2.28-4.12,9.35,.88,18.88,1.77,28.33,2.66-.14,1.27-.04,.34,.07-.59,.51-.17,1.02-.34,1.53-.51l3.07,3.07-.51,.51c-1.11,2.63-2.14,5.3-3.39,7.87-.5,1.03-2.11,1.87-2.06,2.73,.06,1.15,1.24,2.25,1.94,3.37-2.1,1.15-4.3,3.4-6.29,3.23-6.2-.51-12.33-1.94-20.09-3.29l-8.96,5.46h-3.57c-1.2-.67-2.39-1.33-3.59-1.99,.35-.61,.71-1.23,1.14-1.97l-7.27-1.1h0Z"/><path class="u" d="M193.78,116.58c21.47-.19,42.94-.39,64.42-.58,4.94,.02,9.88,.04,14.82,.06l6.13,.53c5.28,1.36,10.56,2.72,15.85,4.08,1.9,.65,3.81,1.31,5.71,1.96-.88-.15-1.75-.3-2.63-.45-2.92-.51-5.82-1.38-8.75-1.48-20.22-.67-40.45-1.71-60.67-1.55-14.02,.11-28.03,1.96-42.04,3.03-2.38,.67-4.76,1.35-7.14,2.02,.17-.5,.34-1,.51-1.51,.67-.34,1.34-.68,2.01-1.02,3.93-1.69,7.86-3.39,11.79-5.08Z"/><path class="dh" d="M219.34,147.18h47.57c1.52,0,3.04,0,4.56,0h7.17l23.02,.13,2.03,.98-3.05,.04c-2.4-.05-4.8-.11-7.21-.16-8.33,0-16.66,0-24.99,.01l-10.23,.16-2.07-.05c-.87,.02-1.74,.03-2.61,.05-1.53-.06-3.06-.11-4.59-.17h-50.62l-12.7-.02c-.7,.06-1.4,.11-2.1,.17-5.12,0-10.24,0-15.36,0-3.06,0-6.12,0-9.17,0-2.72,0-5.43-.02-8.15-.03h-1.59c-1.7-.05-3.41-.09-5.11-.12l-16.29-.02c-1.03,.05-2.06,.1-3.09,.15-23.24-.01-46.47-.02-69.71-.03,.03-.12,.07-.24,.1-.36l.06-.55c1.36-.08,2.71-.16,4.07-.24,14.67,.01,29.35,.02,44.02,.03h1c2.57,0,5.13,0,7.7,0,5.79,0,11.57,0,17.36,0,9.55,0,19.09,0,28.64,0h1.01c6.15,0,12.29-.01,18.44-.02h1.99c9.73,0,19.46,.01,29.19,.02,1.54,0,3.07,0,4.61,0h1.51c1.54,0,3.07,0,4.61,0Z"/><path class="ap" d="M161.55,140.07c-.77-3.52-1.55-7.04-2.36-10.74h2.81c.38-1.32,.76-2.63,1.14-3.95-6.66-1.07-13.33-2.13-19.99-3.2v-.52c11.76,.33,23.52,.67,35.27,1-3.24,.92-6.73,1.37-9.62,2.93-1.67,.9-2.39,3.58-3.72,5.75h4.16c1.41,1.33,2.89,2.71,4.64,4.36-1.68,.33-3.47,.68-2.94,.57-2.92,2.68-4.36,4-5.8,5.32l-1.02-.51c.54-.74,1.08-1.47,2.36-3.24-2.31,1.04-3.62,1.62-4.92,2.21Z"/><path class="aj" d="M186.1,145.7l1.42-13.91c2.74-.92,5.01-1.68,7.53-2.53-.1-.47,.09,.42,.16,.79,1.73,.61,3.25,1.15,4.77,1.68l-2.71,3.25c2.81-1.11,4.14-1.63,5.02-1.98-.89,3.92-1.89,8.31-2.89,12.7-1.19-.51-2.38-1.02-3.58-1.53v-3.78c-1.18,1.6-1.62,2.18-2.05,2.77l-7.66,2.55Z"/><path class="ab" d="M179.47,124.19c2.38-.67,4.76-1.35,7.14-2.02,12.61-.34,25.23-.67,37.84-1.01-1.02,.85-2.05,1.7-3.07,2.55-3.84,.26-7.69,.51-11.24,.75-.86,1.21-1.48,2.09-2.1,2.96l-.93-.62,1.96-3.39c-6.71,1.03-12.52,1.92-18.06,2.77-.2,1.33,.07-.48,.48-3.27-2.46,2.7-4.32,4.75-6.12,6.73l-4.48-1.14c.41,1.58,.85,3.25,1.28,4.92l-1.84,.29,.38,7.64-1.25,.24v-17.41Z"/><path class="bt" d="M221.38,123.72c1.02-.85,2.05-1.7,3.07-2.55,9.71,.17,19.43,.34,29.14,.5,1.67,.37,3.35,.74,5.17,1.14l-1.08,1.93c-.1,.93-.21,1.85-.07,.59-9.45-.89-18.98-1.78-28.33-2.66-.73,1.31-1.51,2.72-2.28,4.12-1.87-1.02-3.75-2.04-5.62-3.06Z"/><path class="dl" d="M186.1,145.7c2.55-.85,5.11-1.7,7.66-2.55,.26,.93,.52,1.86,.98,3.51l1.08-2.5c1.19,.51,2.38,1.02,3.58,1.53,1.82-.75,3.65-1.5,9.04-3.72-2.44-.3-.63-.08,1.19,.15h0c-1.19,.68-2.39,1.36-3.58,2.05l2.57,3.02c-9.73,0-19.46-.02-29.19-.03,2.22-.48,4.45-.97,6.67-1.46Z"/><path class="dl" d="M177.43,147.16c-6.15,0-12.29,0-18.44,.01,1.02-1.17,2.05-2.35,3.07-3.52,4.27,.69,8.54,1.32,12.79,2.11,.91,.17,1.72,.91,2.57,1.39Z"/><path class="aj" d="M216.76,132.71c1.44-2.2,1.99-3.05,2.91-4.45l1.26,2.78c-.92,.37-1.84,.74-4.17,1.67Z"/><path class="ck" d="M69.01,122.17c.17,0,.34,0,.51,0,5.63,0,11.25,0,16.88,0,.85,.51,1.71,1.02,2.56,1.53h0c-3.13,3.48-6.26,6.96-9.37,10.42,.01,0-1.17-.77-.53-.35-2.54-3.7-4.04-5.89-6.36-9.27,.24,2.54,.34,3.58,.39,4.11l-2.42,1.93c-2.12-1.7-4.73-3.79-7.34-5.88-1.87,2.61-3.74,5.23-5.61,7.84l2.48,1.24c-1.85,4.2-3.71,8.41-5.56,12.61l-.5-11.77c-.82-8.86,2.6-13.06,11.93-11.09,.85,.18,1.96-.86,2.95-1.33Z"/><path class="ab" d="M143.15,121.66v.52c-9.54,.51-19.09,1.02-28.63,1.53-.34-.51-.68-1.02-1.02-1.53h-.01l29.66-.52Z"/><path class="be" d="M139.57,118.6c8.57-.71,17.14-1.41,25.71-2.12,2.7,.17,5.41,.33,8.11,.5-5.31,.65-10.6,1.62-15.93,1.86-5.95,.27-11.92-.13-17.89-.24Z"/><path class="bo" d="M88.95,123.71c-.85-.51-1.71-1.02-2.56-1.53,9.03,0,18.06,0,27.09,0h.01c-3.92,.35-7.84,.69-11.76,1.03l-2.84,.5h-9.95Z"/><path class="ah" d="M90.06,115.08c1.67-.04,3.35-.07,5.02-.11,15.51,0,31.02,.01,46.53,.02l2.99,.52c-16.15,.02-32.29,.04-48.44,.06-2.03-.16-4.07-.33-6.1-.49Z"/><path class="cf" d="M90.06,115.08c2.03,.16,4.07,.33,6.1,.49-.04,.13-.07,.26-.1,.39-3.4,.02-6.81,.03-10.21,.05-.85-.17-1.7-.33-2.55-.5,.02-.15,.04-.29,.07-.44,2.23,0,4.46,0,6.69,0Z"/><path class="bo" d="M144.14,148.19c1.7,.04,3.41,.07,5.11,.11-5.62,.15-11.24,.31-16.85,.46-1.53,.51-3.06,1.02-4.59,1.53-.85-.51-1.7-1.02-2.56-1.53l-.5-.44c1.03-.05,2.06-.1,3.09-.15,5.43,0,10.86,.01,16.29,.02Z"/><path class="bb" d="M248.95,148.19c1.53,.06,3.06,.11,4.59,.17-3.32,.33-6.63,.75-9.96,.96-6.21,.4-12.42,.67-18.63,1-5.62,.34-11.25,.68-16.87,1.02-5.14-.65-10.29-1.31-17.54-2.23,2.18,2.78,2.62,3.34,5.07,6.46-5.26-3.38-7.9-5.09-10.54-6.79-.51,0-1.02,0-1.53,0,0-.14,0-.29-.01-.43,.7-.06,1.4-.11,2.1-.17,4.23,0,8.47,.01,12.7,.02,12.64,0,25.27,0,37.91,0,4.24,0,8.47,0,12.71,0Z"/><path class="dl" d="M258.21,148.35c3.41-.05,6.82-.11,10.23-.16h24.99c2.4,.04,4.8,.1,7.21,.15v.93c-10.01,.34-20,.64-29.99,1.05-1.61,.07-3.19,.65-4.79,.99-2.55-.99-5.1-1.98-7.64-2.97Z"/><path class="cc" d="M224.95,150.31c6.21-.33,12.42-.6,18.63-1,3.33-.21,6.64-.63,9.96-.96,.87-.02,1.74-.03,2.61-.05l-.14,2.01h-31.05Z"/><path class="dg" d="M268.02,162.25c-.81,.36-2.52,1.57-2.96,1.22-1.23-1-1.94-2.64-3.58-5.13,2.91,1.74,4.61,2.76,6.54,3.91Z"/><path class="n" d="M161.55,160.01c-2.34,2.12-4.92,6.16-6.98,5.9-2.94-.36-5.5-3.85-10.36-7.7,9.74-3.38,14.82-5.13,19.89-6.89,1.07,.74,2.14,1.49,3.04,2.11-1.8,2.12-3.69,4.35-5.59,6.59Z"/><path class="aj" d="M161.55,160.01c1.9-2.24,3.8-4.47,5.59-6.59-.89-.62-1.96-1.36-3.04-2.11l1.54-1.53c.17,0,.33,0,.5,0,1.73,.65,3.45,1.29,4.24,1.59,4.57-.9,8.87-1.75,13.16-2.6,.51,0,1.02,0,1.53,0-.24,1.82,.02,4.91-.81,5.24-3.12,1.22-6.59,1.55-9.94,2.21l-1.27-4c-1.96,2.21-3.92,4.43-5.87,6.64l2.63,1.47-.68,1.27c-1.43-.98-2.86-1.97-4.39-3.02l-.81,1.88c-.79-.15-1.58-.29-2.38-.44Z"/><path class="bo" d="M132.4,148.77c5.62-.15,11.24-.31,16.85-.46,.53,0,1.06,0,1.59,.01,2.72,.15,5.43,.3,8.15,.45h0c-5.49,.71-11.03,1.13-16.44,2.2-3.19,.63-6.18,2.27-9.5,3.55-.27-2.34-.46-4.04-.66-5.75Z"/><path class="aj" d="M200.48,152.37c-.54-1.05-.09-.18,.57,1.1-.07,0,.56-.04,2.96-.2-3.03,4.64-5.49,8.43-8.04,12.16-.07,.1-1.61-.43-1.65-.77-.16-1.4-.53-3.15,.11-4.19,1.87-2.99,4.2-5.68,6.05-8.1Z"/><path class="bo" d="M166.14,149.78c-.17,0-.33,0-.5,0-2.22-.34-4.43-.67-6.65-1.01h0v-.43c3.06,0,6.12,0,9.18,0l-2.03,1.44Z"/><path class="aj" d="M191.9,160.79l-3.51,.32-.14-.92c1.19-.2,2.38-.4,3.56-.59l.09,1.19Z"/><path class="an" d="M121.16,152.86l-1.48,2.21-.94-.95c.81-.42,1.61-.84,2.42-1.26h0Z"/><path class="bv" d="M303.69,148.3l-2.03-.98,1.96-.16c.18,8.34,.36,16.69,.54,25.03-.18-4.78-.36-9.56-.54-14.34,.02-3.18,.05-6.36,.07-9.54Z"/><path class="dg" d="M284.73,170.26c-1.17-.72-2.35-1.44-3.52-2.16,.29-.44,.58-.87,.86-1.31,1.2,.79,2.39,1.59,3.59,2.38-.31,.36-.62,.73-.94,1.09Z"/><path class="h" d="M211.67,108.37c-1.98-.39-3.96-.78-3.41-.67-5.22,.8-7.39,1.14-11.69,1.8-1.44-3.23-3.28-7.33-5.11-11.43,.53-.15,1.28-.59,1.53-.39,.65,.52,1.08,1.32,1.82,2.31l6.28-3.21c-2.19-1.71-3.48-2.73-4.78-3.74,1.7,.68,3.41,1.36,5.11,2.05,2,.93,4.01,1.86,6.7,3.11l-3.62,2.41c2.84,1.87,5.66,3.73,8.75,5.77l-1.61,2Z"/><path class="cv" d="M223.93,110.93c-2.73-1.2-5.45-2.39-8.18-3.59,3.17-.39,6.34-.79,9.58-1.19-.9-2.44-1.7-4.6-3.04-8.21,4.91,3.73,8.64,6.57,12.38,9.4-.34,.68-.68,1.36-1.02,2.05l-4.26,.76,.65,1.26c-2.04-.16-4.08-.32-6.11-.48Z"/><path class="dc" d="M201.44,95.08c-1.7-.68-3.41-1.36-5.11-2.05-1.36-.17-2.73-.34-4.09-.51-1.19-.87-2.38-1.73-3.56-2.6,2.55-.32,5.11-.64,7.66-.96h0c2.55,.68,5.1,1.36,7.66,2.04-.85,1.36-1.7,2.72-2.55,4.09Z"/><path class="bs" d="M203.99,90.99c-2.55-.68-5.1-1.35-7.66-2.03-.86-.86-1.71-1.72-2.57-2.57,2.72,.35,5.45,.69,8.17,1.04,.68,.51,1.37,1.02,2.05,1.52,.34,.68,.68,1.36,1.02,2.04h-1.02Z"/><path class="q" d="M266.39,111.48c-6.66-.18-13.32-.36-19.97-.55,.18,0,.36-.01,.54-.02,6.3,0,12.6,.01,18.9,.02,.18,.18,.36,.36,.54,.54Z"/><path class="ad" d="M246.95,110.92c-.18,0-.36,.01-.54,.02-2.55,.17-5.1,.34-7.65,.51-2.91-.01-5.81-.02-8.72-.03l-.65-1.26,4.26-.76c4.43,.51,8.87,1.02,13.3,1.53Z"/><path class="ad" d="M290.88,107.84c-8.01,1.21-16.01,2.43-24.02,3.64,.18-.02,.36-.04,.53-.05,2.05,0,4.09,0,6.14,0,5.78-1.2,11.56-2.4,17.35-3.6Z"/><path class="h" d="M273.53,111.44c-2.05,0-4.09,0-6.14,0,.03-.56,.05-1.12,.09-1.91,2.13,.68,4.09,1.3,6.05,1.92Z"/><path class="cq" d="M230.05,111.42c2.91,.01,5.81,.02,8.72,.03-7.21,.66-14.42,1.27-21.62,2.02-3.72,.38-7.41,1.01-11.11,1.53-.85,0-1.71-.01-2.56-.02,.18-.67,.35-1.33,.53-2,6.64-.68,13.29-1.36,19.93-2.04,2.04,.16,4.08,.32,6.11,.48Z"/><path class="bi" d="M224.04,115.47c-2.75-.15-5.5-.29-8.26-.44,18.58-.01,37.16-.03,55.73-.04-15.83,.16-31.65,.32-47.48,.48Z"/><path class="bg" d="M224.04,115.47c15.83-.16,31.65-.32,47.48-.48,.16,0,.32,.02,.48,.04,.34,.17,.69,.34,1.03,.52,0,.17,0,.34-.01,.51-4.94-.02-9.88-.04-14.82-.06-11.39-.17-22.77-.35-34.16-.52Z"/><path class="bi" d="M273.03,115.55c-.34-.17-.69-.34-1.03-.52,6.64-2.4,13.28-4.8,19.92-7.2-2.35,12.22-12.12,6.3-18.89,7.71Z"/><path class="aw" d="M294.99,120.66c-5.28-1.36-10.56-2.72-15.85-4.08,2.39,.16,4.78,.32,7.17,.47,2.89,1.2,5.79,2.4,8.68,3.6Z"/><path class="m" d="M271.46,147.18c-1.52,0-3.04,0-4.56,0,.53-.42,1.07-.84,1.91-1.51-1.99-.41-3.44-.71-5.76-1.19,3.15-.4,5.33-.67,7.51-.95-2.46-1.5-4.93-2.98-7.36-4.52-.6-.38-1.52-.98-1.49-1.43,.06-.82,.65-1.64,1.18-2.35,.09-.12,.96,.35,4.28,1.64-2.62-4.4-4.01-6.74-5.4-9.08l.51-.51c2.39-1.7,4.78-3.39,7.17-5.09h1.52c.18,.73,.36,1.46,.29,1.18,1.56,1.31,2.47,2.08,3.39,2.86,.38-.6,1.08-1.73,3.79-6.08-1.46,4.91-1.85,6.22-2.24,7.53l.91,.57c.54-1.2,1.07-2.4,1.63-3.59,.24-.5,.49-1.06,.9-1.41,.23-.2,1.02-.19,1.13-.02,.21,.36,.27,.93,.15,1.34-.72,2.33-1.53,4.64-2.18,6.99-.02,.06,2.03,1,2.25,.76,.76-.86,1.14-2.05,2.59-4.98-.65,3.61-.93,5.14-.87,4.84,2.57,2.97,4.34,5.01,3.82,4.41,5.62-4.06,11.39-8.22,17.15-12.38,.18,7.33,.36,14.67,.54,22-.14,.19-.27,.38-.41,.57-4.16-.91-8.33-1.83-14.94-3.28-.22-.24-1.68-1.8-3.67-3.93-.16,2.17-.27,3.61-.39,5.29l-5.64,.84c-2.03-.77-4.07-1.53-6.3-2.37-.32,.89-.86,2.38-1.39,3.86Z"/><path class="ch" d="M270.97,122.19c-.51,0-1.01,0-1.52,.01-.51-.01-1.02-.02-1.54-.03-4.78-.17-9.55-.33-14.33-.5-9.71-.17-19.43-.34-29.14-.5-12.61,.34-25.23,.67-37.84,1.01,14.01-1.07,28.02-2.92,42.04-3.03,20.22-.16,40.45,.88,60.67,1.55,2.93,.1,5.83,.97,8.75,1.48-9.03,0-18.07,0-27.1,0Z"/><path class="ck" d="M279.15,145.7l5.64-.84c.12-1.68,.23-3.12,.39-5.29,1.99,2.13,3.45,3.69,3.67,3.93,6.61,1.45,10.78,2.37,14.94,3.28-.05,.13-.11,.26-.19,.38l-1.96,.16-23.02-.12c.17-.5,.35-1,.52-1.5Z"/><path class="af" d="M54.13,134.59c.17,3.92,.33,7.84,.5,11.77,.19,.34,.38,.69,.57,1.03l-.06,.55c-.79-7.53-1.57-15.06-2.36-22.59,.46-.72,.93-1.43,1.39-2.15,.23-.01,.45-.03,.68-.04-.24,3.81-.48,7.62-.73,11.44Z"/><path class="ch" d="M54.13,134.59c.24-3.81,.48-7.62,.73-11.44,.29-.15,.58-.3,.88-.45,4.43-.18,8.85-.35,13.28-.53-.99,.47-2.1,1.51-2.95,1.33-9.33-1.97-12.76,2.23-11.93,11.09Z"/><path class="c`" d="M83.38,115.08c-.03,.15-.05,.29-.07,.44-4.26,0-8.52-.01-12.78-.02,3.57-.17,7.15-.34,10.72-.51,.71,.03,1.42,.06,2.13,.09Z"/><path class="bh" d="M141.61,114.99c-15.51,0-31.02-.01-46.53-.02,15.51,0,31.02,.01,46.53,.02Z"/><path class="w" d="M55.2,147.39c-.19-.34-.38-.69-.57-1.03,1.85-4.2,3.71-8.41,5.56-12.61l-2.48-1.24c1.87-2.61,3.74-5.23,5.61-7.84,2.61,2.09,5.23,4.19,7.34,5.88l2.42-1.93c-.05-.53-.15-1.57-.39-4.11,2.32,3.38,3.82,5.57,6.36,9.27-.63-.42,.55,.36,.53,.35,3.12-3.46,6.24-6.94,9.37-10.41,.63,.88,1.26,1.76,2,2.81-.22,.14-.8,.49,.12-.08l-1.02,8.94c-1.02-.74-.4-.29,.22,.16l-3.4,1.76c1.38,2.8,2.75,5.6,4.13,8.4-3.07,0-6.14,0-9.2,0l-.72-6.86c-4.04-1.62-7.44-2.98-11.2-4.48,.32-.49-.44,.67-.33,.49-1.24,2.44-1.78,3.5-1.08,2.12-1.86,1.36-1.41,1.03-.97,.71l-1.87-1.59c-1.94,2.52-3.88,5.04-5.82,7.56l-.54,3.49c-1.36,.08-2.71,.16-4.07,.24Z"/><path class="r" d="M120.76,141.83c-.42-1.99-.75-3.21-.87-4.46-.02-.23,1.04-.85,1.12-.78,.73,.69,1.36,1.49,2.12,2.38,.34-1.18,.7-2.42,1.25-4.34,.2,.23-.19-.22-.71-.83,.52-.14,.95-.39,1.11-.27,2.03,1.55,5.51,3.04,5.64,4.76,.17,2.27-2.56,6.85-3.62,6.73-3.97-.44-7.77-2.4-11.63-3.79l2.05-3.17c1.36,1.45,2.33,2.47,3.56,3.78Z"/><path class="t" d="M101.73,123.21c3.92-.34,7.84-.68,11.76-1.02,.34,.51,.68,1.02,1.02,1.53-.4,3.11-.22,6.46-1.39,9.25-1.04,2.49-3.57,4.35-6.44,7.64-.63-3.8-1-6-1.37-8.2h0l-.86-2.45,2.83-1.59-5.54-5.16Z"/><path class="dl" d="M81.79,145.7c3.07,0,6.14,0,9.2,0,.85,0,1.71,0,2.56,0,1.36-.34,2.73-.68,4.09-1.02l5.64,2.5c-14.67-.01-29.35-.02-44.02-.03,.18-1.16,.36-2.33,.54-3.49,7.33,.68,14.66,1.36,21.99,2.04Z"/><path class="dl" d="M157.98,147.18c-9.55,0-19.09,0-28.64,0,5.81-.52,11.62-1.34,17.45-1.44,3.72-.07,7.46,.93,11.19,1.44Z"/><path class="t" d="M97.64,144.68c-1.36,.34-2.73,.68-4.09,1.02-.59-1.08-1.18-2.17-1.65-3.03,.43-.49,1.41-1.2,1.3-1.55-.26-.82-1.06-1.48-1.69-2.27,.8-1.28,1.82-2.91,3.19-5.11,2.09,1.67,4.36,3.48,6.62,5.29l-1.08,1.34-2.79-2.09c.06,2.13,.12,4.27,.19,6.4Z"/><path class="dl" d="M111.98,147.17c-2.57,0-5.13,0-7.7,0,3.44-.82,6.88-1.65,10.31-2.47l.24,1.29c-.95,.39-1.91,.78-2.86,1.18Z"/><path class="t" d="M105.31,132.41c-1.29,.49-2.59,.97-4.38,1.65l.74-2.88c1.21,.41,2.43,.82,3.64,1.23h0Z"/><path class="an" d="M161.55,140.07c1.31-.59,2.61-1.17,4.92-2.21-1.29,1.76-1.83,2.5-2.36,3.24-.85-.34-1.71-.68-2.56-1.02Z"/><path class="bt" d="M261.77,127.8c1.39,2.34,2.78,4.68,5.4,9.08-3.32-1.29-4.19-1.76-4.28-1.64-.52,.71-1.12,1.53-1.18,2.35-.03,.45,.9,1.05,1.49,1.43,2.43,1.54,4.9,3.02,7.36,4.52-2.18,.28-4.36,.55-7.51,.95,2.32,.48,3.77,.78,5.76,1.19-.84,.67-1.38,1.09-1.91,1.51-14.67,0-29.33,0-44,0l8.96-5.46c7.77,1.35,13.89,2.78,20.09,3.29,2,.16,4.19-2.09,6.29-3.23-.7-1.12-1.88-2.22-1.94-3.37-.05-.87,1.57-1.7,2.06-2.73,1.24-2.57,2.27-5.24,3.39-7.87Zm-26.57,17.68l1.22-1.06c-.83-.92-1.64-1.87-2.55-2.71-.07-.07-.8,.58-1.23,.89,.85,.96,1.7,1.92,2.55,2.88Z"/><path class="an" d="M206.04,144.16c1.19-.68,2.39-1.36,3.58-2.05,2.32,.35,4.64,.7,7.27,1.1l-1.14,1.97-1.02,1.99h-1.51c-2.39-1-4.79-2.01-7.18-3.01Z"/><path class="bo" d="M253.59,121.67c4.78,.17,9.55,.33,14.32,.5-2.9,.68-5.8,1.37-8.7,2.05-.51,.17-1.02,.34-1.53,.51,.32-.57,.64-1.14,1.08-1.93-1.83-.4-3.5-.77-5.17-1.14Z"/><path class="bt" d="M259.21,124.22c2.9-.68,5.8-1.37,8.7-2.05,.51,.01,1.02,.02,1.54,.03-2.39,1.7-4.78,3.39-7.17,5.09-1.02-1.02-2.05-2.05-3.07-3.07Z"/><path class="bt" d="M214.73,147.18l1.02-1.99c1.2,.66,2.39,1.33,3.59,1.99-1.54,0-3.07,0-4.61,0Z"/><path class="an" d="M166.14,149.78l2.03-1.44c5.12,0,10.24,0,15.36,0,0,.14,0,.29,.01,.43-4.29,.85-8.59,1.7-13.16,2.6-.79-.29-2.51-.94-4.24-1.59Z"/><path class="bt" d="M279.15,145.7c-.17,.5-.35,1-.52,1.5h-7.17c.54-1.49,1.07-2.98,1.39-3.87,2.23,.84,4.26,1.61,6.3,2.37Z"/><path class="bt" d="M206.04,144.16c2.39,1.01,4.79,2.01,7.18,3.02-1.54,0-3.07,0-4.61,0l-2.57-3.02Z"/><path class="bv" d="M293.43,148.18h-24.99c8.33,0,16.66,0,24.99,0Z"/><path class="bm" d="M144.14,148.19c-5.43,0-10.86-.01-16.29-.02,5.43,0,10.86,.01,16.29,.02Z"/><path class="bv" d="M198.33,148.18c-4.23,0-8.47-.01-12.7-.02,4.23,0,8.47,.01,12.7,.02Z"/><path class="bo" d="M159,148.35v.42c-2.72-.15-5.43-.3-8.15-.45,2.72,0,5.43,.02,8.15,.03Z"/><path class="bv" d="M248.95,148.19c-4.24,0-8.47,0-12.71,0,4.24,0,8.47,0,12.71,0Z"/><path class="an" d="M195.81,144.16l-1.08,2.5c-.46-1.65-.72-2.58-.98-3.51,.43-.59,.87-1.17,2.05-2.77v3.78Z"/><path class="dd" d="M81.79,145.7c-7.33-.68-14.66-1.36-21.99-2.04,1.94-2.52,3.88-5.04,5.82-7.56l1.87,1.59c-.44,.33-.89,.65,.97-.71-.7,1.38-.16,.32,1.08-2.12-.12,.17,.65-.98,.33-.49,3.76,1.5,7.16,2.86,11.2,4.48l.72,6.86Z"/><path class="aj" d="M235.2,145.48c-.85-.96-1.7-1.92-2.55-2.88,.42-.31,1.16-.95,1.23-.89,.9,.84,1.71,1.79,2.55,2.71l-1.22,1.06Z"/></g></g></g></svg>